<svg width="148" height="28" viewBox="0 0 148 28" fill="none" xmlns="http://www.w3.org/2000/svg">
<g clip-path="url(#clip0_202_2384)">
<path d="M0 0.533046H5.1066V2.30198C6.49599 0.975278 8.056 0.3089 9.78664 0.3089C11.9317 0.3089 13.5648 1.20548 14.6921 2.99864C15.8439 1.18731 17.477 0.27861 19.6037 0.27861C20.2801 0.27861 20.92 0.375538 21.5233 0.575451C22.1266 0.775365 22.6445 1.07826 23.0772 1.50232C23.5099 1.92032 23.8511 2.4716 24.1071 3.14404C24.363 3.81647 24.4849 4.62824 24.4849 5.5854V14.9208H19.3783V7.82686C19.3783 7.0999 19.3234 6.50016 19.2198 6.03369C19.1162 5.56723 18.9639 5.20375 18.7689 4.9372C18.5739 4.67671 18.3423 4.50102 18.0803 4.4041C17.8183 4.31323 17.5379 4.26476 17.2333 4.26476C15.594 4.26476 14.7775 5.45213 14.7775 7.82686V14.9208H9.67085V7.82686C9.67085 7.0999 9.6221 6.4941 9.5307 6.01552C9.43929 5.53694 9.29913 5.16135 9.12241 4.88268C8.94569 4.60401 8.71413 4.41016 8.43381 4.30717C8.1535 4.20418 7.82443 4.15572 7.44662 4.15572C7.12365 4.15572 6.82505 4.20418 6.54474 4.29505C6.26442 4.38592 6.01458 4.57372 5.7952 4.84027C5.57582 5.11288 5.41129 5.48242 5.28941 5.961C5.16754 6.43958 5.1066 7.05749 5.1066 7.82686V14.9208H0V0.533046Z" fill="#DA0D1C"/>
<path d="M32.5775 8.57804C32.5775 10.765 33.6134 11.8615 35.6792 11.8615C36.7883 11.8615 37.6231 11.4132 38.1898 10.5166H43.1258C42.1264 13.8061 39.6402 15.4539 35.6487 15.4539C34.4239 15.4539 33.3087 15.2721 32.2911 14.9086C31.2734 14.5452 30.4081 14.0242 29.6829 13.3517C28.9577 12.6793 28.3971 11.8736 28.0071 10.9407C27.611 10.0077 27.416 8.9597 27.416 7.80262C27.416 6.64555 27.6049 5.52482 27.9827 4.5616C28.3606 3.59838 28.8968 2.78055 29.5915 2.10812C30.2862 1.43568 31.1271 0.914694 32.1143 0.551215C33.1015 0.187736 34.2167 0.0059967 35.4537 0.0059967C36.6908 0.0059967 37.7755 0.187736 38.7566 0.551215C39.7316 0.914694 40.5603 1.44174 41.2367 2.13841C41.9132 2.83508 42.4311 3.67713 42.7907 4.6767C43.1502 5.67627 43.3269 6.80305 43.3269 8.05706V8.59016H32.5775V8.57804ZM38.5555 5.63386C38.3848 4.92508 38.0375 4.35563 37.5134 3.92551C36.9894 3.4954 36.3495 3.28337 35.5939 3.28337C34.8017 3.28337 34.1618 3.48934 33.6622 3.90128C33.1625 4.31322 32.8456 4.89479 32.7176 5.63992H38.5555V5.63386Z" fill="#DA0D1C"/>
<path d="M46.2275 0.533048H51.3341V2.3565C52.0288 1.51444 52.7357 0.951049 53.4487 0.660265C54.1617 0.369482 55.0026 0.224091 55.9593 0.224091C56.977 0.224091 57.8423 0.387656 58.5675 0.714787C59.2926 1.04192 59.9081 1.50232 60.4139 2.10207C60.8283 2.5867 61.1086 3.13192 61.2609 3.72561C61.4133 4.32535 61.4864 5.00384 61.4864 5.7732V14.9147H56.3798V7.65118C56.3798 6.94239 56.325 6.36689 56.2275 5.92465C56.1239 5.48848 55.9411 5.13712 55.679 4.87662C55.4535 4.65248 55.1976 4.49497 54.9173 4.39804C54.637 4.30717 54.3323 4.25871 54.0154 4.25871C53.1501 4.25871 52.4859 4.51314 52.0288 5.02807C51.5657 5.543 51.3402 6.27602 51.3402 7.22712V14.9086H46.2336V0.533048H46.2275Z" fill="#DA0D1C"/>
<path d="M72.4065 10.6862H78.5003V14.9207H63.8325L70.6576 4.76757H64.7649V0.533035H79.1767L72.4065 10.6862Z" fill="#DA0D1C"/>
<path d="M86.1723 8.57804C86.1723 10.765 87.2083 11.8615 89.274 11.8615C90.3831 11.8615 91.218 11.4132 91.7847 10.5166H96.7207C95.7213 13.8061 93.235 15.4539 89.2436 15.4539C88.0187 15.4539 86.9036 15.2721 85.8859 14.9086C84.8682 14.5452 84.0029 14.0242 83.2778 13.3517C82.5526 12.6793 81.992 11.8736 81.602 10.9407C81.2059 10.0077 81.0109 8.9597 81.0109 7.80262C81.0109 6.64555 81.1998 5.52482 81.5776 4.5616C81.9554 3.59838 82.4917 2.78055 83.1863 2.10812C83.881 1.43568 84.722 0.914694 85.7092 0.551215C86.6964 0.187736 87.8115 0.0059967 89.0486 0.0059967C90.2856 0.0059967 91.3703 0.187736 92.3514 0.551215C93.3264 0.914694 94.1552 1.44174 94.8316 2.13841C95.508 2.83508 96.026 3.67713 96.3855 4.6767C96.745 5.67627 96.9218 6.80305 96.9218 8.05706V8.59016H86.1723V8.57804ZM92.1503 5.63386C91.9797 4.92508 91.6323 4.35563 91.1083 3.92551C90.5842 3.4954 89.9444 3.28337 89.1887 3.28337C88.3965 3.28337 87.7567 3.48934 87.257 3.90128C86.7573 4.31322 86.4404 4.89479 86.3125 5.63992H92.1503V5.63386Z" fill="#DA0D1C"/>
<path d="M99.8225 0.533047H104.929V2.8896C105.471 2.02937 106.142 1.36905 106.934 0.9147C107.726 0.454294 108.646 0.230148 109.701 0.230148H110.139C110.298 0.230148 110.481 0.248322 110.688 0.28467V5.13711C110.011 4.79787 109.28 4.6343 108.488 4.6343C107.306 4.6343 106.416 4.98567 105.825 5.68839C105.234 6.39112 104.935 7.41492 104.935 8.75979V14.9268H99.8286V0.533047H99.8225Z" fill="#DA0D1C"/>
<path d="M112.967 0.533048H118.073V2.3565C118.768 1.51444 119.475 0.951049 120.188 0.660265C120.901 0.369482 121.742 0.224091 122.699 0.224091C123.716 0.224091 124.582 0.387656 125.307 0.714787C126.032 1.04192 126.647 1.50232 127.153 2.10207C127.568 2.5867 127.848 3.13192 128 3.72561C128.153 4.32535 128.226 5.00384 128.226 5.7732V14.9147H123.119V7.65118C123.119 6.94239 123.07 6.36689 122.967 5.92465C122.863 5.48848 122.68 5.13712 122.418 4.87662C122.193 4.65248 121.937 4.49497 121.657 4.39804C121.376 4.30111 121.072 4.25871 120.755 4.25871C119.889 4.25871 119.225 4.51314 118.768 5.02807C118.305 5.543 118.079 6.27602 118.079 7.22712V14.9086H112.973V0.533048H112.967Z" fill="#DA0D1C"/>
<path d="M142.863 0.533038H147.994V14.9207H142.863V13.3214C141.772 14.6845 140.297 15.369 138.433 15.369C137.378 15.369 136.41 15.1752 135.526 14.7935C134.642 14.4119 133.868 13.8727 133.21 13.1821C132.552 12.4915 132.04 11.6797 131.675 10.7407C131.309 9.80781 131.126 8.79007 131.126 7.68146C131.126 6.6516 131.303 5.67627 131.662 4.74939C132.022 3.82252 132.516 3.01681 133.155 2.3262C133.795 1.63559 134.557 1.09037 135.441 0.684488C136.324 0.284661 137.299 0.0847473 138.372 0.0847473C140.176 0.0847473 141.675 0.70872 142.857 1.96272V0.533038H142.863ZM136.434 7.68146C136.434 8.14792 136.519 8.5841 136.69 8.98392C136.86 9.38375 137.092 9.73512 137.385 10.038C137.677 10.3349 138.024 10.5711 138.427 10.7407C138.829 10.9104 139.268 10.9952 139.737 10.9952C140.206 10.9952 140.614 10.9104 141.016 10.7407C141.419 10.5711 141.772 10.3409 142.058 10.038C142.345 9.73512 142.583 9.39587 142.765 9.0021C142.948 8.60833 143.034 8.19033 143.034 7.74204C143.034 7.29375 142.942 6.86969 142.765 6.4638C142.589 6.06398 142.351 5.71261 142.058 5.40971C141.766 5.10682 141.419 4.87661 141.016 4.70699C140.614 4.53737 140.188 4.45255 139.737 4.45255C139.286 4.45255 138.829 4.53737 138.427 4.70699C138.024 4.87661 137.677 5.10682 137.385 5.40971C137.092 5.70656 136.86 6.05186 136.69 6.43351C136.519 6.81517 136.434 7.23317 136.434 7.68146Z" fill="#DA0D1C"/>
<path d="M55.1291 18.1254V19.9549C54.2333 19.2098 53.301 18.8342 52.3382 18.8342C51.2778 18.8342 50.3881 19.2098 49.663 19.9671C48.9317 20.7182 48.5661 21.6391 48.5661 22.7234C48.5661 23.8078 48.9317 24.7044 49.663 25.4435C50.3942 26.1825 51.2839 26.5521 52.3443 26.5521C52.8927 26.5521 53.3558 26.4612 53.7397 26.2855C53.953 26.1947 54.1724 26.0796 54.404 25.9281C54.6355 25.7767 54.8732 25.5949 55.1291 25.3829V27.2487C54.2394 27.7455 53.3071 27.9999 52.326 27.9999C50.8513 27.9999 49.596 27.4911 48.5539 26.4673C47.518 25.4374 47 24.1955 47 22.7416C47 21.4391 47.4327 20.276 48.298 19.2522C49.3644 17.9982 50.7477 17.3742 52.4418 17.3742C53.368 17.3742 54.2577 17.6226 55.123 18.1254H55.1291Z" fill="white"/>
<path d="M61.5947 21.3543H63.0998V27.8121H61.5947V27.1336C60.9792 27.7092 60.3089 27.9939 59.602 27.9939C58.7062 27.9939 57.9628 27.6728 57.3717 27.0246C56.7867 26.3643 56.5002 25.5465 56.5002 24.559C56.5002 23.5716 56.7928 22.784 57.3717 22.1358C57.9567 21.4937 58.6818 21.1665 59.5593 21.1665C60.315 21.1665 60.9914 21.4755 61.5947 22.0934V21.3422V21.3543ZM58.0298 24.5651C58.0298 25.183 58.1943 25.6858 58.5295 26.0796C58.8707 26.4733 59.3034 26.6672 59.8214 26.6672C60.3759 26.6672 60.8268 26.4794 61.1681 26.0977C61.5093 25.704 61.68 25.2072 61.68 24.6014C61.68 23.9956 61.5093 23.4989 61.1681 23.1051C60.8268 22.7234 60.382 22.5296 59.8336 22.5296C59.3156 22.5296 58.889 22.7234 58.5417 23.1111C58.2004 23.5049 58.0298 23.9896 58.0298 24.5711V24.5651Z" fill="white"/>
<path d="M64.995 21.3543H66.4941V21.9298C66.7683 21.6451 67.012 21.4452 67.2253 21.3422C67.4447 21.2332 67.7006 21.1786 67.9992 21.1786C68.3953 21.1786 68.8097 21.3059 69.2424 21.5603L68.5538 22.9294C68.2674 22.7234 67.9931 22.6265 67.7189 22.6265C66.9024 22.6265 66.4941 23.2384 66.4941 24.4681V27.8182H64.995V21.3604V21.3543Z" fill="white"/>
<path d="M82.2221 18.1254V19.9549C81.3264 19.2098 80.394 18.8342 79.4312 18.8342C78.3709 18.8342 77.4812 19.2098 76.756 19.9671C76.0248 20.7182 75.6591 21.6391 75.6591 22.7234C75.6591 23.8078 76.0248 24.7044 76.756 25.4435C77.4873 26.1825 78.377 26.5521 79.4373 26.5521C79.9857 26.5521 80.4489 26.4612 80.8328 26.2855C81.046 26.1947 81.2654 26.0796 81.497 25.9281C81.7285 25.7767 81.9662 25.5949 82.2221 25.3829V27.2487C81.3325 27.7455 80.4001 27.9999 79.419 27.9999C77.9443 27.9999 76.689 27.4911 75.6469 26.4673C74.611 25.4374 74.093 24.1955 74.093 22.7416C74.093 21.4391 74.5257 20.276 75.3971 19.2522C76.4635 17.9982 77.8468 17.3742 79.5409 17.3742C80.4671 17.3742 81.3568 17.6226 82.2221 18.1254Z" fill="white"/>
<path d="M88.6816 21.3543H90.1867V27.8121H88.6816V27.1336C88.0661 27.7092 87.3958 27.9939 86.6889 27.9939C85.7931 27.9939 85.0497 27.6728 84.4586 27.0246C83.8736 26.3643 83.5872 25.5465 83.5872 24.559C83.5872 23.5716 83.8797 22.784 84.4586 22.1358C85.0436 21.4937 85.7687 21.1665 86.6462 21.1665C87.4019 21.1665 88.0783 21.4755 88.6816 22.0934V21.3422V21.3543ZM85.1167 24.5651C85.1167 25.183 85.2812 25.6858 85.6164 26.0796C85.9576 26.4733 86.3903 26.6672 86.9083 26.6672C87.4628 26.6672 87.9138 26.4794 88.255 26.0977C88.5963 25.704 88.7669 25.2072 88.7669 24.6014C88.7669 23.9956 88.5963 23.4989 88.255 23.1051C87.9138 22.7234 87.4689 22.5296 86.9205 22.5296C86.4025 22.5296 85.9759 22.7234 85.6286 23.1111C85.2873 23.5049 85.1167 23.9896 85.1167 24.5711V24.5651Z" fill="white"/>
<path d="M92.088 21.3543H93.5871V21.9298C93.8613 21.6451 94.1051 21.4452 94.3183 21.3422C94.5377 21.2332 94.7937 21.1786 95.0923 21.1786C95.4884 21.1786 95.9027 21.3059 96.3354 21.5603L95.6468 22.9294C95.3604 22.7234 95.0862 22.6265 94.8119 22.6265C93.9954 22.6265 93.5871 23.2384 93.5871 24.4681V27.8182H92.088V21.3604V21.3543Z" fill="white"/>
<path d="M103.02 24.9346H98.3646C98.4072 25.4677 98.5778 25.8857 98.8825 26.2007C99.1872 26.5097 99.5833 26.6672 100.065 26.6672C100.436 26.6672 100.747 26.5763 100.991 26.4006C101.229 26.225 101.503 25.8978 101.814 25.4192L103.081 26.122C102.886 26.4552 102.679 26.7399 102.46 26.9761C102.24 27.2124 102.009 27.4063 101.759 27.5577C101.509 27.7092 101.241 27.8243 100.954 27.8909C100.668 27.9636 100.351 27.9939 100.016 27.9939C99.0471 27.9939 98.2671 27.6849 97.6821 27.067C97.0971 26.443 96.7985 25.6192 96.7985 24.5893C96.7985 23.5594 97.0849 22.7416 97.6516 22.1116C98.2244 21.4876 98.9861 21.1786 99.9307 21.1786C100.875 21.1786 101.643 21.4815 102.198 22.0873C102.746 22.6871 103.026 23.5231 103.026 24.5893V24.9407L103.02 24.9346ZM101.478 23.7169C101.271 22.9234 100.766 22.5235 99.9611 22.5235C99.7783 22.5235 99.6077 22.5538 99.4493 22.6083C99.2908 22.6629 99.1446 22.7416 99.0105 22.8446C98.8764 22.9476 98.7668 23.0748 98.6754 23.2202C98.5839 23.3656 98.5108 23.5291 98.4621 23.7169H101.478Z" fill="white"/>
</g>
<defs>
<clipPath id="clip0_202_2384">
<rect width="148" height="28" fill="white"/>
</clipPath>
</defs>
</svg>
