<svg width="148" height="28" viewBox="0 0 148 28" fill="none" xmlns="http://www.w3.org/2000/svg">
<g id="Isolation_Mode" clip-path="url(#clip0_44_9974)">
<path id="Vector" d="M0.000244141 0.533103H5.10684V2.30203C6.49623 0.975335 8.05624 0.308957 9.78688 0.308957C11.9319 0.308957 13.565 1.20554 14.6924 2.9987C15.8441 1.18736 17.4772 0.278667 19.604 0.278667C20.2804 0.278667 20.9202 0.375595 21.5235 0.575509C22.1268 0.775422 22.6448 1.07832 23.0774 1.50238C23.5101 1.92038 23.8514 2.47166 24.1073 3.14409C24.3632 3.81653 24.4851 4.6283 24.4851 5.58546V14.9208H19.3785V7.82692C19.3785 7.09996 19.3237 6.50022 19.2201 6.03375C19.1165 5.56729 18.9641 5.20381 18.7691 4.93726C18.5741 4.67676 18.3426 4.50108 18.0805 4.40415C17.8185 4.31328 17.5382 4.26482 17.2335 4.26482C15.5943 4.26482 14.7777 5.45219 14.7777 7.82692V14.9208H9.6711V7.82692C9.6711 7.09996 9.62235 6.49416 9.53094 6.01558C9.43953 5.537 9.29938 5.1614 9.12266 4.88274C8.94594 4.60407 8.71437 4.41021 8.43406 4.30723C8.15374 4.20424 7.82468 4.15578 7.44686 4.15578C7.12389 4.15578 6.82529 4.20424 6.54498 4.29511C6.26467 4.38598 6.01482 4.57378 5.79544 4.84033C5.57607 5.11294 5.41153 5.48248 5.28966 5.96106C5.16778 6.43964 5.10684 7.05755 5.10684 7.82692V14.9208H0.000244141V0.533103Z" fill="#DA0D1C"/>
<path id="Vector_2" d="M32.5777 8.5781C32.5777 10.765 33.6136 11.8615 35.6794 11.8615C36.7885 11.8615 37.6234 11.4132 38.1901 10.5167H43.1261C42.1267 13.8061 39.6404 15.4539 35.649 15.4539C34.4241 15.4539 33.309 15.2722 32.2913 14.9087C31.2736 14.5452 30.4083 14.0242 29.6832 13.3518C28.958 12.6794 28.3974 11.8736 28.0074 10.9407C27.6113 10.0078 27.4163 8.95976 27.4163 7.80268C27.4163 6.64561 27.6052 5.52488 27.983 4.56166C28.3608 3.59844 28.8971 2.78061 29.5917 2.10818C30.2864 1.43574 31.1274 0.914755 32.1146 0.551276C33.1018 0.187797 34.2169 0.00605774 35.454 0.00605774C36.691 0.00605774 37.7757 0.187797 38.7568 0.551276C39.7318 0.914755 40.5606 1.4418 41.237 2.13847C41.9134 2.83514 42.4314 3.6772 42.7909 4.67676C43.1504 5.67633 43.3272 6.80312 43.3272 8.05712V8.59022H32.5777V8.5781ZM38.5557 5.63392C38.3851 4.92514 38.0377 4.35569 37.5137 3.92557C36.9896 3.49546 36.3498 3.28343 35.5941 3.28343C34.8019 3.28343 34.1621 3.4894 33.6624 3.90134C33.1627 4.31328 32.8458 4.89485 32.7179 5.63998H38.5557V5.63392Z" fill="#DA0D1C"/>
<path id="Vector_3" d="M46.2278 0.533103H51.3344V2.35656C52.0291 1.5145 52.736 0.951104 53.4489 0.660321C54.1619 0.369538 55.0028 0.224146 55.9596 0.224146C56.9772 0.224146 57.8426 0.387711 58.5677 0.714842C59.2929 1.04197 59.9084 1.50238 60.4141 2.10212C60.8285 2.58676 61.1088 3.13198 61.2612 3.72566C61.4135 4.3254 61.4866 5.00389 61.4866 5.77326V14.9148H56.38V7.65123C56.38 6.94245 56.3252 6.36694 56.2277 5.92471C56.1241 5.48853 55.9413 5.13717 55.6793 4.87668C55.4538 4.65253 55.1979 4.49502 54.9175 4.3981C54.6372 4.30723 54.3325 4.25876 54.0157 4.25876C53.1503 4.25876 52.4861 4.5132 52.0291 5.02813C51.5659 5.54306 51.3405 6.27607 51.3405 7.22717V14.9087H46.2339V0.533103H46.2278Z" fill="#DA0D1C"/>
<path id="Vector_4" d="M72.4067 10.6863H78.5005V14.9208H63.8328L70.6578 4.76763H64.7651V0.533102H79.1769L72.4067 10.6863Z" fill="#DA0D1C"/>
<path id="Vector_5" d="M86.1726 8.5781C86.1726 10.765 87.2086 11.8615 89.2744 11.8615C90.3834 11.8615 91.2183 11.4132 91.785 10.5167H96.721C95.7216 13.8061 93.2353 15.4539 89.2439 15.4539C88.019 15.4539 86.9039 15.2722 85.8862 14.9087C84.8685 14.5452 84.0032 14.0242 83.2781 13.3518C82.5529 12.6794 81.9923 11.8736 81.6023 10.9407C81.2062 10.0078 81.0112 8.95976 81.0112 7.80268C81.0112 6.64561 81.2001 5.52488 81.5779 4.56166C81.9557 3.59844 82.492 2.78061 83.1866 2.10818C83.8813 1.43574 84.7223 0.914755 85.7095 0.551276C86.6967 0.187797 87.8118 0.00605774 89.0489 0.00605774C90.2859 0.00605774 91.3706 0.187797 92.3517 0.551276C93.3267 0.914755 94.1555 1.4418 94.8319 2.13847C95.5083 2.83514 96.0263 3.6772 96.3858 4.67676C96.7453 5.67633 96.9221 6.80312 96.9221 8.05712V8.59022H86.1726V8.5781ZM92.1506 5.63392C91.98 4.92514 91.6326 4.35569 91.1086 3.92557C90.5845 3.49546 89.9447 3.28343 89.189 3.28343C88.3968 3.28343 87.757 3.4894 87.2573 3.90134C86.7576 4.31328 86.4407 4.89485 86.3128 5.63998H92.1506V5.63392Z" fill="#DA0D1C"/>
<path id="Vector_6" d="M99.8227 0.533103H104.929V2.88966C105.472 2.02942 106.142 1.3691 106.934 0.914756C107.726 0.454349 108.647 0.230204 109.701 0.230204H110.139C110.298 0.230204 110.481 0.248378 110.688 0.284725V5.13717C110.012 4.79792 109.28 4.63436 108.488 4.63436C107.306 4.63436 106.416 4.98572 105.825 5.68845C105.234 6.39117 104.935 7.41497 104.935 8.75984V14.9269H99.8288V0.533103H99.8227Z" fill="#DA0D1C"/>
<path id="Vector_7" d="M112.967 0.533103H118.074V2.35656C118.768 1.5145 119.475 0.951104 120.188 0.660321C120.901 0.369538 121.742 0.224146 122.699 0.224146C123.716 0.224146 124.582 0.387711 125.307 0.714842C126.032 1.04197 126.648 1.50238 127.153 2.10212C127.568 2.58676 127.848 3.13198 128 3.72566C128.153 4.3254 128.226 5.00389 128.226 5.77326V14.9148H123.119V7.65123C123.119 6.94245 123.071 6.36694 122.967 5.92471C122.863 5.48853 122.681 5.13717 122.419 4.87668C122.193 4.65253 121.937 4.49502 121.657 4.3981C121.376 4.30117 121.072 4.25876 120.755 4.25876C119.89 4.25876 119.225 4.5132 118.768 5.02813C118.305 5.54306 118.08 6.27607 118.08 7.22717V14.9087H112.973V0.533103H112.967Z" fill="#DA0D1C"/>
<path id="Vector_8" d="M142.863 0.533103H147.994V14.9208H142.863V13.3215C141.772 14.6846 140.298 15.3691 138.433 15.3691C137.379 15.3691 136.41 15.1753 135.526 14.7936C134.643 14.4119 133.869 13.8728 133.211 13.1822C132.552 12.4916 132.041 11.6798 131.675 10.7408C131.309 9.80788 131.127 8.79013 131.127 7.68152C131.127 6.65167 131.303 5.67633 131.663 4.74946C132.022 3.82259 132.516 3.01688 133.156 2.32627C133.796 1.63566 134.557 1.09044 135.441 0.684553C136.325 0.284726 137.3 0.0848122 138.372 0.0848122C140.176 0.0848122 141.675 0.708784 142.857 1.96279V0.533103H142.863ZM136.434 7.68152C136.434 8.14799 136.52 8.58416 136.69 8.98399C136.861 9.38382 137.092 9.73518 137.385 10.0381C137.677 10.3349 138.025 10.5712 138.427 10.7408C138.829 10.9104 139.268 10.9952 139.737 10.9952C140.206 10.9952 140.615 10.9104 141.017 10.7408C141.419 10.5712 141.772 10.341 142.059 10.0381C142.345 9.73518 142.583 9.39593 142.766 9.00216C142.948 8.60839 143.034 8.19039 143.034 7.7421C143.034 7.29381 142.942 6.86975 142.766 6.46387C142.589 6.06404 142.351 5.71268 142.059 5.40978C141.766 5.10688 141.419 4.87668 141.017 4.70705C140.615 4.53743 140.188 4.45262 139.737 4.45262C139.286 4.45262 138.829 4.53743 138.427 4.70705C138.025 4.87668 137.677 5.10688 137.385 5.40978C137.092 5.70662 136.861 6.05193 136.69 6.43358C136.52 6.81523 136.434 7.23323 136.434 7.68152Z" fill="#DA0D1C"/>
<path id="Vector_9" d="M97.9763 18.1255V19.955C97.0805 19.2099 96.1481 18.8343 95.1853 18.8343C94.125 18.8343 93.2353 19.2099 92.5102 19.9671C91.7789 20.7183 91.4133 21.6391 91.4133 22.7235C91.4133 23.8079 91.7789 24.7045 92.5102 25.4435C93.2414 26.1826 94.1311 26.5521 95.1914 26.5521C95.7399 26.5521 96.203 26.4613 96.5869 26.2856C96.8002 26.1947 97.0196 26.0796 97.2511 25.9282C97.4827 25.7767 97.7203 25.595 97.9763 25.383V27.2488C97.0866 27.7456 96.1542 28 95.1731 28C93.6984 28 92.4431 27.4911 91.4011 26.4673C90.3651 25.4375 89.8472 24.1956 89.8472 22.7417C89.8472 21.4392 90.2798 20.2761 91.1451 19.2523C92.2116 17.9983 93.5948 17.3743 95.2889 17.3743C96.2152 17.3743 97.1049 17.6227 97.9702 18.1255H97.9763Z" fill="#1D1D1B"/>
<path id="Vector_10" d="M104.442 21.3544H105.947V27.8122H104.442V27.1337C103.826 27.7092 103.156 27.9939 102.449 27.9939C101.553 27.9939 100.81 27.6729 100.219 27.0247C99.6338 26.3643 99.3474 25.5465 99.3474 24.5591C99.3474 23.5716 99.6399 22.7841 100.219 22.1359C100.804 21.4937 101.529 21.1666 102.406 21.1666C103.162 21.1666 103.839 21.4756 104.442 22.0935V21.3423V21.3544ZM100.877 24.5651C100.877 25.183 101.041 25.6858 101.377 26.0796C101.718 26.4734 102.151 26.6672 102.669 26.6672C103.223 26.6672 103.674 26.4794 104.015 26.0978C104.357 25.704 104.527 25.2073 104.527 24.6015C104.527 23.9957 104.357 23.4989 104.015 23.1051C103.674 22.7235 103.229 22.5296 102.681 22.5296C102.163 22.5296 101.736 22.7235 101.389 23.1112C101.048 23.505 100.877 23.9896 100.877 24.5712V24.5651Z" fill="#1D1D1B"/>
<path id="Vector_11" d="M107.842 21.3544H109.341V21.9299C109.615 21.6452 109.859 21.4453 110.072 21.3423C110.292 21.2332 110.548 21.1787 110.846 21.1787C111.242 21.1787 111.657 21.3059 112.09 21.5604L111.401 22.9295C111.115 22.7235 110.84 22.6266 110.566 22.6266C109.75 22.6266 109.341 23.2384 109.341 24.4682V27.8183H107.842V21.3604V21.3544Z" fill="#1D1D1B"/>
<path id="Vector_12" d="M125.069 18.1255V19.955C124.174 19.2099 123.241 18.8343 122.278 18.8343C121.218 18.8343 120.328 19.2099 119.603 19.9671C118.872 20.7183 118.506 21.6391 118.506 22.7235C118.506 23.8079 118.872 24.7045 119.603 25.4435C120.334 26.1826 121.224 26.5521 122.284 26.5521C122.833 26.5521 123.296 26.4613 123.68 26.2856C123.893 26.1947 124.113 26.0796 124.344 25.9282C124.576 25.7767 124.813 25.595 125.069 25.383V27.2488C124.18 27.7456 123.247 28 122.266 28C120.791 28 119.536 27.4911 118.494 26.4673C117.458 25.4375 116.94 24.1956 116.94 22.7417C116.94 21.4392 117.373 20.2761 118.244 19.2523C119.311 17.9983 120.694 17.3743 122.388 17.3743C123.314 17.3743 124.204 17.6227 125.069 18.1255Z" fill="#1D1D1B"/>
<path id="Vector_13" d="M131.529 21.3544H133.034V27.8122H131.529V27.1337C130.913 27.7092 130.243 27.9939 129.536 27.9939C128.64 27.9939 127.897 27.6729 127.306 27.0247C126.721 26.3643 126.434 25.5465 126.434 24.5591C126.434 23.5716 126.727 22.7841 127.306 22.1359C127.891 21.4937 128.616 21.1666 129.493 21.1666C130.249 21.1666 130.925 21.4756 131.529 22.0935V21.3423V21.3544ZM127.964 24.5651C127.964 25.183 128.128 25.6858 128.464 26.0796C128.805 26.4734 129.237 26.6672 129.755 26.6672C130.31 26.6672 130.761 26.4794 131.102 26.0978C131.443 25.704 131.614 25.2073 131.614 24.6015C131.614 23.9957 131.443 23.4989 131.102 23.1051C130.761 22.7235 130.316 22.5296 129.768 22.5296C129.25 22.5296 128.823 22.7235 128.476 23.1112C128.134 23.505 127.964 23.9896 127.964 24.5712V24.5651Z" fill="#1D1D1B"/>
<path id="Vector_14" d="M134.935 21.3544H136.434V21.9299C136.708 21.6452 136.952 21.4453 137.165 21.3423C137.385 21.2332 137.641 21.1787 137.939 21.1787C138.335 21.1787 138.75 21.3059 139.182 21.5604L138.494 22.9295C138.207 22.7235 137.933 22.6266 137.659 22.6266C136.842 22.6266 136.434 23.2384 136.434 24.4682V27.8183H134.935V21.3604V21.3544Z" fill="#1D1D1B"/>
<path id="Vector_15" d="M145.867 24.9347H141.212C141.254 25.4678 141.425 25.8858 141.73 26.2008C142.034 26.5097 142.43 26.6672 142.912 26.6672C143.284 26.6672 143.594 26.5764 143.838 26.4007C144.076 26.225 144.35 25.8979 144.661 25.4193L145.928 26.122C145.733 26.4552 145.526 26.7399 145.307 26.9762C145.087 27.2125 144.856 27.4063 144.606 27.5578C144.356 27.7092 144.088 27.8243 143.802 27.891C143.515 27.9637 143.198 27.9939 142.863 27.9939C141.894 27.9939 141.114 27.685 140.529 27.0671C139.944 26.4431 139.646 25.6192 139.646 24.5894C139.646 23.5595 139.932 22.7417 140.499 22.1116C141.072 21.4877 141.833 21.1787 142.778 21.1787C143.722 21.1787 144.49 21.4816 145.045 22.0874C145.593 22.6871 145.873 23.5231 145.873 24.5894V24.9407L145.867 24.9347ZM144.326 23.717C144.118 22.9234 143.613 22.5236 142.808 22.5236C142.625 22.5236 142.455 22.5539 142.296 22.6084C142.138 22.6629 141.992 22.7417 141.858 22.8447C141.724 22.9476 141.614 23.0749 141.523 23.2203C141.431 23.3656 141.358 23.5292 141.309 23.717H144.326Z" fill="#1D1D1B"/>
</g>
<defs>
<clipPath id="clip0_44_9974">
<rect width="148" height="28" fill="white" transform="translate(0.000244141)"/>
</clipPath>
</defs>
</svg>
