<svg width="176" height="52" viewBox="0 0 176 52" fill="none" xmlns="http://www.w3.org/2000/svg">
<rect width="176" height="52" rx="10" fill="white"/>
<g clip-path="url(#clip0_206_2533)">
<path d="M117.539 18.3106C117.587 18.3411 117.606 18.4142 117.569 18.4629C117.539 18.5117 117.472 18.5299 117.417 18.4995C101.455 9.41435 81.822 8.41504 64.2347 12.2721C55.301 14.2281 46.2881 16.8421 37.1899 20.102C37.1656 20.1142 37.1412 20.102 37.129 20.0776C37.1169 20.0533 37.129 20.0228 37.1534 20.0106C52.5849 13.0521 68.7837 9.38388 85.7438 9.01219C96.8455 8.77455 108.288 12.0101 117.539 18.3106Z" fill="#B6A00D"/>
<path d="M41.5624 22.9659C40.9412 23.3071 40.3688 23.7032 39.9242 24.1967C39.8329 24.3003 39.7415 24.41 39.6258 24.4892C39.4857 24.5806 39.3213 24.6172 39.163 24.6598C38.4627 24.8731 37.8963 25.3606 37.5127 25.9699C37.3848 26.1649 37.4396 26.2685 37.6771 26.2806C40.3505 26.3781 44.0105 25.9455 44.7473 29.5345C45.3441 32.4349 44.0957 34.2568 41.0021 35.0002C40.8499 35.0367 40.8255 35.1159 40.9412 35.2256C42.9874 37.2364 44.6621 39.5336 45.9592 42.1172C46.0749 42.3365 46.0018 42.4462 45.7582 42.4462L43.8217 42.434C43.639 42.434 43.505 42.3548 43.4137 42.1964C42.3845 40.3562 41.2396 38.5891 39.979 36.9135C38.5966 35.0794 36.6601 34.8783 34.5652 35.2927C34.3825 35.3231 34.2973 35.4328 34.2973 35.6156V42.105C34.2973 42.3365 34.1815 42.4523 33.9501 42.4523H32.5556C32.3485 42.4523 32.245 42.3487 32.245 42.1354V26.372C32.245 26.372 34.9428 26.3538 35.229 26.2867C36.3312 26.0247 36.4957 25.2326 37.2143 24.5136C37.3726 24.3491 37.5675 24.2272 37.7623 24.1114C45.1797 19.4988 53.4435 16.507 61.951 14.6424C69.5936 12.9667 77.4129 12.1807 85.2261 12.0284C94.9941 11.8456 107.6 12.2477 114.932 19.6511C115.273 19.9984 115.243 20.0228 114.853 19.7425C103.818 11.9248 87.0896 13.0094 74.1853 14.3804C65.5561 15.3005 56.8538 16.708 48.7057 19.7974C47.1345 20.3945 45.5877 21.0526 44.0774 21.7899C43.298 22.1677 42.3906 22.5272 41.5685 22.9842L41.5624 22.9659ZM39.4431 32.6664C36.9402 32.0571 35.3934 30.5277 34.8088 28.0782C34.7783 27.9441 34.6566 27.8649 34.5226 27.8832C34.3886 27.9015 34.2912 28.0172 34.2912 28.1452V33.1234C34.2912 33.2575 34.3521 33.3306 34.486 33.3428C37.062 33.55 43.0665 34.0679 42.756 30.6678C42.4758 27.5846 38.8037 27.9868 36.6601 28.1391C36.4713 28.1513 36.38 28.2488 36.3982 28.4377C36.5444 30.4241 37.9633 31.3686 39.5162 32.4958C39.7963 32.6908 39.7659 32.7517 39.437 32.6725L39.4431 32.6664Z" fill="#231C17"/>
<path d="M149.826 26.0186C149.607 26.0186 149.504 26.1222 149.522 26.3233C149.278 26.1771 149.102 26.0857 148.986 26.0552C141.63 24.3003 134.188 24.7329 126.655 27.3531C126.838 26.372 126.192 26.0613 124.718 26.4208C124.56 26.4573 124.444 26.6036 124.438 26.7681L124.408 28.2488L116.674 31.8195L116.655 28.456C116.655 28.2549 116.747 28.1635 116.948 28.1696C118.05 28.2244 122.989 29.0531 121.844 26.5305C121.783 26.3964 121.673 26.3294 121.527 26.3294H109.579C109.342 26.3294 109.232 26.4513 109.238 26.6828L109.281 27.871C109.281 28.0782 109.457 28.2427 109.658 28.2427H114.189C114.402 28.2427 114.512 28.3524 114.512 28.5656L114.494 32.3861C108.337 34.2507 102.174 34.8417 95.9928 34.1471C95.4752 28.2183 102.418 25.0132 105.414 30.8202C105.511 31.0091 105.663 31.1065 105.877 31.1005C106.443 31.1005 106.906 30.9177 107.247 30.5399C107.381 30.3997 107.399 30.2413 107.32 30.0585C103.739 22.6368 94.105 26.0064 93.6909 33.7693L81.5417 30.7105L81.5296 28.5169C81.5296 28.3341 81.6148 28.2488 81.7914 28.2488H90.5303C90.7799 28.2488 90.9078 28.1208 90.9139 27.8771L90.9383 26.6341C90.9383 26.4391 90.8469 26.3416 90.646 26.3416H79.6052C79.4225 26.3416 79.3372 26.4269 79.3311 26.6097L79.3068 29.7599L75.4946 28.4072L76.7065 28.2C76.9622 28.1513 77.0962 27.999 77.1023 27.743L77.1267 26.6158C77.1267 26.4573 77.0048 26.3294 76.8465 26.3233L69.892 26.2441C63.8266 23.6849 57.5541 22.5393 51.0624 22.8075C49.2659 22.8806 45.472 23.4655 39.6927 24.5501C40.1556 23.7824 40.7828 23.301 41.5867 23.0877C52.7675 20.297 62.0788 18.3045 69.5327 17.1163C78.6247 15.66 87.5341 15.2335 96.2607 15.8306C102.485 16.2632 109.549 18.0364 114.299 22.0884C114.433 22.2103 114.597 22.2591 114.78 22.2286C126.18 20.7479 137.336 21.7777 148.243 25.324C148.785 25.5007 149.303 25.7383 149.802 26.043L149.826 26.0186Z" fill="#B6A00D"/>
<path d="M145.612 21.2354C150.137 22.5028 154.138 24.1784 157.615 26.2441C157.664 26.2685 157.682 26.3294 157.652 26.3842C157.628 26.433 157.567 26.4513 157.518 26.4269C145.813 20.9734 133.469 18.4446 120.498 18.8407C120.401 18.8407 120.346 18.798 120.328 18.6945C120.328 18.6274 120.328 18.5726 120.346 18.5239C120.346 18.5056 120.358 18.4995 120.37 18.4995C128.646 17.9145 137.056 18.8285 145.612 21.2293V21.2354Z" fill="#B6A00D"/>
<path d="M145.612 22.6186C148.974 23.4107 152.141 24.7756 155.125 26.7194C155.179 26.7498 155.198 26.8229 155.167 26.8839C155.137 26.9387 155.07 26.9631 155.009 26.9387C145.789 23.0451 136.703 21.6619 126.704 20.9124C123.312 20.6565 119.907 20.5468 116.497 20.5712C116.442 20.5712 116.381 20.5468 116.333 20.492C116.314 20.4798 116.308 20.4676 116.29 20.4615C116.266 20.4432 116.266 20.4372 116.302 20.4311C126.204 19.6146 135.972 20.3518 145.612 22.6247V22.6186Z" fill="#231C17"/>
<path d="M37.1107 24.5258C35.9841 26.9997 34.3886 26.1953 32.2389 26.3659L28.1283 27.5541C27.9821 27.4932 27.836 27.3409 27.6959 27.0971C30.6677 25.8054 33.8101 24.9523 37.1107 24.5258Z" fill="#B6A00D"/>
<path d="M64.7157 34.5005C64.7157 39.5945 60.5869 43.7258 55.4958 43.7258C50.4048 43.7258 46.2759 39.5945 46.2759 34.5005C46.2759 29.4065 50.4048 25.2752 55.4958 25.2752C60.5869 25.2752 64.7157 29.4065 64.7157 34.5005ZM62.6391 34.5127C62.6391 30.5642 59.4359 27.3653 55.4958 27.3653C51.5557 27.3653 48.3525 30.5703 48.3525 34.5127C48.3525 38.4551 51.5557 41.6602 55.4958 41.6602C59.4359 41.6602 62.6391 38.4551 62.6391 34.5127Z" fill="#B6A00D"/>
<path d="M146.989 34.7686C146.989 39.8687 142.86 44 137.763 44C132.665 44 128.537 39.8687 128.537 34.7686C128.537 29.6685 132.665 25.5373 137.763 25.5373C142.86 25.5373 146.989 29.6685 146.989 34.7686ZM144.894 34.7564C144.894 30.8141 141.697 27.6212 137.763 27.6212C133.829 27.6212 130.632 30.8202 130.632 34.7564C130.632 38.6927 133.829 41.8917 137.763 41.8917C141.697 41.8917 144.894 38.6927 144.894 34.7564Z" fill="#B6A00D"/>
<path d="M96.0111 34.141C95.7979 34.7991 95.8406 35.5303 96.1511 36.3407C96.0842 36.5844 96.1268 36.8099 96.2851 37.0049C97.564 41.648 103.885 42.5193 105.341 37.8214C105.456 37.6264 105.481 37.3888 105.414 37.1207C106.297 36.8769 107.174 36.9744 108.032 37.4131C107.935 37.5289 107.886 37.6569 107.892 37.797C107.295 38.6684 106.924 39.7042 106.297 40.4354C102.296 45.0724 95.2011 42.6046 93.9284 36.7063L93.6726 35.7497L93.7091 33.7571C94.1232 25.9943 103.751 22.6247 107.338 30.0463C107.417 30.2291 107.399 30.3875 107.265 30.5277C106.918 30.9055 106.461 31.0883 105.895 31.0883C105.682 31.0883 105.529 31.003 105.432 30.808C102.436 25.001 95.4935 28.2061 96.0111 34.1349V34.141Z" fill="#231C17"/>
<path d="M149.827 26.0186C150.892 26.0857 151.672 26.3416 152.299 27.3104C154.765 31.1187 157.256 34.8905 159.765 38.6318C159.85 38.7658 160.057 38.7049 160.057 38.5465V26.6219C160.057 26.433 160.149 26.3355 160.344 26.3294L161.769 26.3172C161.884 26.3172 161.976 26.4086 161.976 26.5305L162 42.1537C162 42.3426 161.903 42.4462 161.708 42.4462H160.252C160.027 42.4462 159.856 42.3548 159.741 42.172L151.69 30.0219C151.617 29.9123 151.453 29.9671 151.453 30.0951V42.0989C151.453 42.3304 151.337 42.4462 151.105 42.4462H149.851C149.638 42.4462 149.534 42.3426 149.534 42.1294L149.516 26.3233C149.498 26.1222 149.601 26.0186 149.82 26.0186H149.827Z" fill="#231C17"/>
<path d="M27.696 27.0911C27.836 27.3348 27.9822 27.4871 28.1283 27.5481C30.3267 30.3693 29.6934 34.6102 25.9665 35.6156C25.0347 35.8715 22.9033 35.9507 19.5844 35.8532C19.4139 35.8532 19.2738 35.9873 19.2738 36.1579V42.0928C19.2738 42.3243 19.1581 42.4401 18.9328 42.4401H17.526C17.3129 42.4401 17.2033 42.3304 17.2033 42.1172C17.2033 40.1856 17.1972 38.254 17.1911 36.3285C17.1911 34.4518 17.0936 32.5811 17.0815 30.7044C17.0754 29.7173 17.0876 28.7302 17.1545 27.7491C17.1728 27.481 17.0997 26.6097 17.3007 26.4208C17.5017 26.2319 18.068 26.3294 18.3177 26.3233C21.393 26.2197 24.7911 25.8785 27.702 27.0911H27.696ZM19.3895 29.4735C19.4199 29.6259 19.4139 29.7843 19.4139 29.9366C19.3834 31.1553 19.359 32.374 19.3347 33.5926C19.3347 33.7815 19.426 33.8912 19.6209 33.9095C21.4661 34.0923 25.4427 34.4579 26.7216 32.7517C27.5072 31.7037 27.5011 29.8818 26.411 29.0287C26.0091 28.7119 25.4915 28.59 24.986 28.4925C23.7863 28.2671 22.7023 28.3463 21.5087 28.2975C20.8449 28.2671 19.018 27.8527 19.2555 29.0287C19.286 29.1689 19.3469 29.3029 19.3834 29.4431C19.3834 29.4553 19.3834 29.4674 19.3895 29.4796V29.4735Z" fill="#231C17"/>
<path d="M69.9164 26.2197L76.8709 26.2989C77.0292 26.2989 77.1571 26.433 77.151 26.5914L77.1267 27.7187C77.1267 27.9746 76.9927 28.1269 76.7309 28.1757L75.519 28.3828L72.194 28.2C71.9869 28.1879 71.8834 28.2853 71.8834 28.4986V31.8012L71.8408 32.3983V42.1354C71.8408 42.3426 71.7433 42.4462 71.5302 42.4462H70.0869C69.8859 42.4462 69.7824 42.3426 69.7824 42.1415L69.758 31.9352L69.7824 31.4539V28.3402C69.7824 28.1574 69.6972 28.0721 69.5145 28.0843L64.8862 28.2853C64.6974 28.2853 64.5391 28.1513 64.5269 27.9563L64.4478 26.6828C64.4295 26.4452 64.5391 26.3233 64.7888 26.3172L69.9164 26.2258V26.2197Z" fill="#231C17"/>
<path d="M81.56 30.6922L81.5478 32.8675C81.5478 33.0564 81.6392 33.1539 81.834 33.1539C84.2882 33.1539 86.7424 33.1539 89.2149 33.1539C90.5851 33.1539 90.6216 33.9643 90.2379 35.0367L86.3222 35.3597L81.8401 35.0611C81.6453 35.0428 81.5478 35.1403 81.5478 35.3353V40.2526C81.5478 40.4293 81.6331 40.5146 81.8158 40.5207L91.0722 40.7096C91.2732 40.7096 91.3645 40.8132 91.3645 41.0143L91.3341 42.0623C91.3219 42.3122 91.194 42.4401 90.9383 42.4401H79.6722C79.4895 42.4401 79.3433 42.2939 79.3372 42.1111L79.3129 34.1045L79.3433 33.2819V29.7295L79.3677 26.5792C79.3677 26.3964 79.459 26.3111 79.6417 26.3111H90.6825C90.8774 26.3111 90.9748 26.4086 90.9748 26.6036L90.9504 27.8466C90.9504 28.0904 90.8165 28.2183 90.5668 28.2183H81.8279C81.6513 28.2183 81.5661 28.3036 81.5661 28.4864L81.5783 30.68L81.56 30.6922Z" fill="#231C17"/>
<path d="M116.68 31.8134L116.649 42.0806C116.649 42.3 116.54 42.4096 116.314 42.4157L114.841 42.4462C114.695 42.4462 114.567 42.3243 114.567 42.1781L114.512 32.374L114.53 28.5534C114.53 28.3402 114.421 28.2305 114.207 28.2305H109.677C109.476 28.2305 109.305 28.066 109.299 27.8588L109.256 26.6706C109.244 26.433 109.36 26.3172 109.597 26.3172H121.546C121.692 26.3172 121.801 26.3842 121.862 26.5183C123.007 29.0409 118.074 28.2122 116.966 28.1574C116.765 28.1452 116.668 28.2366 116.674 28.4438L116.692 31.8073L116.68 31.8134Z" fill="#231C17"/>
<path d="M126.655 27.3531L126.63 42.1233C126.63 42.2939 126.551 42.3792 126.381 42.3914L125.035 42.4706C124.797 42.4889 124.59 42.2939 124.584 42.0562L124.408 28.2488L124.438 26.7681C124.438 26.5975 124.56 26.4573 124.718 26.4208C126.186 26.0674 126.831 26.3781 126.655 27.3531Z" fill="#231C17"/>
<path d="M22.891 28.3219C23.366 28.1086 23.8045 28.1818 24.1882 28.5291L19.3955 30.0524L19.426 29.4614L22.885 28.3219H22.891Z" fill="#B6A00D"/>
<path d="M17.0326 30.5277C16.8499 30.6678 16.8986 30.8141 17.1787 30.9481C16.8682 30.9969 14.1399 31.8195 14.0486 31.6793C13.9511 31.527 13.9877 31.4234 14.1643 31.3747L17.0326 30.5277Z" fill="#B6A00D"/>
<path d="M69.7886 31.4478L69.7642 31.9291L66.494 31.1005C66.0312 30.9786 66.0372 30.9055 66.5183 30.8689C67.5962 30.7897 68.6863 30.9847 69.7946 31.4478H69.7886Z" fill="#B6A00D"/>
<path d="M71.8774 31.8012L79.3313 33.294L79.3008 34.1166C76.6578 33.8851 74.1732 33.3123 71.8408 32.3983L71.8774 31.8012Z" fill="#B6A00D"/>
<path d="M90.238 35.0428L93.6726 35.7557L93.9284 36.7124C91.2245 36.6332 88.6912 36.1823 86.3223 35.3658L90.238 35.0428Z" fill="#B6A00D"/>
<path d="M105.414 37.1146C105.487 37.3827 105.456 37.6203 105.341 37.8153L96.2851 36.9988C96.1268 36.8099 96.0841 36.5844 96.1511 36.3346C96.4739 36.2067 96.7358 36.1579 96.9367 36.1884C99.7502 36.6332 102.576 36.9439 105.414 37.1146Z" fill="#B6A00D"/>
<path d="M108.032 37.4131C110.005 37.4253 111.972 37.5655 113.921 37.8336C113.97 37.8336 114.006 37.8823 114.006 37.9372C114.006 37.9859 113.964 38.0286 113.915 38.0346C111.93 38.2174 109.914 38.1321 107.892 37.797C107.892 37.663 107.935 37.5289 108.032 37.4131Z" fill="#B6A00D"/>
</g>
<defs>
<clipPath id="clip0_206_2533">
<rect width="148" height="35" fill="white" transform="translate(14 9)"/>
</clipPath>
</defs>
</svg>
