<svg width="238" height="57" viewBox="0 0 238 57" fill="none" xmlns="http://www.w3.org/2000/svg">
<g clip-path="url(#clip0_44_9944)">
<path d="M166.501 14.9724C166.579 15.0214 166.609 15.139 166.55 15.2174C166.501 15.2958 166.393 15.3252 166.305 15.2762C140.638 0.666306 109.065 -0.940683 80.7827 5.2619C66.4163 8.40729 51.9226 12.6109 37.2918 17.8532C37.2527 17.8728 37.2135 17.8532 37.1939 17.814C37.1743 17.7749 37.1939 17.7259 37.2331 17.7063C62.0486 6.51613 88.0981 0.617312 115.372 0.0195909C133.224 -0.362559 151.625 4.84056 166.501 14.9724Z" fill="#B6A00D"/>
<path d="M44.3232 22.4586C43.3243 23.0074 42.4038 23.6443 41.6889 24.438C41.542 24.6046 41.3951 24.7809 41.2091 24.9083C40.9838 25.0553 40.7194 25.1141 40.4648 25.1827C39.3386 25.5256 38.4278 26.3095 37.8109 27.2894C37.6052 27.603 37.6934 27.7696 38.0753 27.7891C42.3744 27.9459 48.26 27.2502 49.445 33.0217C50.4047 37.6858 48.3971 40.6157 43.4223 41.8111C43.1775 41.8699 43.1383 41.9973 43.3244 42.1737C46.6148 45.4072 49.3079 49.1013 51.3938 53.256C51.5799 53.6087 51.4624 53.7851 51.0706 53.7851L47.9565 53.7655C47.6627 53.7655 47.4472 53.6381 47.3003 53.3834C45.6453 50.4242 43.8042 47.5825 41.7771 44.8879C39.554 41.9385 36.4399 41.6151 33.071 42.2814C32.7773 42.3304 32.6402 42.5068 32.6402 42.8008V53.2364C32.6402 53.6087 32.4541 53.7949 32.082 53.7949H29.8393C29.5064 53.7949 29.3399 53.6283 29.3399 53.2854V27.9361C29.3399 27.9361 33.6782 27.9067 34.1385 27.7989C35.911 27.3776 36.1754 26.1038 37.331 24.9475C37.5856 24.683 37.899 24.487 38.2124 24.3008C50.1403 16.8832 63.4294 12.072 77.1103 9.07361C89.4005 6.37897 101.975 5.11493 114.539 4.86997C130.247 4.576 150.519 5.22272 162.31 17.1281C162.858 17.6867 162.809 17.7259 162.182 17.2751C144.437 4.70339 117.536 6.44756 96.7845 8.65227C82.9078 10.1319 68.9135 12.3954 55.8105 17.3633C53.2839 18.3236 50.7964 19.3819 48.3678 20.5675C47.1143 21.175 45.6551 21.7531 44.333 22.488L44.3232 22.4586ZM40.9153 38.0582C36.8903 37.0783 34.4029 34.6188 33.4628 30.6798C33.4138 30.4642 33.2179 30.3368 33.0025 30.3662C32.7871 30.3956 32.6304 30.5818 32.6304 30.7876V38.7931C32.6304 39.0087 32.7283 39.1263 32.9437 39.1459C37.0862 39.479 46.7421 40.3119 46.2427 34.8442C45.7922 29.8861 39.887 30.5328 36.4399 30.7778C36.1363 30.7973 35.9894 30.9541 36.0187 31.2579C36.2538 34.4523 38.5356 35.9711 41.0328 37.7838C41.4833 38.0974 41.4343 38.1954 40.9055 38.068L40.9153 38.0582Z" fill="#231C17"/>
<path d="M218.424 27.3678C218.071 27.3678 217.905 27.5344 217.934 27.8577C217.542 27.6226 217.258 27.4756 217.072 27.4266C205.242 24.6046 193.275 25.3003 181.161 29.5137C181.455 27.9361 180.417 27.4364 178.047 28.0145C177.792 28.0733 177.606 28.3085 177.597 28.573L177.548 30.9541L165.11 36.6962L165.081 31.2873C165.081 30.9639 165.228 30.8169 165.551 30.8267C167.324 30.9149 175.266 32.2476 173.425 28.1909C173.327 27.9753 173.151 27.8675 172.916 27.8675H153.702C153.32 27.8675 153.143 28.0635 153.153 28.4359L153.222 30.3466C153.222 30.6798 153.506 30.9443 153.829 30.9443H161.115C161.458 30.9443 161.634 31.1207 161.634 31.4637L161.605 37.6075C151.704 40.6059 141.793 41.5563 131.853 40.4393C131.021 30.9051 142.185 25.751 147.003 35.0892C147.16 35.3929 147.405 35.5497 147.747 35.5399C148.658 35.5399 149.402 35.246 149.951 34.6384C150.166 34.4131 150.196 34.1583 150.068 33.8643C144.31 21.9295 128.817 27.3482 128.152 39.8318L108.614 34.9128L108.595 31.3853C108.595 31.0913 108.732 30.9541 109.016 30.9541H123.069C123.47 30.9541 123.676 30.7484 123.686 30.3564L123.725 28.3575C123.725 28.0439 123.578 27.8871 123.255 27.8871H105.5C105.207 27.8871 105.069 28.0243 105.06 28.3183L105.02 33.3842L98.89 31.2089L100.839 30.8757C101.25 30.7973 101.466 30.5524 101.475 30.1408L101.515 28.3281C101.515 28.0733 101.319 27.8675 101.064 27.8577L89.8804 27.7304C80.1265 23.6149 70.0397 21.7727 59.6004 22.2039C56.7114 22.3215 50.6104 23.2621 41.3168 25.0063C42.061 23.7717 43.0697 22.9976 44.3624 22.6546C62.3424 18.1668 77.316 14.9626 89.3026 13.0519C103.924 10.71 118.251 10.0241 132.284 10.9844C142.293 11.6801 153.653 14.5315 161.291 21.0476C161.507 21.2436 161.771 21.322 162.065 21.273C180.397 18.8919 198.338 20.5479 215.878 26.2507C216.749 26.5349 217.582 26.9171 218.385 27.407L218.424 27.3678Z" fill="#B6A00D"/>
<path d="M211.647 19.6758C218.923 21.7139 225.357 24.4086 230.949 27.7303C231.027 27.7695 231.057 27.8675 231.008 27.9557C230.969 28.0341 230.871 28.0635 230.792 28.0243C211.97 19.2545 192.12 15.188 171.261 15.8249C171.104 15.8249 171.016 15.7563 170.986 15.5897C170.986 15.482 170.986 15.3938 171.016 15.3154C171.016 15.286 171.035 15.2762 171.055 15.2762C184.364 14.3355 197.888 15.8053 211.647 19.666V19.6758Z" fill="#B6A00D"/>
<path d="M211.647 21.9001C217.053 23.1739 222.145 25.3688 226.944 28.4946C227.032 28.5436 227.061 28.6612 227.012 28.7592C226.963 28.8474 226.855 28.8866 226.758 28.8474C211.931 22.586 197.32 20.3617 181.24 19.1565C175.785 18.7449 170.311 18.5685 164.826 18.6077C164.738 18.6077 164.64 18.5685 164.562 18.4804C164.533 18.4608 164.523 18.4412 164.493 18.4314C164.454 18.402 164.454 18.3922 164.513 18.3824C180.437 17.0693 196.145 18.255 211.647 21.9099V21.9001Z" fill="#231C17"/>
<path d="M37.1646 24.9671C35.3529 28.9454 32.7871 27.6519 29.3301 27.9263L22.7198 29.8371C22.4848 29.7391 22.2498 29.4941 22.0245 29.1022C26.8035 27.0248 31.8567 25.653 37.1646 24.9671Z" fill="#B6A00D"/>
<path d="M81.5564 41.0076C81.5564 49.1993 74.9167 55.8428 66.7297 55.8428C58.5428 55.8428 51.9031 49.1993 51.9031 41.0076C51.9031 32.8159 58.5428 26.1723 66.7297 26.1723C74.9167 26.1723 81.5564 32.8159 81.5564 41.0076ZM78.217 41.0272C78.217 34.6776 73.0658 29.5333 66.7297 29.5333C60.3936 29.5333 55.2425 34.6874 55.2425 41.0272C55.2425 47.367 60.3936 52.5211 66.7297 52.5211C73.0658 52.5211 78.217 47.367 78.217 41.0272Z" fill="#B6A00D"/>
<path d="M213.86 41.4387C213.86 49.6403 207.22 56.2838 199.024 56.2838C190.827 56.2838 184.187 49.6403 184.187 41.4387C184.187 33.2372 190.827 26.5937 199.024 26.5937C207.22 26.5937 213.86 33.2372 213.86 41.4387ZM210.491 41.4191C210.491 35.0794 205.35 29.9448 199.024 29.9448C192.697 29.9448 187.556 35.0892 187.556 41.4191C187.556 47.7491 192.697 52.8934 199.024 52.8934C205.35 52.8934 210.491 47.7491 210.491 41.4191Z" fill="#B6A00D"/>
<path d="M131.883 40.4295C131.54 41.4877 131.609 42.6636 132.108 43.9668C132 44.3588 132.069 44.7213 132.323 45.0349C134.38 52.5015 144.545 53.9027 146.886 46.3479C147.072 46.0343 147.111 45.6522 147.003 45.2211C148.423 44.8291 149.833 44.9859 151.214 45.6914C151.057 45.8776 150.979 46.0833 150.989 46.3087C150.029 47.7099 149.432 49.3757 148.423 50.5515C141.989 58.0084 130.58 54.0399 128.533 44.5547L128.122 43.0163L128.181 39.8122C128.847 27.3286 144.33 21.9099 150.098 33.8448C150.225 34.1387 150.196 34.3935 149.98 34.6189C149.422 35.2264 148.688 35.5203 147.777 35.5203C147.434 35.5203 147.189 35.3831 147.033 35.0696C142.214 25.7314 131.05 30.8855 131.883 40.4197V40.4295Z" fill="#231C17"/>
<path d="M218.424 27.3678C220.138 27.4756 221.391 27.8871 222.4 29.4451C226.366 35.5693 230.371 41.6347 234.406 47.6511C234.543 47.8667 234.876 47.7687 234.876 47.5139V28.3379C234.876 28.0341 235.023 27.8773 235.336 27.8675L237.628 27.8479C237.814 27.8479 237.961 27.9949 237.961 28.1909L238 53.3148C238 53.6185 237.843 53.7851 237.53 53.7851H235.189C234.827 53.7851 234.553 53.6381 234.367 53.3442L221.42 33.8055C221.303 33.6292 221.039 33.7174 221.039 33.9231V53.2266C221.039 53.5989 220.852 53.7851 220.48 53.7851H218.463C218.12 53.7851 217.954 53.6185 217.954 53.2756L217.924 27.8577C217.895 27.5344 218.061 27.3678 218.414 27.3678H218.424Z" fill="#231C17"/>
<path d="M22.0245 29.0924C22.2498 29.4843 22.4848 29.7293 22.7198 29.8273C26.2551 34.3641 25.2367 41.184 19.2433 42.8008C17.745 43.2123 14.3174 43.3397 8.98023 43.1829C8.70602 43.1829 8.48078 43.3985 8.48078 43.6729V53.2168C8.48078 53.5892 8.29472 53.7753 7.93237 53.7753H5.67018C5.32743 53.7753 5.15115 53.5989 5.15115 53.256C5.15115 50.1498 5.14136 47.0436 5.13157 43.9472C5.13157 40.9292 4.97488 37.921 4.95529 34.903C4.9455 33.3156 4.96508 31.7282 5.07281 30.1506C5.10219 29.7195 4.98467 28.3183 5.30784 28.0145C5.63101 27.7108 6.54176 27.8675 6.94328 27.8577C11.8888 27.6912 17.3533 27.1424 22.0343 29.0924H22.0245ZM8.66685 32.9237C8.71582 33.1686 8.70602 33.4234 8.70602 33.6684C8.65706 35.6281 8.61789 37.5879 8.57871 39.5476C8.57871 39.8514 8.72561 40.0277 9.03898 40.0571C12.0063 40.3511 18.4011 40.939 20.4577 38.1954C21.721 36.51 21.7112 33.5802 19.9582 32.2084C19.3119 31.6988 18.4795 31.5029 17.6666 31.3461C15.7374 30.9835 13.9943 31.1109 12.0748 31.0325C11.0074 30.9835 8.06948 30.3172 8.4514 32.2084C8.50037 32.4337 8.5983 32.6493 8.65706 32.8747C8.65706 32.8943 8.65706 32.9139 8.66685 32.9335V32.9237Z" fill="#231C17"/>
<path d="M89.9196 27.6912L101.103 27.8185C101.358 27.8185 101.564 28.0341 101.554 28.2889L101.515 30.1016C101.515 30.5132 101.299 30.7582 100.878 30.8365L98.9292 31.1697L93.5822 30.8757C93.2492 30.8561 93.0828 31.0129 93.0828 31.3559V36.6668L93.0142 37.6271V53.2854C93.0142 53.6185 92.8575 53.7851 92.5148 53.7851H90.1938C89.8706 53.7851 89.7042 53.6185 89.7042 53.2952L89.665 36.8824L89.7042 36.1083V31.1011C89.7042 30.8072 89.5671 30.67 89.2733 30.6896L81.8306 31.0129C81.527 31.0129 81.2724 30.7974 81.2528 30.4838L81.1255 28.4359C81.0961 28.0537 81.2724 27.8577 81.6739 27.8479L89.9196 27.701V27.6912Z" fill="#231C17"/>
<path d="M108.644 34.8834L108.624 38.3815C108.624 38.6853 108.771 38.8421 109.085 38.8421C113.031 38.8421 116.978 38.8421 120.954 38.8421C123.157 38.8421 123.216 40.1453 122.599 41.8699L116.302 42.3892L109.094 41.9091C108.781 41.8797 108.624 42.0365 108.624 42.35V50.2576C108.624 50.5417 108.761 50.6789 109.055 50.6887L123.941 50.9925C124.264 50.9925 124.411 51.1591 124.411 51.4824L124.362 53.1678C124.342 53.5695 124.136 53.7753 123.725 53.7753H105.608C105.314 53.7753 105.079 53.5401 105.069 53.2462L105.03 40.3707L105.079 39.0479V33.3352L105.118 28.2693C105.118 27.9753 105.265 27.8381 105.559 27.8381H123.314C123.627 27.8381 123.784 27.9949 123.784 28.3085L123.745 30.3074C123.745 30.6994 123.529 30.9051 123.128 30.9051H109.075C108.791 30.9051 108.654 31.0423 108.654 31.3363L108.673 34.8638L108.644 34.8834Z" fill="#231C17"/>
<path d="M165.12 36.6864L165.071 53.1972C165.071 53.5499 164.895 53.7263 164.533 53.7361L162.163 53.7851C161.928 53.7851 161.722 53.5891 161.722 53.354L161.634 37.5878L161.663 31.4441C161.663 31.1011 161.487 30.9247 161.144 30.9247H153.858C153.535 30.9247 153.261 30.6602 153.251 30.327L153.183 28.4163C153.163 28.0341 153.349 27.8479 153.731 27.8479H172.945C173.18 27.8479 173.356 27.9557 173.454 28.1713C175.295 32.228 167.363 30.8953 165.581 30.8071C165.257 30.7875 165.101 30.9345 165.11 31.2677L165.14 36.6766L165.12 36.6864Z" fill="#231C17"/>
<path d="M181.161 29.5137L181.122 53.2658C181.122 53.5402 180.995 53.6773 180.721 53.6969L178.556 53.8243C178.174 53.8537 177.841 53.5402 177.832 53.158L177.548 30.9541L177.597 28.573C177.597 28.2987 177.792 28.0733 178.047 28.0145C180.407 27.4462 181.445 27.9459 181.161 29.5137Z" fill="#231C17"/>
<path d="M14.2978 31.0717C15.0617 30.7287 15.7668 30.8463 16.3837 31.4049L8.67664 33.8545L8.7256 32.9041L14.288 31.0717H14.2978Z" fill="#B6A00D"/>
<path d="M4.87681 34.6188C4.58302 34.8442 4.66136 35.0794 5.11184 35.2949C4.6124 35.3733 0.225122 36.6962 0.0782264 36.4708C-0.0784621 36.2258 -0.0197039 36.0592 0.264294 35.9809L4.87681 34.6188Z" fill="#B6A00D"/>
<path d="M89.714 36.0984L89.6748 36.8725L84.4159 35.5399C83.6717 35.3439 83.6815 35.2264 84.4551 35.1676C86.1885 35.0402 87.9414 35.3537 89.7238 36.0984H89.714Z" fill="#B6A00D"/>
<path d="M93.0729 36.6668L105.06 39.0674L105.011 40.3903C100.76 40.0179 96.7649 39.0968 93.0142 37.627L93.0729 36.6668Z" fill="#B6A00D"/>
<path d="M122.599 41.8797L128.122 43.0261L128.533 44.5645C124.185 44.4371 120.111 43.712 116.302 42.399L122.599 41.8797Z" fill="#B6A00D"/>
<path d="M147.003 45.2112C147.121 45.6424 147.072 46.0245 146.886 46.3381L132.323 45.0251C132.069 44.7213 132 44.3588 132.108 43.957C132.627 43.7512 133.048 43.6728 133.371 43.7218C137.896 44.4371 142.44 44.9369 147.003 45.2112Z" fill="#B6A00D"/>
<path d="M151.214 45.6914C154.387 45.711 157.55 45.9363 160.684 46.3675C160.762 46.3675 160.821 46.4459 160.821 46.5341C160.821 46.6125 160.753 46.6811 160.674 46.6909C157.482 46.9848 154.24 46.8476 150.989 46.3087C150.989 46.0931 151.058 45.8776 151.214 45.6914Z" fill="#B6A00D"/>
</g>
<defs>
<clipPath id="clip0_44_9944">
<rect width="238" height="56.2838" fill="white"/>
</clipPath>
</defs>
</svg>
