<svg width="148" height="35" viewBox="0 0 148 35" fill="none" xmlns="http://www.w3.org/2000/svg">
<g clip-path="url(#clip0_206_2535)">
<path d="M103.539 9.31059C103.587 9.34105 103.606 9.41417 103.569 9.46292C103.539 9.51166 103.472 9.52994 103.417 9.49948C87.4554 0.414345 67.822 -0.584959 50.2347 3.27211C41.301 5.22806 32.2881 7.8421 23.1899 11.102C23.1656 11.1142 23.1412 11.102 23.129 11.0776C23.1169 11.0533 23.129 11.0228 23.1534 11.0106C38.5849 4.05205 54.7837 0.383878 71.7438 0.0121862C82.8455 -0.225453 94.2882 3.0101 103.539 9.31059Z" fill="#B6A00D"/>
<path d="M27.5624 13.9659C26.9412 14.3071 26.3688 14.7032 25.9242 15.1967C25.8329 15.3003 25.7415 15.41 25.6258 15.4892C25.4857 15.5806 25.3213 15.6172 25.163 15.6598C24.4627 15.8731 23.8963 16.3606 23.5127 16.9699C23.3848 17.1649 23.4396 17.2685 23.6771 17.2806C26.3505 17.3781 30.0105 16.9455 30.7473 20.5345C31.3441 23.4349 30.0957 25.2568 27.0021 26.0002C26.8499 26.0367 26.8255 26.1159 26.9412 26.2256C28.9874 28.2364 30.6621 30.5336 31.9592 33.1172C32.0749 33.3365 32.0018 33.4462 31.7582 33.4462L29.8217 33.434C29.639 33.434 29.505 33.3548 29.4137 33.1964C28.3845 31.3562 27.2396 29.5891 25.979 27.9135C24.5966 26.0794 22.6601 25.8783 20.5652 26.2927C20.3825 26.3231 20.2973 26.4328 20.2973 26.6156V33.105C20.2973 33.3365 20.1815 33.4523 19.9501 33.4523H18.5556C18.3485 33.4523 18.245 33.3487 18.245 33.1354V17.372C18.245 17.372 20.9428 17.3538 21.229 17.2867C22.3312 17.0247 22.4957 16.2326 23.2143 15.5136C23.3726 15.3491 23.5675 15.2272 23.7623 15.1114C31.1797 10.4988 39.4435 7.50696 47.951 5.64241C55.5936 3.96675 63.4129 3.18071 71.2261 3.02838C80.9941 2.84558 93.6 3.24774 100.932 10.6511C101.273 10.9984 101.243 11.0228 100.853 10.7425C89.8182 2.92479 73.0896 4.0094 60.1853 5.3804C51.5561 6.30049 42.8538 7.70804 34.7057 10.7974C33.1345 11.3945 31.5877 12.0526 30.0774 12.7899C29.298 13.1677 28.3906 13.5272 27.5685 13.9842L27.5624 13.9659ZM25.4431 23.6664C22.9402 23.0571 21.3934 21.5277 20.8088 19.0782C20.7783 18.9441 20.6566 18.8649 20.5226 18.8832C20.3886 18.9015 20.2912 19.0172 20.2912 19.1452V24.1234C20.2912 24.2575 20.3521 24.3306 20.486 24.3428C23.062 24.55 29.0665 25.0679 28.756 21.6678C28.4758 18.5846 24.8037 18.9868 22.6601 19.1391C22.4713 19.1513 22.38 19.2488 22.3982 19.4377C22.5444 21.4241 23.9633 22.3686 25.5162 23.4958C25.7963 23.6908 25.7659 23.7517 25.437 23.6725L25.4431 23.6664Z" fill="#231C17"/>
<path d="M135.826 17.0186C135.607 17.0186 135.504 17.1222 135.522 17.3233C135.278 17.1771 135.102 17.0857 134.986 17.0552C127.63 15.3003 120.188 15.7329 112.655 18.3531C112.838 17.372 112.192 17.0613 110.718 17.4208C110.56 17.4573 110.444 17.6036 110.438 17.7681L110.408 19.2488L102.674 22.8195L102.655 19.456C102.655 19.2549 102.747 19.1635 102.948 19.1696C104.05 19.2244 108.989 20.0531 107.844 17.5305C107.783 17.3964 107.673 17.3294 107.527 17.3294H95.5791C95.3416 17.3294 95.232 17.4513 95.2381 17.6828L95.2807 18.871C95.2807 19.0782 95.4573 19.2427 95.6583 19.2427H100.189C100.402 19.2427 100.512 19.3524 100.512 19.5656L100.494 23.3861C94.3368 25.2507 88.1739 25.8417 81.9928 25.1471C81.4752 19.2183 88.4175 16.0132 91.4137 21.8202C91.5111 22.0091 91.6634 22.1065 91.8765 22.1005C92.4429 22.1005 92.9057 21.9177 93.2467 21.5399C93.3807 21.3997 93.399 21.2413 93.3198 21.0585C89.739 13.6368 80.105 17.0064 79.6909 24.7693L67.5417 21.7105L67.5296 19.5169C67.5296 19.3341 67.6148 19.2488 67.7914 19.2488H76.5303C76.7799 19.2488 76.9078 19.1208 76.9139 18.8771L76.9383 17.6341C76.9383 17.4391 76.8469 17.3416 76.646 17.3416H65.6052C65.4225 17.3416 65.3372 17.4269 65.3311 17.6097L65.3068 20.7599L61.4946 19.4072L62.7065 19.2C62.9622 19.1513 63.0962 18.999 63.1023 18.743L63.1267 17.6158C63.1267 17.4573 63.0048 17.3294 62.8465 17.3233L55.892 17.2441C49.8266 14.6849 43.5541 13.5393 37.0624 13.8075C35.2659 13.8806 31.472 14.4655 25.6927 15.5501C26.1556 14.7824 26.7828 14.301 27.5867 14.0877C38.7675 11.297 48.0788 9.30449 55.5327 8.1163C64.6247 6.65999 73.5341 6.23346 82.2607 6.83061C88.4845 7.26323 95.5487 9.03639 100.299 13.0884C100.433 13.2103 100.597 13.2591 100.78 13.2286C112.18 11.7479 123.336 12.7777 134.243 16.324C134.785 16.5007 135.303 16.7383 135.802 17.043L135.826 17.0186Z" fill="#B6A00D"/>
<path d="M131.612 12.2354C136.137 13.5028 140.138 15.1784 143.615 17.2441C143.664 17.2685 143.682 17.3294 143.652 17.3842C143.628 17.433 143.567 17.4513 143.518 17.4269C131.813 11.9734 119.469 9.44464 106.498 9.8407C106.401 9.8407 106.346 9.79805 106.328 9.69446C106.328 9.62744 106.328 9.5726 106.346 9.52385C106.346 9.50557 106.358 9.49948 106.37 9.49948C114.646 8.91452 123.056 9.82852 131.612 12.2293V12.2354Z" fill="#B6A00D"/>
<path d="M131.612 13.6186C134.974 14.4107 138.141 15.7756 141.125 17.7194C141.179 17.7498 141.198 17.8229 141.167 17.8839C141.137 17.9387 141.07 17.9631 141.009 17.9387C131.789 14.0451 122.703 12.6619 112.704 11.9124C109.312 11.6565 105.907 11.5468 102.497 11.5712C102.442 11.5712 102.381 11.5468 102.333 11.492C102.314 11.4798 102.308 11.4676 102.29 11.4615C102.266 11.4432 102.266 11.4372 102.302 11.4311C112.204 10.6146 121.972 11.3518 131.612 13.6247V13.6186Z" fill="#231C17"/>
<path d="M23.1107 15.5258C21.9841 17.9997 20.3886 17.1953 18.2389 17.3659L14.1283 18.5541C13.9821 18.4932 13.836 18.3409 13.6959 18.0971C16.6677 16.8054 19.8101 15.9523 23.1107 15.5258Z" fill="#B6A00D"/>
<path d="M50.7157 25.5005C50.7157 30.5945 46.5869 34.7258 41.4958 34.7258C36.4048 34.7258 32.2759 30.5945 32.2759 25.5005C32.2759 20.4065 36.4048 16.2752 41.4958 16.2752C46.5869 16.2752 50.7157 20.4065 50.7157 25.5005ZM48.6391 25.5127C48.6391 21.5642 45.4359 18.3653 41.4958 18.3653C37.5557 18.3653 34.3525 21.5703 34.3525 25.5127C34.3525 29.4551 37.5557 32.6602 41.4958 32.6602C45.4359 32.6602 48.6391 29.4551 48.6391 25.5127Z" fill="#B6A00D"/>
<path d="M132.989 25.7686C132.989 30.8687 128.86 35 123.763 35C118.665 35 114.537 30.8687 114.537 25.7686C114.537 20.6685 118.665 16.5373 123.763 16.5373C128.86 16.5373 132.989 20.6685 132.989 25.7686ZM130.894 25.7564C130.894 21.8141 127.697 18.6212 123.763 18.6212C119.829 18.6212 116.632 21.8202 116.632 25.7564C116.632 29.6927 119.829 32.8917 123.763 32.8917C127.697 32.8917 130.894 29.6927 130.894 25.7564Z" fill="#B6A00D"/>
<path d="M82.0111 25.141C81.7979 25.7991 81.8406 26.5303 82.1511 27.3407C82.0842 27.5844 82.1268 27.8099 82.2851 28.0049C83.564 32.648 89.8852 33.5193 91.3406 28.8214C91.4563 28.6264 91.4807 28.3888 91.4137 28.1207C92.2967 27.8769 93.1737 27.9744 94.0323 28.4131C93.9349 28.5289 93.8862 28.6569 93.8922 28.797C93.2954 29.6684 92.924 30.7042 92.2967 31.4354C88.2957 36.0724 81.2011 33.6046 79.9284 27.7063L79.6726 26.7497L79.7091 24.7571C80.1232 16.9943 89.7512 13.6247 93.3381 21.0463C93.4172 21.2291 93.399 21.3875 93.265 21.5277C92.9179 21.9055 92.4611 22.0883 91.8948 22.0883C91.6817 22.0883 91.5294 22.003 91.432 21.808C88.4358 16.001 81.4935 19.2061 82.0111 25.1349V25.141Z" fill="#231C17"/>
<path d="M135.827 17.0186C136.892 17.0857 137.672 17.3416 138.299 18.3104C140.765 22.1187 143.256 25.8905 145.765 29.6318C145.85 29.7658 146.057 29.7049 146.057 29.5465V17.6219C146.057 17.433 146.149 17.3355 146.344 17.3294L147.769 17.3172C147.884 17.3172 147.976 17.4086 147.976 17.5305L148 33.1537C148 33.3426 147.903 33.4462 147.708 33.4462H146.252C146.027 33.4462 145.856 33.3548 145.741 33.172L137.69 21.0219C137.617 20.9123 137.453 20.9671 137.453 21.0951V33.0989C137.453 33.3304 137.337 33.4462 137.105 33.4462H135.851C135.638 33.4462 135.534 33.3426 135.534 33.1294L135.516 17.3233C135.498 17.1222 135.601 17.0186 135.82 17.0186H135.827Z" fill="#231C17"/>
<path d="M13.696 18.0911C13.836 18.3348 13.9822 18.4871 14.1283 18.5481C16.3267 21.3693 15.6934 25.6102 11.9665 26.6156C11.0347 26.8715 8.9033 26.9507 5.58436 26.8532C5.41385 26.8532 5.27379 26.9873 5.27379 27.1579V33.0928C5.27379 33.3243 5.15808 33.4401 4.93276 33.4401H3.52602C3.31288 33.4401 3.20326 33.3304 3.20326 33.1172C3.20326 31.1856 3.19717 29.254 3.19108 27.3285C3.19108 25.4518 3.09364 23.5811 3.08146 21.7044C3.07537 20.7173 3.08755 19.7302 3.15454 18.7491C3.17281 18.481 3.09973 17.6097 3.3007 17.4208C3.50166 17.2319 4.06801 17.3294 4.31769 17.3233C7.39303 17.2197 10.7911 16.8785 13.702 18.0911H13.696ZM5.38949 20.4735C5.41994 20.6259 5.41385 20.7843 5.41385 20.9366C5.3834 22.1553 5.35904 23.374 5.33468 24.5926C5.33468 24.7815 5.42603 24.8912 5.6209 24.9095C7.46611 25.0923 11.4427 25.4579 12.7216 23.7517C13.5072 22.7037 13.5011 20.8818 12.411 20.0287C12.0091 19.7119 11.4915 19.59 10.986 19.4925C9.78632 19.2671 8.70233 19.3463 7.50874 19.2975C6.84495 19.2671 5.01801 18.8527 5.25552 20.0287C5.28597 20.1689 5.34686 20.3029 5.3834 20.4431C5.3834 20.4553 5.3834 20.4674 5.38949 20.4796V20.4735Z" fill="#231C17"/>
<path d="M55.9164 17.2197L62.8709 17.2989C63.0292 17.2989 63.1571 17.433 63.151 17.5914L63.1267 18.7187C63.1267 18.9746 62.9927 19.1269 62.7309 19.1757L61.519 19.3828L58.194 19.2C57.9869 19.1879 57.8834 19.2853 57.8834 19.4986V22.8012L57.8408 23.3983V33.1354C57.8408 33.3426 57.7433 33.4462 57.5302 33.4462H56.0869C55.8859 33.4462 55.7824 33.3426 55.7824 33.1415L55.758 22.9352L55.7824 22.4539V19.3402C55.7824 19.1574 55.6972 19.0721 55.5145 19.0843L50.8862 19.2853C50.6974 19.2853 50.5391 19.1513 50.5269 18.9563L50.4478 17.6828C50.4295 17.4452 50.5391 17.3233 50.7888 17.3172L55.9164 17.2258V17.2197Z" fill="#231C17"/>
<path d="M67.56 21.6922L67.5478 23.8675C67.5478 24.0564 67.6392 24.1539 67.834 24.1539C70.2882 24.1539 72.7424 24.1539 75.2149 24.1539C76.5851 24.1539 76.6216 24.9643 76.2379 26.0367L72.3222 26.3597L67.8401 26.0611C67.6453 26.0428 67.5478 26.1403 67.5478 26.3353V31.2526C67.5478 31.4293 67.6331 31.5146 67.8158 31.5207L77.0722 31.7096C77.2732 31.7096 77.3645 31.8132 77.3645 32.0143L77.3341 33.0623C77.3219 33.3122 77.194 33.4401 76.9383 33.4401H65.6722C65.4895 33.4401 65.3433 33.2939 65.3372 33.1111L65.3129 25.1045L65.3433 24.2819V20.7295L65.3677 17.5792C65.3677 17.3964 65.459 17.3111 65.6417 17.3111H76.6825C76.8774 17.3111 76.9748 17.4086 76.9748 17.6036L76.9504 18.8466C76.9504 19.0904 76.8165 19.2183 76.5668 19.2183H67.8279C67.6513 19.2183 67.5661 19.3036 67.5661 19.4864L67.5783 21.68L67.56 21.6922Z" fill="#231C17"/>
<path d="M102.68 22.8134L102.649 33.0806C102.649 33.3 102.54 33.4096 102.314 33.4157L100.841 33.4462C100.695 33.4462 100.567 33.3243 100.567 33.1781L100.512 23.374L100.53 19.5534C100.53 19.3402 100.421 19.2305 100.207 19.2305H95.6766C95.4756 19.2305 95.3051 19.066 95.299 18.8588L95.2564 17.6706C95.2442 17.433 95.3599 17.3172 95.5974 17.3172H107.546C107.692 17.3172 107.801 17.3842 107.862 17.5183C109.007 20.0409 104.074 19.2122 102.966 19.1574C102.765 19.1452 102.668 19.2366 102.674 19.4438L102.692 22.8073L102.68 22.8134Z" fill="#231C17"/>
<path d="M112.655 18.3531L112.63 33.1233C112.63 33.2939 112.551 33.3792 112.381 33.3914L111.035 33.4706C110.797 33.4889 110.59 33.2939 110.584 33.0562L110.408 19.2488L110.438 17.7681C110.438 17.5975 110.56 17.4573 110.718 17.4208C112.186 17.0674 112.831 17.3781 112.655 18.3531Z" fill="#231C17"/>
<path d="M8.89104 19.3219C9.36605 19.1086 9.80451 19.1818 10.1882 19.5291L5.39551 21.0524L5.42596 20.4614L8.88495 19.3219H8.89104Z" fill="#B6A00D"/>
<path d="M3.03258 21.5277C2.84989 21.6678 2.8986 21.8141 3.17873 21.9481C2.86815 21.9969 0.139932 22.8195 0.0485855 22.6793C-0.048851 22.527 -0.0123123 22.4234 0.164291 22.3747L3.03258 21.5277Z" fill="#B6A00D"/>
<path d="M55.7886 22.4478L55.7642 22.9291L52.494 22.1005C52.0312 21.9786 52.0372 21.9055 52.5183 21.8689C53.5962 21.7897 54.6863 21.9847 55.7946 22.4478H55.7886Z" fill="#B6A00D"/>
<path d="M57.8774 22.8012L65.3313 24.294L65.3008 25.1166C62.6578 24.8851 60.1732 24.3123 57.8408 23.3983L57.8774 22.8012Z" fill="#B6A00D"/>
<path d="M76.238 26.0428L79.6726 26.7557L79.9284 27.7124C77.2245 27.6332 74.6912 27.1823 72.3223 26.3658L76.238 26.0428Z" fill="#B6A00D"/>
<path d="M91.4137 28.1146C91.4868 28.3827 91.4563 28.6203 91.3406 28.8153L82.2851 27.9988C82.1268 27.8099 82.0841 27.5844 82.1511 27.3346C82.4739 27.2067 82.7358 27.1579 82.9367 27.1884C85.7502 27.6332 88.5759 27.9439 91.4137 28.1146Z" fill="#B6A00D"/>
<path d="M94.0324 28.4131C96.0055 28.4253 97.9725 28.5655 99.9212 28.8336C99.9699 28.8336 100.006 28.8823 100.006 28.9372C100.006 28.9859 99.9639 29.0286 99.9151 29.0346C97.9299 29.2174 95.9141 29.1321 93.8923 28.797C93.8923 28.663 93.935 28.5289 94.0324 28.4131Z" fill="#B6A00D"/>
</g>
<defs>
<clipPath id="clip0_206_2535">
<rect width="148" height="35" fill="white"/>
</clipPath>
</defs>
</svg>
