<svg width="147" height="31" viewBox="0 0 147 31" fill="none" xmlns="http://www.w3.org/2000/svg">
<g clip-path="url(#clip0_206_3370)">
<path fill-rule="evenodd" clip-rule="evenodd" d="M120.56 25.3057V25.7288H121.547V25.3057M120.56 28.0958V28.5807H121.382V28.0958H120.56ZM111.126 25.3485V26.5035H112.471V25.3485H111.126ZM101.908 27.8202H102.198L102.039 27.4827L101.903 27.8202H101.908ZM92.3331 31H90.3647L88.3225 29.2984V24.6355L90.3647 22.9292H95.419L97.4497 24.6355V26.7697H93.4449V25.3485H92.3387V28.5807H93.4449V27.554H97.4497V29.2033L100.116 23.2999L100.757 22.9339H103.968L107.116 29.555V22.9339H114.422L116.464 24.6403V27.1737L115.307 28.1386L116.549 30.0589V22.9292H125.387V25.9854H123.243V27.8677H125.387V30.9953H112.766L111.563 28.8753H111.121V30.9953H103.661L103.31 30.2252H100.955L100.649 30.9953H96.6329L97.376 29.3507L95.4133 30.9953H92.3331V31ZM79.6207 28.5569H80.9878V25.3723H79.6207V28.5569ZM67.6062 29.2984L65.5697 31H60.3055L58.2634 29.2984V22.9339H62.2739V28.5854H63.5899V22.9339H75.9222V24.3694L77.658 22.9339H82.9335L84.987 24.6355V29.2984L82.9335 31H77.658L75.5932 29.2984V25.4769H73.7212V31H69.5972V25.4769H67.5948V29.2984H67.6062ZM53.124 27.8202H53.4133L53.2544 27.4827L53.1183 27.8202H53.124ZM54.5308 30.23H52.1767L51.8703 31H47.8541L51.3314 23.2999L51.4959 22.9339H55.1831L59.0235 31H54.8882L54.5308 30.23Z" fill="#1F1A17"/>
<path fill-rule="evenodd" clip-rule="evenodd" d="M120.401 30.4914V29.0797H121.984V28.3763H124.786V30.4914M120.401 24.8019V23.433H124.786V25.4721H122.143V24.8019H120.401ZM119.959 27.592V30.4914H117.151V23.433H119.959V26.2278H122.642V27.5872H119.959V27.592ZM116.147 30.4914H113.151L111.943 28.3763H114.173L114.57 28.0435L116.152 30.4914H116.147ZM110.968 24.8399V23.433H114.173L115.863 24.8399V26.9551L114.57 28.0388L114.479 27.8962L111.847 28.1861L111.949 28.3763H110.973V27.0074H113.078V24.8447H110.973L110.968 24.8399ZM107.717 30.4914V23.433H110.525V30.4914H107.717ZM100.218 30.4914H97.5064L100.513 23.8228L101.761 26.5796L100.218 30.4867V30.4914ZM103.724 29.7214H100.967L101.551 28.3192H103.077L100.825 23.433H103.559L106.917 30.4914H104.081L103.724 29.7214ZM92.1742 30.4914V29.0797H94.0405V28.0531H96.8427V29.0797L95.1636 30.4914H92.1685H92.1742ZM92.1742 24.8399V23.433H95.1693L96.8484 24.8399V26.2611H94.0461V24.8399H92.1798H92.1742ZM91.7317 30.4914H90.6142L88.9238 29.0797V24.8447L90.6142 23.4378H91.7317V30.4962V30.4914ZM81.5891 24.8637H80.5113V23.433H82.6896L84.3914 24.8399V29.075L82.6896 30.4867H80.5113V29.0465H81.5891V24.8589V24.8637ZM79.0194 29.0512H80.0745V30.4914H77.9132L76.2058 29.0797V24.8447L77.9132 23.4378H80.0745V24.8684H79.0194V29.056V29.0512ZM68.0145 23.433H75.3265V24.973H68.0145V23.433ZM70.2098 25.339H73.1312V30.4914H70.2098V25.339ZM61.6782 29.0797H62.7163V30.4914H60.5551L58.8703 29.0797V23.433H61.6782V29.0797ZM67.0048 29.0797L65.32 30.4914H63.1531V29.0797H64.1912V23.433H66.9991V29.0797H67.0048ZM51.4392 30.4914H48.7277L51.7341 23.8228L52.9764 26.5796L51.4335 30.4867L51.4392 30.4914ZM54.9448 29.7214H52.188L52.7722 28.3192H54.2925L52.0405 23.433H54.7747L58.1328 30.4914H55.2965L54.9392 29.7214H54.9448Z" fill="white"/>
<mask id="mask0_206_3370" style="mask-type:luminance" maskUnits="userSpaceOnUse" x="5" y="0" width="142" height="22">
<path d="M21.1815 21.2275L21.0908 14.402L17.2448 21.2275H5.04297L13.8582 4.52024L14.0738 4.08295L14.3574 3.61239L14.6694 3.16559L15.0154 2.74256L15.3955 2.34805L15.8096 1.97731L16.2577 1.63983L16.7399 1.33563L17.2448 1.0647L17.7836 0.836553L18.3396 0.636921L18.9182 0.480067L19.5081 0.361239L20.1151 0.275682L20.7334 0.223398L21.3404 0.204385H33.3323L33.4174 6.81125L37.0762 0.218645L49.261 0L39.8161 16.5885L39.7253 16.8119L39.5721 17.1398L39.402 17.4583L39.2204 17.7625L39.0276 18.0524L38.8177 18.3329L38.5965 18.5991L38.3639 18.8557L38.1143 19.0934L37.859 19.3168L37.5924 19.5307L37.3144 19.7255L37.0251 19.9062L36.7358 20.0678L36.4352 20.2199L36.1345 20.353L35.8282 20.4813L35.5219 20.5906L35.2099 20.6952L34.8979 20.7807L34.5859 20.8615L34.2739 20.9281L33.9676 20.9899L33.6613 21.0374L33.355 21.0802L33.0486 21.1182L32.7423 21.1467L32.4417 21.1753L32.141 21.1943L31.8404 21.2133L31.5454 21.2275L31.2164 21.237M57.1289 9.50153L56.9757 9.79148L56.8793 9.96734H66.0349L66.7099 8.77906H57.5203L57.4352 8.93591L57.282 9.2211L57.1289 9.50629V9.50153ZM80.6362 3.88332L80.5397 4.28258L80.3922 4.68185L80.2107 5.04784L70.8339 21.2418H59.6418L61.6556 17.6912H52.7042L52.6362 17.8148L52.3979 18.2568L52.2788 18.4802L52.0349 18.927L51.9157 19.1504L51.7966 19.3691L51.4336 20.0393L50.7755 21.2466H45.5L45.0405 21.2275L44.5413 21.161L44.0478 21.0374L43.577 20.8568L43.1345 20.6286L42.7318 20.3387L42.3858 20.006L42.1078 19.6352L41.8979 19.236L41.7618 18.8272L41.688 18.4089L41.6767 17.9906L41.7221 17.5866L41.8242 17.1826L41.966 16.7881L42.1362 16.4364L50.9287 0.194879H76.8639L77.3177 0.213891L77.8169 0.285189L78.3104 0.40877L78.7812 0.584637L79.2294 0.817541L79.6321 1.10273L79.9781 1.4402L80.2561 1.81095L80.466 2.21021L80.6021 2.62374L80.6759 3.03726L80.6872 3.45554L80.6362 3.87381V3.88332ZM88.1637 21.2418L88.0729 14.4163L84.2269 21.2418H72.0308L80.8404 4.5345L81.0616 4.09721L81.3396 3.62665L81.6516 3.17985L81.9976 2.75682L82.3776 2.36231L82.7917 1.99157L83.2399 1.65409L83.7164 1.34989L84.2269 1.07896L84.7658 0.850813L85.3217 0.651181L85.9003 0.494327L86.4903 0.375498L87.0973 0.289942L87.7156 0.237657L88.3169 0.218645H100.309L100.394 6.82551L104.064 0.237657L116.249 0L106.81 16.5885L106.719 16.8119L106.566 17.1398L106.395 17.4583L106.214 17.7625L106.015 18.0524L105.806 18.3329L105.584 18.5991L105.352 18.8557L105.108 19.0934L104.853 19.3168L104.58 19.5307L104.302 19.7255L104.019 19.9062L103.729 20.0678L103.429 20.2199L103.128 20.353L102.822 20.4813L102.51 20.5906L102.203 20.6952L101.891 20.7807L101.579 20.8615L101.273 20.9281L100.961 20.9899L100.655 21.0374L100.348 21.0802L100.042 21.1182L99.7358 21.1467L99.4352 21.1753L99.1345 21.1943L98.8339 21.2133L98.5389 21.2275L98.2099 21.237H88.1751L88.1637 21.2418ZM132.983 8.78381H123.827L121.717 12.6719H130.737L132.983 8.78381ZM143.171 0.194879L143.63 0.213891L144.135 0.285189L144.623 0.40877L145.094 0.584637L145.536 0.817541L145.934 1.10273L146.28 1.4402L146.558 1.81095L146.773 2.21021L146.909 2.62374L146.977 3.03726L146.989 3.45554L146.938 3.87381L146.836 4.27308L146.688 4.67234L146.506 5.03833L137.135 21.2323H111.796L111.336 21.2133L110.837 21.1467L110.344 21.0232L109.873 20.8425L109.43 20.6144L109.028 20.3244L108.682 19.9917L108.404 19.621L108.199 19.2217L108.058 18.8129L107.989 18.3947L107.978 17.9764L108.029 17.5724L108.126 17.1684L108.267 16.7738L108.438 16.4221L117.236 0.194879H143.171Z" fill="white"/>
</mask>
<g mask="url(#mask0_206_3370)">
<mask id="mask1_206_3370" style="mask-type:luminance" maskUnits="userSpaceOnUse" x="5" y="0" width="142" height="22">
<path d="M146.994 0H5.04297V21.2228H146.994V0Z" fill="white"/>
</mask>
<g mask="url(#mask1_206_3370)">
<path d="M146.994 0H5.04297V0.161607H146.994V0Z" fill="#737271"/>
<path d="M146.994 0.161606H5.04297V0.323213H146.994V0.161606Z" fill="#747372"/>
<path d="M146.994 0.323212H5.04297V0.484819H146.994V0.323212Z" fill="#757372"/>
<path d="M146.994 0.484818H5.04297V0.646424H146.994V0.484818Z" fill="#767473"/>
<path d="M146.994 0.646423H5.04297V0.80803H146.994V0.646423Z" fill="#777574"/>
<path d="M146.994 0.808029H5.04297V0.969636H146.994V0.808029Z" fill="#787675"/>
<path d="M146.994 0.969635H5.04297V1.13124H146.994V0.969635Z" fill="#797776"/>
<path d="M146.994 1.1265H5.04297V1.2881H146.994V1.1265Z" fill="#7A7877"/>
<path d="M146.994 1.2881H5.04297V1.44971H146.994V1.2881Z" fill="#7B7978"/>
<path d="M146.994 1.44971H5.04297V1.61131H146.994V1.44971Z" fill="#7C7A79"/>
<path d="M146.994 1.61131H5.04297V1.77292H146.994V1.61131Z" fill="#7D7A79"/>
<path d="M146.994 1.77292H5.04297V1.93453H146.994V1.77292Z" fill="#7E7B7A"/>
<path d="M146.994 1.92978H5.04297V2.09139H146.994V1.92978Z" fill="#7E7C7B"/>
<path d="M146.994 2.09138H5.04297V2.25299H146.994V2.09138Z" fill="#7F7D7C"/>
<path d="M146.994 2.25299H5.04297V2.4146H146.994V2.25299Z" fill="#807E7D"/>
<path d="M146.994 2.4146H5.04297V2.5762H146.994V2.4146Z" fill="#817F7E"/>
<path d="M146.994 2.5762H5.04297V2.73781H146.994V2.5762Z" fill="#82807F"/>
<path d="M146.994 2.73781H5.04297V2.89941H146.994V2.73781Z" fill="#838180"/>
<path d="M146.994 2.89467H5.04297V3.05628H146.994V2.89467Z" fill="#848281"/>
<path d="M146.994 3.05627H5.04297V3.21788H146.994V3.05627Z" fill="#858382"/>
<path d="M146.994 3.21788H5.04297V3.37949H146.994V3.21788Z" fill="#868483"/>
<path d="M146.994 3.37949H5.04297V3.54109H146.994V3.37949Z" fill="#878484"/>
<path d="M146.994 3.54109H5.04297V3.7027H146.994V3.54109Z" fill="#888584"/>
<path d="M146.994 3.7027H5.04297V3.8643H146.994V3.7027Z" fill="#898685"/>
<path d="M146.994 3.85956H5.04297V4.02117H146.994V3.85956Z" fill="#8A8786"/>
<path d="M146.994 4.02116H5.04297V4.18277H146.994V4.02116Z" fill="#8B8887"/>
<path d="M146.994 4.18277H5.04297V4.34438H146.994V4.18277Z" fill="#8C8988"/>
<path d="M146.994 4.34438H5.04297V4.50598H146.994V4.34438Z" fill="#8C8A89"/>
<path d="M146.994 4.50598H5.04297V4.66759H146.994V4.50598Z" fill="#8D8B8A"/>
<path d="M146.994 4.66759H5.04297V4.82919H146.994V4.66759Z" fill="#8E8C8B"/>
<path d="M146.994 4.82443H5.04297V4.98604H146.994V4.82443Z" fill="#8F8D8C"/>
<path d="M146.994 4.98605H5.04297V5.14766H146.994V4.98605Z" fill="#908E8D"/>
<path d="M146.994 5.14766H5.04297V5.30927H146.994V5.14766Z" fill="#918F8E"/>
<path d="M146.994 5.30927H5.04297V5.47087H146.994V5.30927Z" fill="#92908F"/>
<path d="M146.994 5.47087H5.04297V5.63248H146.994V5.47087Z" fill="#939190"/>
<path d="M146.994 5.63248H5.04297V5.79408H146.994V5.63248Z" fill="#949291"/>
<path d="M146.994 5.78932H5.04297V5.95093H146.994V5.78932Z" fill="#959392"/>
<path d="M146.994 5.95093H5.04297V6.11253H146.994V5.95093Z" fill="#969493"/>
<path d="M146.994 6.11255H5.04297V6.27416H146.994V6.11255Z" fill="#979594"/>
<path d="M146.994 6.27415H5.04297V6.43576H146.994V6.27415Z" fill="#989695"/>
<path d="M146.994 6.43576H5.04297V6.59737H146.994V6.43576Z" fill="#9A9796"/>
<path d="M146.994 6.59261H5.04297V6.75421H146.994V6.59261Z" fill="#9B9897"/>
<path d="M146.994 6.75421H5.04297V6.91582H146.994V6.75421Z" fill="#9C9998"/>
<path d="M146.994 6.91582H5.04297V7.07742H146.994V6.91582Z" fill="#9D9A99"/>
<path d="M146.994 7.07742H5.04297V7.23903H146.994V7.07742Z" fill="#9E9B9A"/>
<path d="M146.994 7.23903H5.04297V7.40064H146.994V7.23903Z" fill="#9F9C9B"/>
<path d="M146.994 7.40065H5.04297V7.56226H146.994V7.40065Z" fill="#A09D9C"/>
<path d="M146.994 7.5575H5.04297V7.7191H146.994V7.5575Z" fill="#A19E9D"/>
<path d="M146.994 7.7191H5.04297V7.88071H146.994V7.7191Z" fill="#A29F9E"/>
<path d="M146.994 7.88071H5.04297V8.04231H146.994V7.88071Z" fill="#A3A09F"/>
<path d="M146.994 8.04231H5.04297V8.20392H146.994V8.04231Z" fill="#A4A1A0"/>
<path d="M146.994 8.20392H5.04297V8.36553H146.994V8.20392Z" fill="#A5A2A1"/>
<path d="M146.994 8.36554H5.04297V8.52715H146.994V8.36554Z" fill="#A6A3A2"/>
<path d="M146.994 8.52238H5.04297V8.68399H146.994V8.52238Z" fill="#A7A4A3"/>
<path d="M146.994 8.68399H5.04297V8.8456H146.994V8.68399Z" fill="#A8A5A4"/>
<path d="M146.994 8.8456H5.04297V9.0072H146.994V8.8456Z" fill="#A9A6A6"/>
<path d="M146.994 9.0072H5.04297V9.16881H146.994V9.0072Z" fill="#AAA7A7"/>
<path d="M146.994 9.16881H5.04297V9.33041H146.994V9.16881Z" fill="#ABA8A8"/>
<path d="M146.994 9.33041H5.04297V9.49202H146.994V9.33041Z" fill="#ACA9A9"/>
<path d="M146.994 9.48727H5.04297V9.64888H146.994V9.48727Z" fill="#ADAAAA"/>
<path d="M146.994 9.64888H5.04297V9.81049H146.994V9.64888Z" fill="#AEABAB"/>
<path d="M146.994 9.81049H5.04297V9.97209H146.994V9.81049Z" fill="#AFACAC"/>
<path d="M146.994 9.97209H5.04297V10.1337H146.994V9.97209Z" fill="#B0ADAD"/>
<path d="M146.994 10.1337H5.04297V10.2953H146.994V10.1337Z" fill="#B1AEAE"/>
<path d="M146.994 10.2953H5.04297V10.4569H146.994V10.2953Z" fill="#B3B0AF"/>
<path d="M146.994 10.4522H5.04297V10.6138H146.994V10.4522Z" fill="#B4B1B0"/>
<path d="M146.994 10.6138H5.04297V10.7754H146.994V10.6138Z" fill="#B5B2B1"/>
<path d="M146.994 10.7754H5.04297V10.937H146.994V10.7754Z" fill="#B6B3B3"/>
<path d="M146.994 10.937H5.04297V11.0986H146.994V10.937Z" fill="#B7B4B4"/>
<path d="M146.994 11.0986H5.04297V11.2602H146.994V11.0986Z" fill="#B8B5B5"/>
<path d="M146.994 11.2602H5.04297V11.4218H146.994V11.2602Z" fill="#B9B6B6"/>
<path d="M146.994 11.4171H5.04297V11.5787H146.994V11.4171Z" fill="#BAB7B7"/>
<path d="M146.994 11.5787H5.04297V11.7403H146.994V11.5787Z" fill="#BBB8B8"/>
<path d="M146.994 11.7403H5.04297V11.9019H146.994V11.7403Z" fill="#BCB9B9"/>
<path d="M146.994 11.9019H5.04297V12.0635H146.994V11.9019Z" fill="#BDBABA"/>
<path d="M146.994 12.0635H5.04297V12.2251H146.994V12.0635Z" fill="#BEBBBB"/>
<path d="M146.994 12.2203H5.04297V12.3819H146.994V12.2203Z" fill="#BFBCBC"/>
<path d="M146.994 12.3819H5.04297V12.5435H146.994V12.3819Z" fill="#C0BEBE"/>
<path d="M146.994 12.5435H5.04297V12.7052H146.994V12.5435Z" fill="#C1BFBF"/>
<path d="M146.994 12.7052H5.04297V12.8668H146.994V12.7052Z" fill="#C2C0C0"/>
<path d="M146.994 12.8668H5.04297V13.0284H146.994V12.8668Z" fill="#C3C1C1"/>
<path d="M146.994 13.0284H5.04297V13.19H146.994V13.0284Z" fill="#C5C2C2"/>
<path d="M146.994 13.1852H5.04297V13.3468H146.994V13.1852Z" fill="#C6C3C3"/>
<path d="M146.994 13.3468H5.04297V13.5084H146.994V13.3468Z" fill="#C7C4C4"/>
<path d="M146.994 13.5084H5.04297V13.67H146.994V13.5084Z" fill="#C8C5C5"/>
<path d="M146.994 13.67H5.04297V13.8317H146.994V13.67Z" fill="#C9C7C7"/>
<path d="M146.994 13.8316H5.04297V13.9933H146.994V13.8316Z" fill="#CAC8C8"/>
<path d="M146.994 13.9933H5.04297V14.1549H146.994V13.9933Z" fill="#CBC9C9"/>
<path d="M146.994 14.1501H5.04297V14.3117H146.994V14.1501Z" fill="#CCCACA"/>
<path d="M146.994 14.3117H5.04297V14.4733H146.994V14.3117Z" fill="#CDCBCB"/>
<path d="M146.994 14.4733H5.04297V14.6349H146.994V14.4733Z" fill="#CFCCCC"/>
<path d="M146.994 14.6349H5.04297V14.7965H146.994V14.6349Z" fill="#D0CDCE"/>
<path d="M146.994 14.7965H5.04297V14.9581H146.994V14.7965Z" fill="#D1CFCF"/>
<path d="M146.994 14.9581H5.04297V15.1198H146.994V14.9581Z" fill="#D2D0D0"/>
<path d="M146.994 15.115H5.04297V15.2766H146.994V15.115Z" fill="#D3D1D1"/>
<path d="M146.994 15.2766H5.04297V15.4382H146.994V15.2766Z" fill="#D4D2D2"/>
<path d="M146.994 15.4382H5.04297V15.5998H146.994V15.4382Z" fill="#D5D3D4"/>
<path d="M146.994 15.5998H5.04297V15.7614H146.994V15.5998Z" fill="#D7D4D5"/>
<path d="M146.994 15.7614H5.04297V15.923H146.994V15.7614Z" fill="#D8D6D6"/>
<path d="M146.994 15.923H5.04297V16.0846H146.994V15.923Z" fill="#D9D7D7"/>
<path d="M146.994 16.0799H5.04297V16.2415H146.994V16.0799Z" fill="#DAD8D8"/>
<path d="M146.994 16.2415H5.04297V16.4031H146.994V16.2415Z" fill="#DBD9DA"/>
<path d="M146.994 16.4031H5.04297V16.5647H146.994V16.4031Z" fill="#DCDADB"/>
<path d="M146.994 16.5647H5.04297V16.7263H146.994V16.5647Z" fill="#DDDCDC"/>
<path d="M146.994 16.7263H5.04297V16.8879H146.994V16.7263Z" fill="#DFDDDD"/>
<path d="M146.994 16.8832H5.04297V17.0448H146.994V16.8832Z" fill="#E0DEDF"/>
<path d="M146.994 17.0448H5.04297V17.2064H146.994V17.0448Z" fill="#E1DFE0"/>
<path d="M146.994 17.2064H5.04297V17.368H146.994V17.2064Z" fill="#E2E1E1"/>
<path d="M146.994 17.368H5.04297V17.5296H146.994V17.368Z" fill="#E3E2E2"/>
<path d="M146.994 17.5296H5.04297V17.6912H146.994V17.5296Z" fill="#E5E3E4"/>
<path d="M146.994 17.6912H5.04297V17.8528H146.994V17.6912Z" fill="#E6E4E5"/>
<path d="M146.994 17.8481H5.04297V18.0097H146.994V17.8481Z" fill="#E7E6E6"/>
<path d="M146.994 18.0097H5.04297V18.1713H146.994V18.0097Z" fill="#E8E7E7"/>
<path d="M146.994 18.1713H5.04297V18.3329H146.994V18.1713Z" fill="#E9E8E9"/>
<path d="M146.994 18.3329H5.04297V18.4945H146.994V18.3329Z" fill="#EBE9EA"/>
<path d="M146.994 18.4945H5.04297V18.6561H146.994V18.4945Z" fill="#ECEBEB"/>
<path d="M146.994 18.6561H5.04297V18.8177H146.994V18.6561Z" fill="#EDECEC"/>
<path d="M146.994 18.8129H5.04297V18.9745H146.994V18.8129Z" fill="#EEEDEE"/>
<path d="M146.994 18.9745H5.04297V19.1362H146.994V18.9745Z" fill="#F0EEEF"/>
<path d="M146.994 19.1362H5.04297V19.2978H146.994V19.1362Z" fill="#F1F0F0"/>
<path d="M146.994 19.2978H5.04297V19.4594H146.994V19.2978Z" fill="#F2F1F2"/>
<path d="M146.994 19.4594H5.04297V19.621H146.994V19.4594Z" fill="#F3F2F3"/>
<path d="M146.994 19.621H5.04297V19.7826H146.994V19.621Z" fill="#F4F4F4"/>
<path d="M146.994 19.7778H5.04297V19.9394H146.994V19.7778Z" fill="#F6F5F5"/>
<path d="M146.994 19.9394H5.04297V20.101H146.994V19.9394Z" fill="#F7F6F7"/>
<path d="M146.994 20.101H5.04297V20.2627H146.994V20.101Z" fill="#F8F8F8"/>
<path d="M146.994 20.2626H5.04297V20.4243H146.994V20.2626Z" fill="#F9F9F9"/>
<path d="M146.994 20.4243H5.04297V20.5859H146.994V20.4243Z" fill="#FAFAFA"/>
<path d="M146.994 20.5859H5.04297V20.7475H146.994V20.5859Z" fill="#FCFBFC"/>
<path d="M146.994 20.7427H5.04297V20.9043H146.994V20.7427Z" fill="#FDFDFD"/>
<path d="M146.994 20.9043H5.04297V21.0659H146.994V20.9043Z" fill="#FEFEFE"/>
<path d="M146.994 21.0659H5.04297V21.2275H146.994V21.0659Z" fill="white"/>
</g>
</g>
<path d="M137.147 21.2275H111.807L111.348 21.2085L110.848 21.142L110.355 21.0184L109.884 20.8378L109.442 20.6096L109.039 20.3197L108.693 19.987L108.415 19.6162L108.211 19.217L108.069 18.8082L108.001 18.3899L107.989 17.9716L108.04 17.5629L108.137 17.1588L108.279 16.7643L108.449 16.4126L117.236 0.190126H143.171L143.63 0.209138L144.135 0.280435L144.623 0.404017L145.094 0.579884L145.542 0.812788L145.945 1.09798L146.291 1.43545L146.575 1.80619L146.79 2.21021L146.926 2.62374L146.994 3.03726L147.006 3.45554L146.955 3.87381L146.852 4.27308L146.705 4.67234L146.523 5.03833L137.147 21.237V21.2275ZM117.241 0.199632L108.449 16.4221L108.279 16.7738L108.137 17.1684L108.04 17.5724L107.989 17.9764L108.001 18.3947L108.069 18.8129L108.211 19.2217L108.415 19.621L108.693 19.9917L109.039 20.3244L109.442 20.6144L109.884 20.8425L110.355 21.0232L110.848 21.1467L111.348 21.2133L111.807 21.2323H137.141L146.512 5.03833L146.694 4.67234L146.841 4.27783L146.943 3.87857L146.994 3.46029L146.983 3.04201L146.915 2.62849L146.779 2.21496L146.563 1.8157L146.28 1.44496L145.934 1.10748L145.536 0.822294L145.094 0.58939L144.623 0.413523L144.135 0.289942L143.63 0.218645L143.171 0.199632H117.241ZM98.2042 21.2323H88.1636L88.0729 14.4163L84.2325 21.2323H72.0307L80.8403 4.52024L81.0615 4.08295L81.3395 3.61239L81.6515 3.16559L81.9975 2.74256L82.3776 2.3433L82.7917 1.97255L83.2398 1.63508L83.7163 1.33088L84.2269 1.05995L84.7657 0.8318L85.3217 0.632168L85.9003 0.475314L86.4902 0.356486L87.0972 0.270929L87.7155 0.218645L88.3168 0.199632H100.314L100.399 6.80175L104.064 0.223398L116.254 0.00950629L106.815 16.598L106.724 16.8214L106.571 17.1493L106.401 17.4678L106.22 17.772L106.021 18.0619L105.811 18.3424L105.59 18.6086L105.357 18.8652L105.113 19.1029L104.852 19.3263L104.58 19.5402L104.302 19.7351L104.019 19.9157L103.729 20.0773L103.429 20.2294L103.128 20.3625L102.822 20.4908L102.51 20.6001L102.203 20.7047L101.891 20.7903L101.579 20.8711L101.273 20.9376L100.961 20.9994L100.649 21.0469L100.343 21.0897L100.036 21.1277L99.7301 21.1562L99.4294 21.1848L98.8281 21.2228L98.5332 21.237L98.2042 21.2466V21.2323ZM88.1693 21.2275H98.2042L98.5332 21.218L98.8281 21.2038L99.4294 21.1657L99.7301 21.1372L100.036 21.1087L100.343 21.0707L100.649 21.0279L100.955 20.9804L101.267 20.9186L101.574 20.852L101.886 20.7712L102.198 20.6857L102.504 20.5811L102.816 20.4718L103.122 20.3435L103.423 20.2104L103.724 20.0583L104.013 19.8967L104.297 19.716L104.575 19.5212L104.847 19.3073L105.102 19.0839L105.346 18.8462L105.579 18.5943L105.8 18.3281L106.01 18.0477L106.208 17.7577L106.39 17.4535L106.56 17.1351L106.713 16.8071L106.804 16.5837L116.243 0.00475314L104.064 0.218645L100.388 6.81601V6.8065L100.303 0.199632H88.3111L87.7098 0.218645L87.0915 0.270929L86.4846 0.356486L85.8946 0.475314L85.316 0.632168L84.7601 0.8318L84.2212 1.05995L83.7106 1.33088L83.2341 1.63508L82.786 1.97255L82.3719 2.3433L81.9918 2.73781L81.6458 3.16084L81.3338 3.60764L81.0559 4.0782L80.8346 4.51549L72.0251 21.2228H84.2155L88.0672 14.3878V14.3973L88.158 21.218L88.1693 21.2275ZM70.8338 21.2323H59.6361L61.6499 17.6817H52.7042L52.6361 17.8005L52.3979 18.2426L52.2787 18.466L51.9157 19.1362L51.7966 19.3548L51.4335 20.025L50.7755 21.2323H45.4943L45.0348 21.2133L44.5299 21.1467L44.0364 21.0232L43.5656 20.8425L43.1231 20.6144L42.7204 20.3244L42.3743 19.9917L42.0964 19.621L41.8865 19.2217L41.7504 18.8129L41.6766 18.3947L41.6653 17.9764L41.7107 17.5676L41.8128 17.1636L41.9546 16.7691L42.1248 16.4174L50.9286 0.190126H76.8638L77.3176 0.209138L77.8225 0.280435L78.316 0.404017L78.7868 0.579884L79.235 0.812788L79.6377 1.09798L79.9837 1.43545L80.2617 1.80619L80.4716 2.21021L80.6077 2.62374L80.6815 3.03726L80.6928 3.45554L80.6418 3.87381L80.5453 4.27308L80.3978 4.67234L80.2163 5.03833L70.8395 21.237L70.8338 21.2323ZM59.6474 21.2275H70.8338L80.2106 5.03358L80.3922 4.66759L80.5397 4.27308L80.6361 3.87381L80.6871 3.45554L80.6758 3.03726L80.6021 2.62374L80.4659 2.21021L80.256 1.81095L79.9781 1.4402L79.632 1.10273L79.2293 0.817541L78.7812 0.584637L78.3103 0.40877L77.8168 0.285189L77.3176 0.213891L76.8638 0.194879H50.9343L42.1418 16.4174L41.9716 16.7691L41.8298 17.1636L41.7277 17.5676L41.6823 17.9716L41.6936 18.3899L41.7674 18.8082L41.9035 19.217L42.1134 19.6162L42.3914 19.987L42.7374 20.3197L43.1402 20.6096L43.5826 20.8378L44.0534 21.0184L44.547 21.142L45.0461 21.2085L45.5056 21.2275H50.7812L51.7966 19.3548L51.9157 19.1362L52.2787 18.466L52.3979 18.2426L52.7042 17.6769H61.6612L59.6474 21.2275ZM31.2163 21.2323H21.1758L21.085 14.4163L17.2447 21.2323H5.03723L13.8525 4.51549L14.068 4.0782L14.3517 3.60764L14.6636 3.16084L15.0097 2.73781L15.3897 2.33855L15.8038 1.9678L16.252 1.63033L16.7342 1.32613L17.239 1.0552L17.7779 0.827047L18.3338 0.627415L18.9124 0.470561L19.5024 0.351733L20.1094 0.266176L20.7277 0.213891L21.3346 0.194879H33.3265L33.4116 6.797L37.0761 0.213891L49.2666 0L39.8217 16.5885L39.7309 16.8119L39.5777 17.1398L39.4076 17.4583L39.226 17.7625L39.0332 18.0524L38.8233 18.3329L38.6021 18.5991L38.3695 18.8557L38.1199 19.0934L37.8646 19.3168L37.598 19.5307L37.32 19.7255L37.0307 19.9062L36.7414 20.0678L36.4408 20.2199L36.1401 20.353L35.8338 20.4813L35.5275 20.5906L35.2155 20.6952L34.9035 20.7807L34.5915 20.8615L34.2795 20.9281L33.9732 20.9899L33.6669 21.0374L33.3606 21.0802L33.0542 21.1182L32.7479 21.1467L32.4473 21.1753L31.846 21.2133L31.551 21.2275L31.222 21.237L31.2163 21.2323ZM21.1815 21.2275H31.2163L31.5453 21.218L31.8403 21.2038L32.4416 21.1657L32.7423 21.1372L33.0486 21.1087L33.3549 21.0707L33.6612 21.0279L33.9675 20.9804L34.2739 20.9186L34.5859 20.852L34.8978 20.7712L35.2098 20.6857L35.5218 20.5811L35.8282 20.4718L36.1345 20.3435L36.4351 20.2104L36.7358 20.0583L37.0251 19.8967L37.3144 19.716L37.5923 19.5212L37.8589 19.3073L38.1142 19.0839L38.3638 18.8462L38.5964 18.5943L38.8176 18.3281L39.0275 18.0477L39.2204 17.7577L39.4019 17.4535L39.5721 17.1351L39.7252 16.8071L39.816 16.5837L49.2552 0.00475314L37.0761 0.218645L33.4059 6.81601V6.8065L33.3209 0.199632H21.3346L20.7277 0.218645L20.1094 0.270929L19.5024 0.356486L18.9124 0.475314L18.3338 0.632168L17.7779 0.8318L17.239 1.05995L16.7342 1.33088L16.252 1.63508L15.8038 1.97255L15.3897 2.3433L15.0097 2.73781L14.6636 3.16084L14.3517 3.60764L14.068 4.0782L13.8525 4.51549L5.0429 21.2228H17.2333L21.085 14.3878V14.3973L21.1758 21.218L21.1815 21.2275ZM130.737 12.6624H121.711L123.822 8.76955H132.989L130.742 12.6624H130.737ZM121.723 12.6576H130.737L132.983 8.7743H123.833L121.728 12.6576H121.723ZM66.0348 9.96259H56.8735L57.2763 9.21159L57.4295 8.9264L57.5145 8.76955H66.7098L66.0348 9.96259ZM56.8849 9.95784H66.0348L66.7042 8.7743H57.5202L57.4408 8.9264L57.2876 9.21159L56.8849 9.95784Z" fill="#010101"/>
<path fill-rule="evenodd" clip-rule="evenodd" d="M22.3671 20.2199L22.2309 10.0101L16.4732 20.2199H6.89221L14.9587 4.91475L15.1685 4.50123L15.4125 4.09246L15.6848 3.70745L15.9797 3.34146L16.3031 3.00399L16.6491 2.69503L17.0235 2.4146L17.4206 2.15793L17.846 1.93453L18.2885 1.73965L18.7536 1.57804L19.2415 1.44496L19.7463 1.34039L20.2682 1.26909L20.8071 1.22156L21.3517 1.2073H32.1296L32.2601 11.2459L37.8476 1.22156L47.3322 1.05045L38.6985 16.213L38.5907 16.4649L38.4546 16.7548L38.3071 17.0305L38.1483 17.2919L37.9781 17.5391L37.8023 17.7768L37.6207 18.0002L37.4222 18.2093L37.218 18.4089L37.0024 18.5943L36.7812 18.7654L36.5543 18.927L36.316 19.0744L36.0721 19.2122L35.8225 19.3405L35.5673 19.4546L35.312 19.5592L35.051 19.6495L34.7844 19.7351L34.5178 19.8063L34.2455 19.8776L33.9732 19.9347L33.701 19.9917L33.423 20.0345L33.145 20.0725L32.8671 20.1058L32.5891 20.1343L32.3112 20.1581L32.0332 20.1771L31.7496 20.1961L31.4716 20.2104L31.1767 20.2246H22.3557L22.3671 20.2199ZM55.722 9.63938L55.5689 9.92456L55.2626 10.4949L55.1094 10.7801L55.0073 10.9607H66.7893L68.6045 7.75713H56.7374L56.4992 8.19442L56.3347 8.50337L56.1815 8.78856L56.0284 9.07375L55.8752 9.35419L55.722 9.63938ZM78.2196 1.47823L78.5146 1.63033L78.7812 1.82045L79.0081 2.0391L79.1953 2.28151L79.3371 2.54293L79.4335 2.82337L79.4846 3.10856V3.408L79.4562 3.70745L79.3825 4.01165L79.269 4.32061L79.1215 4.6153L70.0907 20.2151H61.5535L63.5672 16.6598H51.9384L51.91 16.7073L51.7909 16.9307L51.6718 17.1541L51.5527 17.3727L51.4335 17.5961L51.3144 17.8195L51.1896 18.0429L50.9457 18.485L50.8266 18.7084L50.7018 18.9318L50.4578 19.3738L50.3387 19.5972L50.004 20.2151H45.5284L45.171 20.2009L44.8079 20.1486L44.4619 20.063L44.1386 19.9394L43.8436 19.7873L43.577 19.5972L43.3501 19.3786L43.1685 19.1362L43.0324 18.8747L42.936 18.5943L42.8849 18.3044V18.0049L42.9133 17.7102L42.987 17.406L43.1005 17.1018L43.2423 16.8071L51.7058 1.20255H76.8355L77.1929 1.21681L77.5559 1.26434L77.9019 1.34989L78.2253 1.47823H78.2196ZM89.3549 20.2199L89.2188 10.0101L83.4611 20.2199H73.8744L81.9408 4.91475L82.1507 4.50123L82.3946 4.09246L82.6669 3.70745L82.9619 3.34146L83.2852 3.00399L83.6313 2.69503L84.0057 2.4146L84.4084 2.15793L84.8282 1.93453L85.2763 1.73965L85.7415 1.57804L86.2293 1.44496L86.7342 1.34039L87.2561 1.26909L87.795 1.22156L88.3395 1.2073H99.1175L99.248 11.2459L104.835 1.22156L114.314 1.05045L105.686 16.213L105.579 16.4649L105.442 16.7548L105.295 17.0305L105.136 17.2919L104.972 17.5391L104.796 17.7768L104.609 18.0002L104.41 18.2093L104.206 18.4089L103.99 18.5943L103.769 18.7654L103.542 18.927L103.304 19.0744L103.06 19.2122L102.81 19.3405L102.561 19.4546L102.3 19.5592L102.039 19.6495L101.772 19.7351L101.506 19.8063L101.233 19.8776L100.961 19.9347L100.689 19.9917L100.411 20.0345L100.133 20.0725L99.8549 20.1058L99.577 20.1343L99.299 20.1581L99.0154 20.1771L98.7318 20.1961L98.4481 20.2104L98.1532 20.2246H89.3322L89.3549 20.2199ZM134.9 7.76188H123.05L119.851 13.67H131.491L134.906 7.76188H134.9ZM143.137 1.2073L143.494 1.22156L143.857 1.26909L144.203 1.35465L144.527 1.48298L144.822 1.63508L145.088 1.82521L145.315 2.04385L145.497 2.28626L145.639 2.54769L145.729 2.82812L145.78 3.11331V3.41276L145.752 3.71221L145.678 4.01641L145.565 4.32536L145.417 4.62006L136.387 20.2199H111.83L111.472 20.2056L111.109 20.1533L110.763 20.0678L110.44 19.9442L110.145 19.7921L109.878 19.602L109.652 19.3833L109.47 19.1409L109.334 18.8795L109.243 18.5991L109.192 18.3091V18.0097L109.22 17.715L109.294 17.4108L109.408 17.1066L109.549 16.8119L118.013 1.20255H143.137V1.2073Z" fill="#161618"/>
<path d="M136.392 20.2199H111.836L111.478 20.2056L111.115 20.1533L110.769 20.0678L110.446 19.9442L110.151 19.7921L109.884 19.602L109.657 19.3833L109.476 19.1409L109.34 18.8795L109.249 18.5991L109.198 18.3091V18.0097L109.226 17.715L109.3 17.4155L109.413 17.1066L109.555 16.8119L118.019 1.19779H143.148L143.506 1.21205L143.869 1.25958L144.215 1.34514L144.538 1.47348L144.833 1.62558L145.1 1.8157L145.327 2.03435L145.514 2.27676L145.656 2.53818L145.746 2.82337L145.797 3.10856V3.408L145.769 3.70745L145.695 4.01165L145.582 4.32061L145.434 4.6153L136.404 20.2199H136.392ZM118.013 1.2073L109.549 16.8166L109.408 17.1113L109.294 17.4155L109.22 17.715L109.186 18.0097V18.3091L109.243 18.5991L109.334 18.8795L109.47 19.1409L109.652 19.3833L109.879 19.602L110.145 19.7921L110.44 19.9442L110.763 20.0678L111.109 20.1533L111.473 20.2056L111.83 20.2199H136.381L145.406 4.62006L145.554 4.32536L145.667 4.01641L145.741 3.71221L145.78 3.41276V3.11331L145.724 2.82812L145.633 2.54769L145.491 2.28626L145.31 2.04385L145.083 1.82521L144.816 1.63508L144.521 1.48298L144.198 1.35465L143.852 1.26909L143.489 1.22156L143.131 1.2073H118.007H118.013ZM89.355 20.2246L89.2189 10.0244L83.4668 20.2246H73.8744L81.9409 4.9195L82.1508 4.50598L82.3947 4.09721L82.667 3.71221L82.962 3.34621L83.2853 3.00874L83.6313 2.69979L84.0057 2.41935L84.4085 2.16268L84.8283 1.93928L85.2764 1.7444L85.7415 1.5828L86.2294 1.44971L86.7343 1.34514L87.2561 1.27384L87.795 1.22631L88.3396 1.21205H99.1232L99.2537 11.2412L104.836 1.22631L114.32 1.0552L105.692 16.2225L105.584 16.4744L105.448 16.7643L105.301 17.04L105.142 17.3014L104.977 17.5486L104.802 17.7863L104.614 18.0097L104.416 18.2188L104.212 18.4184L103.996 18.6038L103.775 18.7749L103.548 18.9365L103.31 19.0839L103.066 19.2217L102.816 19.35L102.567 19.4641L102.306 19.5687L102.045 19.659L101.778 19.7446L101.511 19.8159L101.239 19.8872L100.695 20.0012L100.417 20.044L100.139 20.082L99.8607 20.1153L99.577 20.1438L99.2991 20.1628L99.0155 20.1818L98.7318 20.2009L98.4482 20.2151L98.1532 20.2294H89.3323L89.355 20.2246ZM89.355 20.2199H98.1702L98.4652 20.2056L98.7488 20.1914L99.0325 20.1723L99.3161 20.1533L99.5941 20.1343L99.872 20.1058L100.15 20.0725L100.428 20.0345L100.706 19.9917L101.25 19.8776L101.523 19.8063L101.789 19.7351L102.056 19.6495L102.317 19.5592L102.578 19.4546L102.827 19.3405L103.077 19.2122L103.321 19.0744L103.559 18.927L103.786 18.7654L104.007 18.5943L104.223 18.4089L104.427 18.2093L104.626 18.0002L104.813 17.7768L104.989 17.5391L105.153 17.2919L105.312 17.0305L105.46 16.7548L105.596 16.4649L105.703 16.213L114.332 1.05045L104.858 1.22156L99.2651 11.2554V11.2459L99.1346 1.21205H88.3566L87.812 1.22631L87.2732 1.27384L86.7513 1.34514L86.2464 1.44971L85.7586 1.5828L85.2934 1.7444L84.8453 1.93928L84.4255 2.16268L84.0227 2.41935L83.6484 2.69979L83.3023 3.00874L82.979 3.34621L82.684 3.71221L82.4117 4.09721L82.1678 4.50598L81.9579 4.9195L73.8915 20.2199H83.4725L89.2359 10.0054V10.0149L89.372 20.2199H89.355ZM70.0795 20.2246H61.5365L63.5503 16.6693H51.9271L51.8988 16.7121L51.7796 16.9355L51.5414 17.3775L51.4223 17.6009L51.3031 17.8243L51.1783 18.0477L50.9344 18.4897L50.8153 18.7131L50.6905 18.9365L50.3274 19.6067L49.9928 20.2246H45.5171L45.1597 20.2104L44.7966 20.1581L44.4506 20.0725L44.1273 19.9489L43.8323 19.7968L43.5657 19.6067L43.3388 19.3881L43.1573 19.1457L43.0211 18.8842L42.9247 18.6038L42.8793 18.3139V18.0144L42.9077 17.7197L42.9814 17.4203L43.0949 17.1113L43.2367 16.8166L51.7059 1.20255H76.8355L77.1929 1.21681L77.556 1.26434L77.902 1.34989L78.2253 1.47823L78.5203 1.63033L78.7869 1.82045L79.0138 2.0391L79.201 2.28151L79.3428 2.54293L79.4393 2.82812L79.4903 3.11331V3.41276L79.462 3.71221L79.3882 4.01641L79.2748 4.32536L79.1273 4.62006L70.0965 20.2246H70.0795ZM61.5479 20.2199H70.0795L79.1046 4.62006L79.2521 4.32536L79.3655 4.01641L79.4393 3.71221L79.4733 3.41276V3.11331L79.4166 2.82812L79.3202 2.54769L79.184 2.28626L78.9968 2.04385L78.7699 1.82521L78.5033 1.63508L78.2083 1.48298L77.885 1.35465L77.539 1.26909L77.1759 1.22156L76.8185 1.2073H51.6945L43.231 16.8166L43.0892 17.1113L42.9757 17.4155L42.902 17.715L42.868 18.0097V18.3091L42.9247 18.5991L43.0211 18.8795L43.1573 19.1409L43.3388 19.3833L43.5657 19.602L43.8323 19.7921L44.1273 19.9442L44.4506 20.0678L44.791 20.1533L45.154 20.2056L45.5114 20.2199H49.9814L50.4352 19.3833L50.7983 18.7179L50.9174 18.4945L51.2804 17.829L51.3996 17.6056L51.6378 17.1636L51.7569 16.9402L51.8761 16.7168L51.9044 16.6693H63.539L61.5252 20.2246L61.5479 20.2199ZM22.3615 20.2246L22.2253 10.0244L16.4733 20.2246H6.8866L14.9587 4.91475L15.1686 4.50123L15.4125 4.09246L15.6848 3.70745L15.9798 3.34146L16.3031 3.00399L16.6548 2.69503L17.0292 2.4146L17.4263 2.15793L17.8518 1.93453L18.2942 1.73965L18.7594 1.57804L19.2472 1.44496L19.7521 1.34039L20.274 1.26909L20.8129 1.22156L21.3574 1.2073H32.1411L32.2715 11.2364L37.8534 1.22156L47.3437 1.05045L38.7099 16.2177L38.6022 16.4696L38.466 16.7596L38.3185 17.0353L38.1597 17.2967L37.9895 17.5439L37.8137 17.7815L37.6321 18.0049L37.4336 18.214L37.2294 18.4137L37.0138 18.5991L36.7926 18.7702L36.5657 18.9318L36.3274 19.0791L36.0835 19.217L35.8339 19.3453L35.5787 19.4594L35.3234 19.5639L35.0625 19.6542L34.7958 19.7398L34.5292 19.8111L34.2569 19.8824L33.7124 19.9965L33.4344 20.0393L33.1565 20.0773L32.8785 20.1105L32.5949 20.1391L32.3169 20.1581L32.0389 20.1771L31.7553 20.1961L31.4774 20.2104L31.1824 20.2246H22.3615ZM22.3615 20.2199H31.1824L31.4774 20.2056L31.7553 20.1914L32.0389 20.1723L32.3169 20.1533L32.5949 20.1343L32.8728 20.1058L33.1508 20.0725L33.4287 20.0345L33.7067 19.9917L34.2513 19.8776L34.5236 19.8063L34.7902 19.7351L35.0568 19.6495L35.3177 19.5592L35.573 19.4546L35.8283 19.3405L36.0722 19.2122L36.3161 19.0744L36.5543 18.927L36.7812 18.7654L37.0025 18.5943L37.218 18.4089L37.4223 18.2093L37.6208 18.0002L37.8023 17.7768L37.9782 17.5391L38.1483 17.2919L38.3072 17.0305L38.4547 16.7548L38.5908 16.4649L38.6986 16.213L47.3266 1.05045L37.8477 1.22156L32.2545 11.2554V11.2459L32.124 1.21205H21.3461L20.8015 1.22631L20.2626 1.27384L19.7407 1.34514L19.2359 1.44971L18.748 1.5828L18.2829 1.7444L17.8404 1.93928L17.415 2.16268L17.0179 2.41935L16.6435 2.69979L16.2975 3.00874L15.9798 3.34621L15.6848 3.71221L15.4125 4.09721L15.1686 4.50598L14.9587 4.9195L6.89227 20.2199H16.4733L22.2367 10.0054V10.0149L22.3728 20.2199H22.3615ZM131.48 13.67H119.834L123.033 7.75713H134.895L131.48 13.67ZM119.845 13.6653H131.474L134.889 7.76664H123.045L119.845 13.6653ZM66.7837 10.9703H54.9903L55.0924 10.7849L55.2456 10.4997L56.4879 8.20393L56.7318 7.76664H68.6046L66.7837 10.975V10.9703ZM55.0017 10.9655H66.778L68.5932 7.76664H56.7318L56.4936 8.20393L55.2513 10.4997L55.0981 10.7849L54.996 10.9655H55.0017Z" fill="#010101"/>
<mask id="mask2_206_3370" style="mask-type:luminance" maskUnits="userSpaceOnUse" x="8" y="1" width="137" height="19">
<path d="M23.1613 19.5449L22.9968 7.08219L15.9684 19.5449H8.12317L15.6961 5.18093C16.7115 2.98498 18.6005 1.88225 21.363 1.87274H31.3355L31.5 14.2024L38.3638 1.87274L46.0446 1.7349L37.9554 15.9468C36.7925 18.9746 34.0867 19.4404 31.171 19.5402M67.2998 11.6309L69.8809 7.08219H56.2269C55.4044 8.60319 54.5818 10.1194 53.765 11.6309H67.2998ZM76.8071 1.87274C78.4238 1.87274 79.1329 2.98498 78.3784 4.33962L69.5802 19.5449H62.8185L64.8322 15.9943H51.4165C50.7755 17.1779 50.1345 18.3566 49.4878 19.5449H45.5511C43.9344 19.5449 43.2423 18.4422 43.9797 17.078L52.222 1.87274H76.8071ZM90.1491 19.5402L89.9846 7.07743L82.9562 19.5402H75.1053L82.6783 5.17618C83.6993 2.98023 85.5827 1.8775 88.3452 1.86799H98.3177L98.4822 14.1976L105.346 1.86799L113.027 1.73015L104.938 15.942C103.769 18.9698 101.069 19.4356 98.1532 19.5354H90.1434L90.1491 19.5402ZM136.182 7.08219L131.99 14.3307H118.597L122.528 7.08219H136.177H136.182ZM143.114 1.87274C144.731 1.87274 145.434 2.98498 144.68 4.33962L135.882 19.5449H111.853C110.236 19.5449 109.544 18.4422 110.281 17.078L118.523 1.87274H143.109H143.114Z" fill="white"/>
</mask>
<g mask="url(#mask2_206_3370)">
<mask id="mask3_206_3370" style="mask-type:luminance" maskUnits="userSpaceOnUse" x="8" y="1" width="138" height="19">
<path d="M145.44 1.73965H8.12317V19.5449H145.44V1.73965Z" fill="white"/>
</mask>
<g mask="url(#mask3_206_3370)">
<path d="M145.44 19.4594H8.12317V19.5449H145.44V19.4594Z" fill="#828282"/>
<path d="M145.44 19.3738H8.12317V19.4594H145.44V19.3738Z" fill="#838383"/>
<path d="M145.44 19.2883H8.12317V19.3738H145.44V19.2883Z" fill="#848484"/>
<path d="M145.44 19.2027H8.12317V19.2883H145.44V19.2027Z" fill="#858485"/>
<path d="M145.44 19.1171H8.12317V19.2027H145.44V19.1171Z" fill="#868585"/>
<path d="M145.44 19.0316H8.12317V19.1171H145.44V19.0316Z" fill="#878686"/>
<path d="M145.44 18.946H8.12317V19.0316H145.44V18.946Z" fill="#888787"/>
<path d="M145.44 18.8605H8.12317V18.946H145.44V18.8605Z" fill="#898888"/>
<path d="M145.44 18.7749H8.12317V18.8605H145.44V18.7749Z" fill="#898989"/>
<path d="M145.44 18.6894H8.12317V18.7749H145.44V18.6894Z" fill="#8A8A8A"/>
<path d="M145.44 18.6038H8.12317V18.6894H145.44V18.6038Z" fill="#8B8A8B"/>
<path d="M145.44 18.5182H8.12317V18.6038H145.44V18.5182Z" fill="#8C8B8C"/>
<path d="M145.44 18.4374H8.12317V18.523H145.44V18.4374Z" fill="#8D8C8C"/>
<path d="M145.44 18.3519H8.12317V18.4375H145.44V18.3519Z" fill="#8E8D8D"/>
<path d="M145.44 18.2663H8.12317V18.3519H145.44V18.2663Z" fill="#8F8E8E"/>
<path d="M145.44 18.1808H8.12317V18.2663H145.44V18.1808Z" fill="#908F8F"/>
<path d="M145.44 18.0952H8.12317V18.1808H145.44V18.0952Z" fill="#919090"/>
<path d="M145.44 18.0097H8.12317V18.0952H145.44V18.0097Z" fill="#929191"/>
<path d="M145.44 17.9241H8.12317V18.0097H145.44V17.9241Z" fill="#939292"/>
<path d="M145.44 17.8385H8.12317V17.9241H145.44V17.8385Z" fill="#949293"/>
<path d="M145.44 17.753H8.12317V17.8385H145.44V17.753Z" fill="#959394"/>
<path d="M145.44 17.6674H8.12317V17.753H145.44V17.6674Z" fill="#959494"/>
<path d="M145.44 17.5819H8.12317V17.6674H145.44V17.5819Z" fill="#969595"/>
<path d="M145.44 17.4963H8.12317V17.5819H145.44V17.4963Z" fill="#979696"/>
<path d="M145.44 17.4108H8.12317V17.4963H145.44V17.4108Z" fill="#989797"/>
<path d="M145.44 17.3252H8.12317V17.4108H145.44V17.3252Z" fill="#999898"/>
<path d="M145.44 17.2397H8.12317V17.3252H145.44V17.2397Z" fill="#9A9999"/>
<path d="M145.44 17.1541H8.12317V17.2397H145.44V17.1541Z" fill="#9B9A9A"/>
<path d="M145.44 17.0685H8.12317V17.1541H145.44V17.0685Z" fill="#9C9B9B"/>
<path d="M145.44 16.983H8.12317V17.0685H145.44V16.983Z" fill="#9D9C9C"/>
<path d="M145.44 16.8974H8.12317V16.983H145.44V16.8974Z" fill="#9E9D9D"/>
<path d="M145.44 16.8119H8.12317V16.8974H145.44V16.8119Z" fill="#9F9D9E"/>
<path d="M145.44 16.7263H8.12317V16.8119H145.44V16.7263Z" fill="#A09E9F"/>
<path d="M145.44 16.6408H8.12317V16.7263H145.44V16.6408Z" fill="#A19FA0"/>
<path d="M145.44 16.5552H8.12317V16.6408H145.44V16.5552Z" fill="#A2A0A1"/>
<path d="M145.44 16.4697H8.12317V16.5552H145.44V16.4697Z" fill="#A3A1A2"/>
<path d="M145.44 16.3841H8.12317V16.4697H145.44V16.3841Z" fill="#A4A2A3"/>
<path d="M145.44 16.2985H8.12317V16.3841H145.44V16.2985Z" fill="#A5A3A4"/>
<path d="M145.44 16.213H8.12317V16.2985H145.44V16.213Z" fill="#A6A4A5"/>
<path d="M145.44 16.1274H8.12317V16.213H145.44V16.1274Z" fill="#A7A5A6"/>
<path d="M145.44 16.0419H8.12317V16.1274H145.44V16.0419Z" fill="#A8A6A7"/>
<path d="M145.44 15.9563H8.12317V16.0419H145.44V15.9563Z" fill="#A9A7A8"/>
<path d="M145.44 15.8707H8.12317V15.9563H145.44V15.8707Z" fill="#AAA8A8"/>
<path d="M145.44 15.7899H8.12317V15.8755H145.44V15.7899Z" fill="#ABA9A9"/>
<path d="M145.44 15.7044H8.12317V15.7899H145.44V15.7044Z" fill="#ACAAAA"/>
<path d="M145.44 15.6188H8.12317V15.7044H145.44V15.6188Z" fill="#ADABAB"/>
<path d="M145.44 15.5333H8.12317V15.6188H145.44V15.5333Z" fill="#AEACAC"/>
<path d="M145.44 15.4477H8.12317V15.5333H145.44V15.4477Z" fill="#AFADAD"/>
<path d="M145.44 15.3622H8.12317V15.4477H145.44V15.3622Z" fill="#B0AEAE"/>
<path d="M145.44 15.2766H8.12317V15.3622H145.44V15.2766Z" fill="#B1AFB0"/>
<path d="M145.44 15.1911H8.12317V15.2766H145.44V15.1911Z" fill="#B2B0B1"/>
<path d="M145.44 15.1055H8.12317V15.1911H145.44V15.1055Z" fill="#B3B1B2"/>
<path d="M145.44 15.0199H8.12317V15.1055H145.44V15.0199Z" fill="#B4B2B3"/>
<path d="M145.44 14.9344H8.12317V15.0199H145.44V14.9344Z" fill="#B5B3B4"/>
<path d="M145.44 14.8488H8.12317V14.9344H145.44V14.8488Z" fill="#B6B4B5"/>
<path d="M145.44 14.7633H8.12317V14.8488H145.44V14.7633Z" fill="#B7B5B6"/>
<path d="M145.44 14.6777H8.12317V14.7633H145.44V14.6777Z" fill="#B8B6B7"/>
<path d="M145.44 14.5921H8.12317V14.6777H145.44V14.5921Z" fill="#B9B7B8"/>
<path d="M145.44 14.5066H8.12317V14.5921H145.44V14.5066Z" fill="#BAB8B9"/>
<path d="M145.44 14.421H8.12317V14.5066H145.44V14.421Z" fill="#BBB9BA"/>
<path d="M145.44 14.3355H8.12317V14.421H145.44V14.3355Z" fill="#BCBABB"/>
<path d="M145.44 14.2499H8.12317V14.3355H145.44V14.2499Z" fill="#BDBBBC"/>
<path d="M145.44 14.1644H8.12317V14.2499H145.44V14.1644Z" fill="#BEBCBD"/>
<path d="M145.44 14.0788H8.12317V14.1644H145.44V14.0788Z" fill="#BFBDBE"/>
<path d="M145.44 13.9933H8.12317V14.0788H145.44V13.9933Z" fill="#C0BEBF"/>
<path d="M145.44 13.9077H8.12317V13.9933H145.44V13.9077Z" fill="#C1BFC0"/>
<path d="M145.44 13.8221H8.12317V13.9077H145.44V13.8221Z" fill="#C2C0C1"/>
<path d="M145.44 13.7366H8.12317V13.8221H145.44V13.7366Z" fill="#C3C1C2"/>
<path d="M145.44 13.651H8.12317V13.7366H145.44V13.651Z" fill="#C4C2C3"/>
<path d="M145.44 13.5655H8.12317V13.651H145.44V13.5655Z" fill="#C5C3C4"/>
<path d="M145.44 13.4799H8.12317V13.5655H145.44V13.4799Z" fill="#C6C4C5"/>
<path d="M145.44 13.3944H8.12317V13.4799H145.44V13.3944Z" fill="#C7C5C6"/>
<path d="M145.44 13.3088H8.12317V13.3944H145.44V13.3088Z" fill="#C8C6C7"/>
<path d="M145.44 13.2233H8.12317V13.3088H145.44V13.2233Z" fill="#C9C7C8"/>
<path d="M145.44 13.1377H8.12317V13.2233H145.44V13.1377Z" fill="#CAC9C9"/>
<path d="M145.44 13.0569H8.12317V13.1424H145.44V13.0569Z" fill="#CBCACA"/>
<path d="M145.44 12.9713H8.12317V13.0569H145.44V12.9713Z" fill="#CDCBCB"/>
<path d="M145.44 12.8858H8.12317V12.9713H145.44V12.8858Z" fill="#CECCCC"/>
<path d="M145.44 12.8002H8.12317V12.8858H145.44V12.8002Z" fill="#CFCDCD"/>
<path d="M145.44 12.7147H8.12317V12.8002H145.44V12.7147Z" fill="#D0CECE"/>
<path d="M145.44 12.6291H8.12317V12.7147H145.44V12.6291Z" fill="#D1CFD0"/>
<path d="M145.44 12.5435H8.12317V12.6291H145.44V12.5435Z" fill="#D2D0D1"/>
<path d="M145.44 12.458H8.12317V12.5435H145.44V12.458Z" fill="#D3D1D2"/>
<path d="M145.44 12.3724H8.12317V12.458H145.44V12.3724Z" fill="#D4D2D3"/>
<path d="M145.44 12.2869H8.12317V12.3724H145.44V12.2869Z" fill="#D5D3D4"/>
<path d="M145.44 12.2013H8.12317V12.2869H145.44V12.2013Z" fill="#D6D4D5"/>
<path d="M145.44 12.1158H8.12317V12.2013H145.44V12.1158Z" fill="#D7D5D6"/>
<path d="M145.44 12.0302H8.12317V12.1158H145.44V12.0302Z" fill="#D8D7D7"/>
<path d="M145.44 11.9447H8.12317V12.0302H145.44V11.9447Z" fill="#D9D8D8"/>
<path d="M145.44 11.8591H8.12317V11.9447H145.44V11.8591Z" fill="#DAD9D9"/>
<path d="M145.44 11.7735H8.12317V11.8591H145.44V11.7735Z" fill="#DCDADB"/>
<path d="M145.44 11.688H8.12317V11.7735H145.44V11.688Z" fill="#DDDBDC"/>
<path d="M145.44 11.6024H8.12317V11.688H145.44V11.6024Z" fill="#DEDCDD"/>
<path d="M145.44 11.5169H8.12317V11.6024H145.44V11.5169Z" fill="#DFDDDE"/>
<path d="M145.44 11.4313H8.12317V11.5169H145.44V11.4313Z" fill="#E0DEDF"/>
<path d="M145.44 11.3458H8.12317V11.4313H145.44V11.3458Z" fill="#E1E0E0"/>
<path d="M145.44 11.2602H8.12317V11.3457H145.44V11.2602Z" fill="#E2E1E1"/>
<path d="M145.44 11.1746H8.12317V11.2602H145.44V11.1746Z" fill="#E3E2E3"/>
<path d="M145.44 11.0891H8.12317V11.1746H145.44V11.0891Z" fill="#E4E3E4"/>
<path d="M145.44 11.0035H8.12317V11.0891H145.44V11.0035Z" fill="#E5E4E5"/>
<path d="M145.44 10.918H8.12317V11.0035H145.44V10.918Z" fill="#E6E5E6"/>
<path d="M145.44 10.8324H8.12317V10.918H145.44V10.8324Z" fill="#E8E6E7"/>
<path d="M145.44 10.7469H8.12317V10.8324H145.44V10.7469Z" fill="#E9E8E8"/>
<path d="M145.44 10.6613H8.12317V10.7469H145.44V10.6613Z" fill="#EAE9EA"/>
<path d="M145.44 10.5757H8.12317V10.6613H145.44V10.5757Z" fill="#EBEAEB"/>
<path d="M145.44 10.4902H8.12317V10.5757H145.44V10.4902Z" fill="#ECEBEC"/>
<path d="M145.44 10.4046H8.12317V10.4902H145.44V10.4046Z" fill="#EDECED"/>
<path d="M145.44 10.3238H8.12317V10.4094H145.44V10.3238Z" fill="#EEEDEE"/>
<path d="M145.44 10.2383H8.12317V10.3238H145.44V10.2383Z" fill="#F0EFEF"/>
<path d="M145.44 10.1527H8.12317V10.2383H145.44V10.1527Z" fill="#F1F0F0"/>
<path d="M145.44 10.0672H8.12317V10.1527H145.44V10.0672Z" fill="#F2F1F2"/>
<path d="M145.44 9.9816H8.12317V10.0672H145.44V9.9816Z" fill="#F3F2F3"/>
<path d="M145.44 9.89604H8.12317V9.9816H145.44V9.89604Z" fill="#F4F3F4"/>
<path d="M145.44 9.81049H8.12317V9.89604H145.44V9.81049Z" fill="#F5F5F5"/>
<path d="M145.44 9.72493H8.12317V9.81049H145.44V9.72493Z" fill="#F6F6F6"/>
<path d="M145.44 9.63937H8.12317V9.72493H145.44V9.63937Z" fill="#F7F7F7"/>
<path d="M145.44 9.55382H8.12317V9.63937H145.44V9.55382Z" fill="#F9F8F9"/>
<path d="M145.44 9.46826H8.12317V9.55382H145.44V9.46826Z" fill="#FAF9FA"/>
<path d="M145.44 9.38271H8.12317V9.46826H145.44V9.38271Z" fill="#FBFBFB"/>
<path d="M145.44 9.29715H8.12317V9.38271H145.44V9.29715Z" fill="#FCFCFC"/>
<path d="M145.44 9.21159H8.12317V9.29715H145.44V9.21159Z" fill="#FDFDFD"/>
<path d="M145.44 9.12604H8.12317V9.21159H145.44V9.12604Z" fill="#FEFEFE"/>
<path d="M145.44 9.04048H8.12317V9.12604H145.44V9.04048Z" fill="white"/>
<path d="M145.44 1.73965H8.12317V9.04048H145.44V1.73965Z" fill="white"/>
</g>
</g>
<path d="M135.887 19.5497H111.858C111.132 19.5497 110.565 19.3263 110.253 18.9175C109.896 18.4517 109.907 17.7815 110.287 17.078L118.529 1.87274H143.12C143.846 1.87274 144.425 2.10089 144.737 2.51442C145.094 2.98498 145.077 3.65042 144.691 4.34438L135.893 19.5497H135.887ZM118.535 1.8775L110.293 17.078C109.913 17.7768 109.901 18.447 110.259 18.9128C110.571 19.3168 111.138 19.5402 111.858 19.5402H135.887L144.686 4.33962C145.071 3.64566 145.088 2.98498 144.731 2.51442C144.419 2.10565 143.846 1.8775 143.12 1.8775H118.535ZM90.1548 19.5449L89.9903 7.09169L82.9676 19.5449H75.1111L82.684 5.17618C83.1889 4.08295 83.9263 3.25115 84.8623 2.69979C85.8039 2.14842 86.9782 1.87274 88.3509 1.86799H98.3234L98.4879 14.1881L105.346 1.86799L113.032 1.73015L104.943 15.9468C104.41 17.3347 103.514 18.2853 102.203 18.8415C100.944 19.3786 99.4522 19.4974 98.1532 19.5402H90.1435L90.1548 19.5449ZM90.1548 19.5402H98.1646C99.4636 19.4974 100.955 19.3833 102.209 18.8462C103.514 18.2901 104.41 17.3395 104.943 15.9516L113.032 1.73965L105.357 1.8775L98.4879 14.2119V14.2024L98.3234 1.8775H88.3566C86.9838 1.8775 85.8096 2.16268 84.868 2.7093C83.9263 3.25591 83.1945 4.08771 82.6897 5.18093L75.1167 19.5402H82.9563L89.9903 7.06793V7.07743L90.1548 19.5354V19.5402ZM69.5803 19.5449H62.8129L64.8266 15.9943H51.4166C50.9855 16.7976 50.543 17.6104 50.1119 18.3994C49.902 18.7797 49.6978 19.1647 49.4879 19.5449H45.5511C44.825 19.5449 44.2577 19.3215 43.9458 18.9128C43.5884 18.447 43.5997 17.7768 43.9798 17.0733L52.2221 1.86799H76.8129C77.5446 1.86799 78.1175 2.09614 78.4295 2.50966C78.7869 2.98023 78.7699 3.64566 78.3842 4.33962L69.5803 19.5449ZM62.8185 19.5402H69.5746L78.3728 4.33962C78.7586 3.64566 78.7756 2.98498 78.4182 2.51442C78.1062 2.10089 77.5333 1.8775 76.8072 1.8775H52.2221L43.9798 17.078C43.5997 17.7768 43.5884 18.447 43.9458 18.9128C44.2577 19.3168 44.825 19.5402 45.5454 19.5402H49.4822C49.6921 19.1599 49.8963 18.7749 50.1062 18.3947C50.5373 17.6056 50.9798 16.7929 51.4109 15.9896H64.838L62.8242 19.5402H62.8185ZM23.1556 19.5449L22.9911 7.09169L15.9684 19.5449H8.11755L15.6905 5.17618C16.1953 4.08295 16.9328 3.25115 17.8688 2.69979C18.8104 2.14842 19.9847 1.87274 21.3574 1.86799H31.3299L31.4944 14.1881L38.3526 1.86799L46.0389 1.73015L37.9498 15.9468C37.4166 17.3347 36.5203 18.2853 35.2099 18.8415C33.9506 19.3786 32.4587 19.4974 31.1597 19.5402H23.15L23.1556 19.5449ZM23.1556 19.5402H31.1654C32.4644 19.4974 33.9563 19.3833 35.2156 18.8462C36.5203 18.2901 37.4166 17.3395 37.9498 15.9516L46.0389 1.73965L38.3639 1.8775L31.4944 14.2119V14.2024L31.3299 1.8775H21.3631C19.9903 1.8775 18.8161 2.16268 17.8744 2.7093C16.9328 3.25591 16.201 4.08771 15.6962 5.18093L8.12323 19.5402H15.9628L22.9968 7.06793V7.07743L23.1613 19.5354L23.1556 19.5402ZM131.985 14.3355H118.586L122.523 7.07743H136.182L131.99 14.3355H131.985ZM118.597 14.3307H131.979L136.171 7.08694H122.528L118.597 14.3307ZM67.2942 11.6357H53.7537C53.9749 11.2222 54.1962 10.8182 54.4174 10.4094C55.0073 9.32092 55.6143 8.19442 56.2156 7.08219H69.8753L67.2942 11.6357ZM53.765 11.6309H67.2942L69.8696 7.08694H56.227C55.6257 8.19918 55.0187 9.32567 54.4287 10.4141C54.2075 10.8229 53.9919 11.2269 53.7707 11.6357L53.765 11.6309Z" fill="#1F1A17"/>
<mask id="mask4_206_3370" style="mask-type:luminance" maskUnits="userSpaceOnUse" x="0" y="25" width="42" height="6">
<path d="M2.37682 25.6052H41.7504L39.3679 30.6102H0" fill="white"/>
</mask>
<g mask="url(#mask4_206_3370)">
<mask id="mask5_206_3370" style="mask-type:luminance" maskUnits="userSpaceOnUse" x="0" y="25" width="42" height="6">
<path d="M41.7504 25.6052H0V30.6102H41.7504V25.6052Z" fill="white"/>
</mask>
<g mask="url(#mask5_206_3370)">
<path d="M0.170178 25.6052H0V30.6102H0.170178V25.6052Z" fill="white"/>
<path d="M0.340344 25.6052H0.170166V30.6102H0.340344V25.6052Z" fill="#FEFEFE"/>
<path d="M0.51051 25.6052H0.340332V30.6102H0.51051V25.6052Z" fill="#FCFCFC"/>
<path d="M0.675061 25.6052H0.504883V30.6102H0.675061V25.6052Z" fill="#FBFBFB"/>
<path d="M0.845227 25.6052H0.675049V30.6102H0.845227V25.6052Z" fill="#F9F9FA"/>
<path d="M1.01539 25.6052H0.845215V30.6102H1.01539V25.6052Z" fill="#F8F7F8"/>
<path d="M1.18556 25.6052H1.01538V30.6102H1.18556V25.6052Z" fill="#F6F6F7"/>
<path d="M1.35573 25.6052H1.18555V30.6102H1.35573V25.6052Z" fill="#F5F4F5"/>
<path d="M1.52028 25.6052H1.3501V30.6102H1.52028V25.6052Z" fill="#F3F3F4"/>
<path d="M1.69044 25.6052H1.52026V30.6102H1.69044V25.6052Z" fill="#F2F1F2"/>
<path d="M1.86061 25.6052H1.69043V30.6102H1.86061V25.6052Z" fill="#F0F0F1"/>
<path d="M2.03077 25.6052H1.8606V30.6102H2.03077V25.6052Z" fill="#EFEEEF"/>
<path d="M2.20094 25.6052H2.03076V30.6102H2.20094V25.6052Z" fill="#EDECEE"/>
<path d="M2.36549 25.6052H2.19531V30.6102H2.36549V25.6052Z" fill="#ECEBED"/>
<path d="M2.53566 25.6052H2.36548V30.6102H2.53566V25.6052Z" fill="#EAE9EB"/>
<path d="M2.70582 25.6052H2.53564V30.6102H2.70582V25.6052Z" fill="#E9E8EA"/>
<path d="M2.87599 25.6052H2.70581V30.6102H2.87599V25.6052Z" fill="#E7E6E8"/>
<path d="M3.04615 25.6052H2.87598V30.6102H3.04615V25.6052Z" fill="#E6E5E7"/>
<path d="M3.21071 25.6052H3.04053V30.6102H3.21071V25.6052Z" fill="#E4E3E5"/>
<path d="M3.38087 25.6052H3.21069V30.6102H3.38087V25.6052Z" fill="#E3E2E4"/>
<path d="M3.55104 25.6052H3.38086V30.6102H3.55104V25.6052Z" fill="#E2E0E2"/>
<path d="M3.7212 25.6052H3.55103V30.6102H3.7212V25.6052Z" fill="#E0DFE1"/>
<path d="M3.89137 25.6052H3.72119V30.6102H3.89137V25.6052Z" fill="#DFDDE0"/>
<path d="M4.05592 25.6052H3.88574V30.6102H4.05592V25.6052Z" fill="#DDDCDE"/>
<path d="M4.22609 25.6052H4.05591V30.6102H4.22609V25.6052Z" fill="#DCDADD"/>
<path d="M4.39625 25.6052H4.22607V30.6102H4.39625V25.6052Z" fill="#DAD9DB"/>
<path d="M4.56642 25.6052H4.39624V30.6102H4.56642V25.6052Z" fill="#D9D7DA"/>
<path d="M4.73097 25.6052H4.56079V30.6102H4.73097V25.6052Z" fill="#D7D6D9"/>
<path d="M4.90114 25.6052H4.73096V30.6102H4.90114V25.6052Z" fill="#D6D4D7"/>
<path d="M5.0713 25.6052H4.90112V30.6102H5.0713V25.6052Z" fill="#D5D3D6"/>
<path d="M5.24147 25.6052H5.07129V30.6102H5.24147V25.6052Z" fill="#D3D1D4"/>
<path d="M5.41163 25.6052H5.24146V30.6102H5.41163V25.6052Z" fill="#D2D0D3"/>
<path d="M5.57618 25.6052H5.40601V30.6102H5.57618V25.6052Z" fill="#D0CFD2"/>
<path d="M5.74635 25.6052H5.57617V30.6102H5.74635V25.6052Z" fill="#CFCDD0"/>
<path d="M5.91652 25.6052H5.74634V30.6102H5.91652V25.6052Z" fill="#CECCCF"/>
<path d="M6.08668 25.6052H5.9165V30.6102H6.08668V25.6052Z" fill="#CCCACE"/>
<path d="M6.25685 25.6052H6.08667V30.6102H6.25685V25.6052Z" fill="#CBC9CC"/>
<path d="M6.4214 25.6052H6.25122V30.6102H6.4214V25.6052Z" fill="#CAC8CB"/>
<path d="M6.59157 25.6052H6.42139V30.6102H6.59157V25.6052Z" fill="#C8C6CA"/>
<path d="M6.76173 25.6052H6.59155V30.6102H6.76173V25.6052Z" fill="#C7C5C8"/>
<path d="M6.9319 25.6052H6.76172V30.6102H6.9319V25.6052Z" fill="#C6C4C7"/>
<path d="M7.10206 25.6052H6.93188V30.6102H7.10206V25.6052Z" fill="#C4C2C6"/>
<path d="M7.26661 25.6052H7.09644V30.6102H7.26661V25.6052Z" fill="#C3C1C4"/>
<path d="M7.43678 25.6052H7.2666V30.6102H7.43678V25.6052Z" fill="#C2C0C3"/>
<path d="M7.60695 25.6052H7.43677V30.6102H7.60695V25.6052Z" fill="#C0BEC2"/>
<path d="M7.77711 25.6052H7.60693V30.6102H7.77711V25.6052Z" fill="#BFBDC0"/>
<path d="M7.94728 25.6052H7.7771V30.6102H7.94728V25.6052Z" fill="#BEBBBF"/>
<path d="M8.11183 25.6052H7.94165V30.6102H8.11183V25.6052Z" fill="#BCBABE"/>
<path d="M8.28199 25.6052H8.11182V30.6102H8.28199V25.6052Z" fill="#BBB9BD"/>
<path d="M8.45216 25.6052H8.28198V30.6102H8.45216V25.6052Z" fill="#BAB7BB"/>
<path d="M8.62233 25.6052H8.45215V30.6102H8.62233V25.6052Z" fill="#B8B6BA"/>
<path d="M8.79249 25.6052H8.62231V30.6102H8.79249V25.6052Z" fill="#B7B5B9"/>
<path d="M8.95704 25.6052H8.78687V30.6102H8.95704V25.6052Z" fill="#B6B4B7"/>
<path d="M9.12721 25.6052H8.95703V30.6102H9.12721V25.6052Z" fill="#B5B2B6"/>
<path d="M9.29738 25.6052H9.1272V30.6102H9.29738V25.6052Z" fill="#B3B1B5"/>
<path d="M9.46754 25.6052H9.29736V30.6102H9.46754V25.6052Z" fill="#B2B0B4"/>
<path d="M9.63771 25.6052H9.46753V30.6102H9.63771V25.6052Z" fill="#B1AEB2"/>
<path d="M9.80226 25.6052H9.63208V30.6102H9.80226V25.6052Z" fill="#AFADB1"/>
<path d="M9.97242 25.6052H9.80225V30.6102H9.97242V25.6052Z" fill="#AEACB0"/>
<path d="M10.1426 25.6052H9.97241V30.6102H10.1426V25.6052Z" fill="#ADAAAF"/>
<path d="M10.3128 25.6052H10.1426V30.6102H10.3128V25.6052Z" fill="#ACA9AD"/>
<path d="M10.4829 25.6052H10.3127V30.6102H10.4829V25.6052Z" fill="#AAA8AC"/>
<path d="M10.6475 25.6052H10.4773V30.6102H10.6475V25.6052Z" fill="#A9A6AB"/>
<path d="M10.8176 25.6052H10.6475V30.6102H10.8176V25.6052Z" fill="#A8A5AA"/>
<path d="M10.9878 25.6052H10.8176V30.6102H10.9878V25.6052Z" fill="#A7A4A8"/>
<path d="M11.158 25.6052H10.9878V30.6102H11.158V25.6052Z" fill="#A5A3A7"/>
<path d="M11.3283 25.6052H11.1581V30.6102H11.3283V25.6052Z" fill="#A4A1A6"/>
<path d="M11.4927 25.6052H11.3225V30.6102H11.4927V25.6052Z" fill="#A3A0A5"/>
<path d="M11.6629 25.6052H11.4927V30.6102H11.6629V25.6052Z" fill="#A29FA3"/>
<path d="M11.833 25.6052H11.6628V30.6102H11.833V25.6052Z" fill="#A09EA2"/>
<path d="M12.0032 25.6052H11.833V30.6102H12.0032V25.6052Z" fill="#9F9CA1"/>
<path d="M12.1735 25.6052H12.0033V30.6102H12.1735V25.6052Z" fill="#9E9BA0"/>
<path d="M12.3379 25.6052H12.1677V30.6102H12.3379V25.6052Z" fill="#9D9A9F"/>
<path d="M12.5081 25.6052H12.3379V30.6102H12.5081V25.6052Z" fill="#9C999D"/>
<path d="M12.6782 25.6052H12.5081V30.6102H12.6782V25.6052Z" fill="#9A979C"/>
<path d="M12.8484 25.6052H12.6782V30.6102H12.8484V25.6052Z" fill="#99969B"/>
<path d="M13.013 25.6052H12.8428V30.6102H13.013V25.6052Z" fill="#98959A"/>
<path d="M13.1831 25.6052H13.0129V30.6102H13.1831V25.6052Z" fill="#979499"/>
<path d="M13.3533 25.6052H13.1831V30.6102H13.3533V25.6052Z" fill="#969398"/>
<path d="M13.5234 25.6052H13.3533V30.6102H13.5234V25.6052Z" fill="#949196"/>
<path d="M13.6937 25.6052H13.5236V30.6102H13.6937V25.6052Z" fill="#939095"/>
<path d="M13.8582 25.6052H13.688V30.6102H13.8582V25.6052Z" fill="#928F94"/>
<path d="M14.0283 25.6052H13.8582V30.6102H14.0283V25.6052Z" fill="#918E93"/>
<path d="M14.1985 25.6052H14.0283V30.6102H14.1985V25.6052Z" fill="#908D92"/>
<path d="M14.3687 25.6052H14.1985V30.6102H14.3687V25.6052Z" fill="#8E8B91"/>
<path d="M14.539 25.6052H14.3688V30.6102H14.539V25.6052Z" fill="#8D8A8F"/>
<path d="M14.7034 25.6052H14.5332V30.6102H14.7034V25.6052Z" fill="#8C898E"/>
<path d="M14.8735 25.6052H14.7034V30.6102H14.8735V25.6052Z" fill="#8B888D"/>
<path d="M15.0437 25.6052H14.8735V30.6102H15.0437V25.6052Z" fill="#8A878C"/>
<path d="M15.2139 25.6052H15.0437V30.6102H15.2139V25.6052Z" fill="#89868B"/>
<path d="M15.3842 25.6052H15.214V30.6102H15.3842V25.6052Z" fill="#87848A"/>
<path d="M15.5486 25.6052H15.3784V30.6102H15.5486V25.6052Z" fill="#868389"/>
<path d="M15.7188 25.6052H15.5486V30.6102H15.7188V25.6052Z" fill="#858288"/>
<path d="M15.8889 25.6052H15.7188V30.6102H15.8889V25.6052Z" fill="#848186"/>
<path d="M16.0592 25.6052H15.889V30.6102H16.0592V25.6052Z" fill="#838085"/>
<path d="M16.2294 25.6052H16.0592V30.6102H16.2294V25.6052Z" fill="#827F84"/>
<path d="M16.3938 25.6052H16.2236V30.6102H16.3938V25.6052Z" fill="#817E83"/>
<path d="M16.564 25.6052H16.3938V30.6102H16.564V25.6052Z" fill="#7F7D82"/>
<path d="M16.7341 25.6052H16.564V30.6102H16.7341V25.6052Z" fill="#7E7B81"/>
<path d="M16.9044 25.6052H16.7343V30.6102H16.9044V25.6052Z" fill="#7D7A80"/>
<path d="M17.0746 25.6052H16.9044V30.6102H17.0746V25.6052Z" fill="#7C797F"/>
<path d="M17.239 25.6052H17.0688V30.6102H17.239V25.6052Z" fill="#7B787E"/>
<path d="M17.4092 25.6052H17.239V30.6102H17.4092V25.6052Z" fill="#7A777D"/>
<path d="M17.5794 25.6052H17.4092V30.6102H17.5794V25.6052Z" fill="#79767C"/>
<path d="M17.7496 25.6052H17.5795V30.6102H17.7496V25.6052Z" fill="#78757A"/>
<path d="M17.9198 25.6052H17.7496V30.6102H17.9198V25.6052Z" fill="#777479"/>
<path d="M18.0842 25.6052H17.9141V30.6102H18.0842V25.6052Z" fill="#757378"/>
<path d="M18.2544 25.6052H18.0842V30.6102H18.2544V25.6052Z" fill="#747277"/>
<path d="M18.4247 25.6052H18.2545V30.6102H18.4247V25.6052Z" fill="#737176"/>
<path d="M18.5949 25.6052H18.4247V30.6102H18.5949V25.6052Z" fill="#727075"/>
<path d="M18.765 25.6052H18.5948V30.6102H18.765V25.6052Z" fill="#716F74"/>
<path d="M18.9295 25.6052H18.7593V30.6102H18.9295V25.6052Z" fill="#706D73"/>
<path d="M19.0996 25.6052H18.9294V30.6102H19.0996V25.6052Z" fill="#6F6C72"/>
<path d="M19.2699 25.6052H19.0997V30.6102H19.2699V25.6052Z" fill="#6E6B71"/>
<path d="M19.4401 25.6052H19.2699V30.6102H19.4401V25.6052Z" fill="#6D6A70"/>
<path d="M19.6102 25.6052H19.4401V30.6102H19.6102V25.6052Z" fill="#6C696F"/>
<path d="M19.7747 25.6052H19.6045V30.6102H19.7747V25.6052Z" fill="#6B686E"/>
<path d="M19.9448 25.6052H19.7747V30.6102H19.9448V25.6052Z" fill="#6A676D"/>
<path d="M20.1151 25.6052H19.9449V30.6102H20.1151V25.6052Z" fill="#69666C"/>
<path d="M20.2853 25.6052H20.1151V30.6102H20.2853V25.6052Z" fill="#68656B"/>
<path d="M20.4555 25.6052H20.2853V30.6102H20.4555V25.6052Z" fill="#67646A"/>
<path d="M20.6199 25.6052H20.4497V30.6102H20.6199V25.6052Z" fill="#666369"/>
<path d="M20.7901 25.6052H20.6199V30.6102H20.7901V25.6052Z" fill="#656268"/>
<path d="M20.9603 25.6052H20.7902V30.6102H20.9603V25.6052Z" fill="#646167"/>
<path d="M21.1305 25.6052H20.9603V30.6102H21.1305V25.6052Z" fill="#636066"/>
<path d="M21.3007 25.6052H21.1305V30.6102H21.3007V25.6052Z" fill="#625F65"/>
<path d="M21.4651 25.6052H21.2949V30.6102H21.4651V25.6052Z" fill="#615E64"/>
<path d="M21.6354 25.6052H21.4652V30.6102H21.6354V25.6052Z" fill="#605D63"/>
<path d="M21.8056 25.6052H21.6354V30.6102H21.8056V25.6052Z" fill="#5F5C62"/>
<path d="M21.9757 25.6052H21.8055V30.6102H21.9757V25.6052Z" fill="#5E5B61"/>
<path d="M22.1401 25.6052H21.97V30.6102H22.1401V25.6052Z" fill="#5D5A60"/>
<path d="M22.3103 25.6052H22.1401V30.6102H22.3103V25.6052Z" fill="#5C595F"/>
<path d="M22.4806 25.6052H22.3104V30.6102H22.4806V25.6052Z" fill="#5B585E"/>
<path d="M22.6508 25.6052H22.4806V30.6102H22.6508V25.6052Z" fill="#5A575D"/>
<path d="M22.8209 25.6052H22.6508V30.6102H22.8209V25.6052Z" fill="#59575C"/>
<path d="M22.9854 25.6052H22.8152V30.6102H22.9854V25.6052Z" fill="#58565B"/>
<path d="M23.1555 25.6052H22.9854V30.6102H23.1555V25.6052Z" fill="#57555A"/>
<path d="M23.3258 25.6052H23.1556V30.6102H23.3258V25.6052Z" fill="#565459"/>
<path d="M23.496 25.6052H23.3258V30.6102H23.496V25.6052Z" fill="#555359"/>
<path d="M23.6662 25.6052H23.496V30.6102H23.6662V25.6052Z" fill="#545258"/>
<path d="M23.8306 25.6052H23.6604V30.6102H23.8306V25.6052Z" fill="#535157"/>
<path d="M24.0009 25.6052H23.8307V30.6102H24.0009V25.6052Z" fill="#535056"/>
<path d="M24.171 25.6052H24.0009V30.6102H24.171V25.6052Z" fill="#524F55"/>
<path d="M24.3412 25.6052H24.171V30.6102H24.3412V25.6052Z" fill="#514E54"/>
<path d="M24.5114 25.6052H24.3412V30.6102H24.5114V25.6052Z" fill="#504D53"/>
<path d="M24.6758 25.6052H24.5056V30.6102H24.6758V25.6052Z" fill="#4F4D52"/>
<path d="M24.8461 25.6052H24.6759V30.6102H24.8461V25.6052Z" fill="#4E4C51"/>
<path d="M25.0162 25.6052H24.8461V30.6102H25.0162V25.6052Z" fill="#4D4B50"/>
<path d="M25.1864 25.6052H25.0162V30.6102H25.1864V25.6052Z" fill="#4C4A50"/>
<path d="M25.3566 25.6052H25.1864V30.6102H25.3566V25.6052Z" fill="#4B494F"/>
<path d="M25.521 25.6052H25.3508V30.6102H25.521V25.6052Z" fill="#4A484E"/>
<path d="M25.6913 25.6052H25.5211V30.6102H25.6913V25.6052Z" fill="#49474D"/>
<path d="M25.8615 25.6052H25.6913V30.6102H25.8615V25.6052Z" fill="#48464C"/>
<path d="M26.0316 25.6052H25.8615V30.6102H26.0316V25.6052Z" fill="#47464B"/>
<path d="M26.2018 25.6052H26.0316V30.6102H26.2018V25.6052Z" fill="#46454A"/>
<path d="M26.3663 25.6052H26.1962V30.6102H26.3663V25.6052Z" fill="#454449"/>
<path d="M26.5365 25.6052H26.3663V30.6102H26.5365V25.6052Z" fill="#454349"/>
<path d="M26.7067 25.6052H26.5365V30.6102H26.7067V25.6052Z" fill="#444248"/>
<path d="M26.8768 25.6052H26.7067V30.6102H26.8768V25.6052Z" fill="#434147"/>
<path d="M27.047 25.6052H26.8768V30.6102H27.047V25.6052Z" fill="#424046"/>
<path d="M27.2116 25.6052H27.0414V30.6102H27.2116V25.6052Z" fill="#413F45"/>
<path d="M27.3817 25.6052H27.2115V30.6102H27.3817V25.6052Z" fill="#403F44"/>
<path d="M27.5519 25.6052H27.3817V30.6102H27.5519V25.6052Z" fill="#3F3E43"/>
<path d="M27.7221 25.6052H27.5519V30.6102H27.7221V25.6052Z" fill="#3E3D43"/>
<path d="M27.8922 25.6052H27.722V30.6102H27.8922V25.6052Z" fill="#3D3C42"/>
<path d="M28.0568 25.6052H27.8866V30.6102H28.0568V25.6052Z" fill="#3C3B41"/>
<path d="M28.2269 25.6052H28.0568V30.6102H28.2269V25.6052Z" fill="#3C3A40"/>
<path d="M28.3971 25.6052H28.2269V30.6102H28.3971V25.6052Z" fill="#3B3A3F"/>
<path d="M28.5673 25.6052H28.3971V30.6102H28.5673V25.6052Z" fill="#3A393E"/>
<path d="M28.7374 25.6052H28.5673V30.6102H28.7374V25.6052Z" fill="#39383D"/>
<path d="M28.902 25.6052H28.7318V30.6102H28.902V25.6052Z" fill="#38373D"/>
<path d="M29.0722 25.6052H28.902V30.6102H29.0722V25.6052Z" fill="#37363C"/>
<path d="M29.2423 25.6052H29.0721V30.6102H29.2423V25.6052Z" fill="#36353B"/>
<path d="M29.4125 25.6052H29.2423V30.6102H29.4125V25.6052Z" fill="#36353A"/>
<path d="M29.5827 25.6052H29.4125V30.6102H29.5827V25.6052Z" fill="#353439"/>
<path d="M29.7472 25.6052H29.577V30.6102H29.7472V25.6052Z" fill="#343339"/>
<path d="M29.9174 25.6052H29.7472V30.6102H29.9174V25.6052Z" fill="#333238"/>
<path d="M30.0875 25.6052H29.9174V30.6102H30.0875V25.6052Z" fill="#323237"/>
<path d="M30.2577 25.6052H30.0875V30.6102H30.2577V25.6052Z" fill="#313136"/>
<path d="M30.4223 25.6052H30.2521V30.6102H30.4223V25.6052Z" fill="#313035"/>
<path d="M30.5924 25.6052H30.4222V30.6102H30.5924V25.6052Z" fill="#302F35"/>
<path d="M30.7626 25.6052H30.5924V30.6102H30.7626V25.6052Z" fill="#2F2E34"/>
<path d="M30.9328 25.6052H30.7626V30.6102H30.9328V25.6052Z" fill="#2E2E33"/>
<path d="M31.1029 25.6052H30.9327V30.6102H31.1029V25.6052Z" fill="#2D2D32"/>
<path d="M31.2675 25.6052H31.0973V30.6102H31.2675V25.6052Z" fill="#2D2C32"/>
<path d="M31.4376 25.6052H31.2675V30.6102H31.4376V25.6052Z" fill="#2C2B31"/>
<path d="M31.6078 25.6052H31.4376V30.6102H31.6078V25.6052Z" fill="#2B2B30"/>
<path d="M31.778 25.6052H31.6078V30.6102H31.778V25.6052Z" fill="#2A2A2F"/>
<path d="M31.9481 25.6052H31.778V30.6102H31.9481V25.6052Z" fill="#29292F"/>
<path d="M32.1127 25.6052H31.9425V30.6102H32.1127V25.6052Z" fill="#29292E"/>
<path d="M32.2828 25.6052H32.1127V30.6102H32.2828V25.6052Z" fill="#28282D"/>
<path d="M32.453 25.6052H32.2828V30.6102H32.453V25.6052Z" fill="#27272C"/>
<path d="M32.6232 25.6052H32.453V30.6102H32.6232V25.6052Z" fill="#26262C"/>
<path d="M32.7933 25.6052H32.6232V30.6102H32.7933V25.6052Z" fill="#26262B"/>
<path d="M32.9579 25.6052H32.7877V30.6102H32.9579V25.6052Z" fill="#25252A"/>
<path d="M33.1281 25.6052H32.9579V30.6102H33.1281V25.6052Z" fill="#242429"/>
<path d="M33.2982 25.6052H33.1281V30.6102H33.2982V25.6052Z" fill="#232329"/>
<path d="M33.4684 25.6052H33.2982V30.6102H33.4684V25.6052Z" fill="#232328"/>
<path d="M33.6386 25.6052H33.4684V30.6102H33.6386V25.6052Z" fill="#222227"/>
<path d="M33.8031 25.6052H33.6329V30.6102H33.8031V25.6052Z" fill="#212126"/>
<path d="M33.9733 25.6052H33.8031V30.6102H33.9733V25.6052Z" fill="#202126"/>
<path d="M34.1434 25.6052H33.9733V30.6102H34.1434V25.6052Z" fill="#202025"/>
<path d="M34.3136 25.6052H34.1434V30.6102H34.3136V25.6052Z" fill="#1F1F24"/>
<path d="M34.4838 25.6052H34.3136V30.6102H34.4838V25.6052Z" fill="#1E1F24"/>
<path d="M34.6483 25.6052H34.4781V30.6102H34.6483V25.6052Z" fill="#1E1E23"/>
<path d="M34.8185 25.6052H34.6483V30.6102H34.8185V25.6052Z" fill="#1D1D22"/>
<path d="M34.9887 25.6052H34.8185V30.6102H34.9887V25.6052Z" fill="#1C1D21"/>
<path d="M35.1588 25.6052H34.9886V30.6102H35.1588V25.6052Z" fill="#1B1C21"/>
<path d="M35.329 25.6052H35.1588V30.6102H35.329V25.6052Z" fill="#1B1B20"/>
<path d="M35.4935 25.6052H35.3234V30.6102H35.4935V25.6052Z" fill="#1A1A1F"/>
<path d="M35.6637 25.6052H35.4935V30.6102H35.6637V25.6052Z" fill="#191A1E"/>
<path d="M35.8339 25.6052H35.6637V30.6102H35.8339V25.6052Z" fill="#18191E"/>
<path d="M36.004 25.6052H35.8339V30.6102H36.004V25.6052Z" fill="#18181D"/>
<path d="M36.1742 25.6052H36.004V30.6102H36.1742V25.6052Z" fill="#17181C"/>
<path d="M36.3388 25.6052H36.1686V30.6102H36.3388V25.6052Z" fill="#16171B"/>
<path d="M36.5089 25.6052H36.3387V30.6102H36.5089V25.6052Z" fill="#15161B"/>
<path d="M36.6791 25.6052H36.5089V30.6102H36.6791V25.6052Z" fill="#15151A"/>
<path d="M36.8493 25.6052H36.6791V30.6102H36.8493V25.6052Z" fill="#141519"/>
<path d="M37.0194 25.6052H36.8492V30.6102H37.0194V25.6052Z" fill="#131418"/>
<path d="M37.184 25.6052H37.0138V30.6102H37.184V25.6052Z" fill="#121317"/>
<path d="M37.3541 25.6052H37.184V30.6102H37.3541V25.6052Z" fill="#121317"/>
<path d="M37.5243 25.6052H37.3541V30.6102H37.5243V25.6052Z" fill="#111216"/>
<path d="M37.6945 25.6052H37.5243V30.6102H37.6945V25.6052Z" fill="#101115"/>
<path d="M37.8646 25.6052H37.6945V30.6102H37.8646V25.6052Z" fill="#101014"/>
<path d="M38.0292 25.6052H37.859V30.6102H38.0292V25.6052Z" fill="#0F1014"/>
<path d="M38.1994 25.6052H38.0292V30.6102H38.1994V25.6052Z" fill="#0E0F13"/>
<path d="M38.3695 25.6052H38.1993V30.6102H38.3695V25.6052Z" fill="#0D0E12"/>
<path d="M38.5397 25.6052H38.3695V30.6102H38.5397V25.6052Z" fill="#0C0E11"/>
<path d="M38.7042 25.6052H38.5341V30.6102H38.7042V25.6052Z" fill="#0C0D10"/>
<path d="M38.8744 25.6052H38.7042V30.6102H38.8744V25.6052Z" fill="#0B0C0F"/>
<path d="M39.0446 25.6052H38.8744V30.6102H39.0446V25.6052Z" fill="#0A0B0E"/>
<path d="M39.2147 25.6052H39.0446V30.6102H39.2147V25.6052Z" fill="#090A0E"/>
<path d="M39.3849 25.6052H39.2147V30.6102H39.3849V25.6052Z" fill="#090A0D"/>
<path d="M39.5495 25.6052H39.3793V30.6102H39.5495V25.6052Z" fill="#08090C"/>
<path d="M39.7196 25.6052H39.5494V30.6102H39.7196V25.6052Z" fill="#07080B"/>
<path d="M39.8898 25.6052H39.7196V30.6102H39.8898V25.6052Z" fill="#06070A"/>
<path d="M40.06 25.6052H39.8898V30.6102H40.06V25.6052Z" fill="#060709"/>
<path d="M40.2301 25.6052H40.0599V30.6102H40.2301V25.6052Z" fill="#050608"/>
<path d="M40.3947 25.6052H40.2245V30.6102H40.3947V25.6052Z" fill="#050507"/>
<path d="M40.5648 25.6052H40.3947V30.6102H40.5648V25.6052Z" fill="#040506"/>
<path d="M40.735 25.6052H40.5648V30.6102H40.735V25.6052Z" fill="#040406"/>
<path d="M40.9052 25.6052H40.735V30.6102H40.9052V25.6052Z" fill="#030405"/>
<path d="M41.0753 25.6052H40.9052V30.6102H41.0753V25.6052Z" fill="#030304"/>
<path d="M41.2399 25.6052H41.0697V30.6102H41.2399V25.6052Z" fill="#020303"/>
<path d="M41.41 25.6052H41.2399V30.6102H41.41V25.6052Z" fill="#020202"/>
<path d="M41.5802 25.6052H41.41V30.6102H41.5802V25.6052Z" fill="#010102"/>
<path d="M41.7504 25.6052H41.5802V30.6102H41.7504V25.6052Z" fill="#010101"/>
</g>
</g>
<mask id="mask6_206_3370" style="mask-type:luminance" maskUnits="userSpaceOnUse" x="0" y="25" width="42" height="6">
<path d="M2.57533 25.8476H41.3193L39.1693 30.3678H0.425415" fill="white"/>
</mask>
<g mask="url(#mask6_206_3370)">
<mask id="mask7_206_3370" style="mask-type:luminance" maskUnits="userSpaceOnUse" x="0" y="25" width="42" height="6">
<path d="M41.3136 25.8476H0.425415V30.3678H41.3136V25.8476Z" fill="white"/>
</mask>
<g mask="url(#mask7_206_3370)">
<path d="M0.618284 25.8476H0.425415V30.3678H0.618284V25.8476Z" fill="#201A18"/>
<path d="M0.811155 25.8476H0.618286V30.3678H0.811155V25.8476Z" fill="#201B19"/>
<path d="M1.00403 25.8476H0.811157V30.3678H1.00403V25.8476Z" fill="#211C1A"/>
<path d="M1.1969 25.8476H1.00403V30.3678H1.1969V25.8476Z" fill="#221C1B"/>
<path d="M1.38977 25.8476H1.1969V30.3678H1.38977V25.8476Z" fill="#231D1B"/>
<path d="M1.58264 25.8476H1.38977V30.3678H1.58264V25.8476Z" fill="#231E1C"/>
<path d="M1.77551 25.8476H1.58264V30.3678H1.77551V25.8476Z" fill="#241E1D"/>
<path d="M1.96838 25.8476H1.77551V30.3678H1.96838V25.8476Z" fill="#251F1E"/>
<path d="M2.16125 25.8476H1.96838V30.3678H2.16125V25.8476Z" fill="#26201E"/>
<path d="M2.35412 25.8476H2.16125V30.3678H2.35412V25.8476Z" fill="#26201F"/>
<path d="M2.54699 25.8476H2.35413V30.3678H2.54699V25.8476Z" fill="#272120"/>
<path d="M2.73987 25.8476H2.547V30.3678H2.73987V25.8476Z" fill="#282220"/>
<path d="M2.93274 25.8476H2.73987V30.3678H2.93274V25.8476Z" fill="#292321"/>
<path d="M3.12561 25.8476H2.93274V30.3678H3.12561V25.8476Z" fill="#292322"/>
<path d="M3.31848 25.8476H3.12561V30.3678H3.31848V25.8476Z" fill="#2A2423"/>
<path d="M3.51135 25.8476H3.31848V30.3678H3.51135V25.8476Z" fill="#2B2523"/>
<path d="M3.70422 25.8476H3.51135V30.3678H3.70422V25.8476Z" fill="#2C2524"/>
<path d="M3.89709 25.8476H3.70422V30.3678H3.89709V25.8476Z" fill="#2C2625"/>
<path d="M4.08996 25.8476H3.89709V30.3678H4.08996V25.8476Z" fill="#2D2725"/>
<path d="M4.28283 25.8476H4.08997V30.3678H4.28283V25.8476Z" fill="#2E2726"/>
<path d="M4.47571 25.8476H4.28284V30.3678H4.47571V25.8476Z" fill="#2F2827"/>
<path d="M4.66858 25.8476H4.47571V30.3678H4.66858V25.8476Z" fill="#2F2928"/>
<path d="M4.86145 25.8476H4.66858V30.3678H4.86145V25.8476Z" fill="#302A28"/>
<path d="M5.05432 25.8476H4.86145V30.3678H5.05432V25.8476Z" fill="#312A29"/>
<path d="M5.24719 25.8476H5.05432V30.3678H5.24719V25.8476Z" fill="#322B2A"/>
<path d="M5.44006 25.8476H5.24719V30.3678H5.44006V25.8476Z" fill="#322C2B"/>
<path d="M5.63281 25.8476H5.43994V30.3678H5.63281V25.8476Z" fill="#332D2B"/>
<path d="M5.82568 25.8476H5.63281V30.3678H5.82568V25.8476Z" fill="#342D2C"/>
<path d="M6.01855 25.8476H5.82568V30.3678H6.01855V25.8476Z" fill="#352E2D"/>
<path d="M6.21142 25.8476H6.01855V30.3678H6.21142V25.8476Z" fill="#362F2E"/>
<path d="M6.40429 25.8476H6.21143V30.3678H6.40429V25.8476Z" fill="#36302E"/>
<path d="M6.59717 25.8476H6.4043V30.3678H6.59717V25.8476Z" fill="#37302F"/>
<path d="M6.79004 25.8476H6.59717V30.3678H6.79004V25.8476Z" fill="#383130"/>
<path d="M6.98291 25.8476H6.79004V30.3678H6.98291V25.8476Z" fill="#393231"/>
<path d="M7.17578 25.8476H6.98291V30.3678H7.17578V25.8476Z" fill="#3A3331"/>
<path d="M7.36865 25.8476H7.17578V30.3678H7.36865V25.8476Z" fill="#3B3332"/>
<path d="M7.56152 25.8476H7.36865V30.3678H7.56152V25.8476Z" fill="#3B3433"/>
<path d="M7.75439 25.8476H7.56152V30.3678H7.75439V25.8476Z" fill="#3C3534"/>
<path d="M7.94726 25.8476H7.75439V30.3678H7.94726V25.8476Z" fill="#3D3635"/>
<path d="M8.14013 25.8476H7.94727V30.3678H8.14013V25.8476Z" fill="#3E3735"/>
<path d="M8.333 25.8476H8.14014V30.3678H8.333V25.8476Z" fill="#3F3736"/>
<path d="M8.52588 25.8476H8.33301V30.3678H8.52588V25.8476Z" fill="#403837"/>
<path d="M8.71875 25.8476H8.52588V30.3678H8.71875V25.8476Z" fill="#403938"/>
<path d="M8.91162 25.8476H8.71875V30.3678H8.91162V25.8476Z" fill="#413A39"/>
<path d="M9.10449 25.8476H8.91162V30.3678H9.10449V25.8476Z" fill="#423B3A"/>
<path d="M9.29736 25.8476H9.10449V30.3678H9.29736V25.8476Z" fill="#433C3A"/>
<path d="M9.49023 25.8476H9.29736V30.3678H9.49023V25.8476Z" fill="#443C3B"/>
<path d="M9.6831 25.8476H9.49023V30.3678H9.6831V25.8476Z" fill="#453D3C"/>
<path d="M9.87597 25.8476H9.68311V30.3678H9.87597V25.8476Z" fill="#463E3D"/>
<path d="M10.0688 25.8476H9.87598V30.3678H10.0688V25.8476Z" fill="#473F3E"/>
<path d="M10.2617 25.8476H10.0688V30.3678H10.2617V25.8476Z" fill="#48403F"/>
<path d="M10.4546 25.8476H10.2617V30.3678H10.4546V25.8476Z" fill="#48413F"/>
<path d="M10.6475 25.8476H10.4546V30.3678H10.6475V25.8476Z" fill="#494240"/>
<path d="M10.8403 25.8476H10.6475V30.3678H10.8403V25.8476Z" fill="#4A4241"/>
<path d="M11.0332 25.8476H10.8403V30.3678H11.0332V25.8476Z" fill="#4B4342"/>
<path d="M11.2261 25.8476H11.0332V30.3678H11.2261V25.8476Z" fill="#4C4443"/>
<path d="M11.4189 25.8476H11.2261V30.3678H11.4189V25.8476Z" fill="#4D4544"/>
<path d="M11.6118 25.8476H11.4189V30.3678H11.6118V25.8476Z" fill="#4E4645"/>
<path d="M11.8047 25.8476H11.6118V30.3678H11.8047V25.8476Z" fill="#4F4746"/>
<path d="M11.9976 25.8476H11.8047V30.3678H11.9976V25.8476Z" fill="#4F4846"/>
<path d="M12.1904 25.8476H11.9976V30.3678H12.1904V25.8476Z" fill="#504947"/>
<path d="M12.3833 25.8476H12.1904V30.3678H12.3833V25.8476Z" fill="#514948"/>
<path d="M12.5762 25.8476H12.3833V30.3678H12.5762V25.8476Z" fill="#524A49"/>
<path d="M12.769 25.8476H12.5762V30.3678H12.769V25.8476Z" fill="#534B4A"/>
<path d="M12.9619 25.8476H12.769V30.3678H12.9619V25.8476Z" fill="#544C4B"/>
<path d="M13.1548 25.8476H12.9619V30.3678H13.1548V25.8476Z" fill="#554D4C"/>
<path d="M13.3477 25.8476H13.1548V30.3678H13.3477V25.8476Z" fill="#564E4D"/>
<path d="M13.5405 25.8476H13.3477V30.3678H13.5405V25.8476Z" fill="#574F4E"/>
<path d="M13.7334 25.8476H13.5405V30.3678H13.7334V25.8476Z" fill="#58504E"/>
<path d="M13.9263 25.8476H13.7334V30.3678H13.9263V25.8476Z" fill="#58514F"/>
<path d="M14.1191 25.8476H13.9263V30.3678H14.1191V25.8476Z" fill="#595150"/>
<path d="M14.312 25.8476H14.1191V30.3678H14.312V25.8476Z" fill="#5A5251"/>
<path d="M14.5049 25.8476H14.312V30.3678H14.5049V25.8476Z" fill="#5B5352"/>
<path d="M14.6978 25.8476H14.5049V30.3678H14.6978V25.8476Z" fill="#5C5453"/>
<path d="M14.8906 25.8476H14.6978V30.3678H14.8906V25.8476Z" fill="#5D5554"/>
<path d="M15.0835 25.8476H14.8906V30.3678H15.0835V25.8476Z" fill="#5E5655"/>
<path d="M15.2764 25.8476H15.0835V30.3678H15.2764V25.8476Z" fill="#5F5756"/>
<path d="M15.4692 25.8476H15.2764V30.3678H15.4692V25.8476Z" fill="#605857"/>
<path d="M15.662 25.8476H15.4691V30.3678H15.662V25.8476Z" fill="#615958"/>
<path d="M15.8606 25.8476H15.6677V30.3678H15.8606V25.8476Z" fill="#625A59"/>
<path d="M16.0535 25.8476H15.8606V30.3678H16.0535V25.8476Z" fill="#625B5A"/>
<path d="M16.2463 25.8476H16.0535V30.3678H16.2463V25.8476Z" fill="#635C5B"/>
<path d="M16.4392 25.8476H16.2463V30.3678H16.4392V25.8476Z" fill="#645C5B"/>
<path d="M16.6321 25.8476H16.4392V30.3678H16.6321V25.8476Z" fill="#655D5C"/>
<path d="M16.8249 25.8476H16.6321V30.3678H16.8249V25.8476Z" fill="#665E5D"/>
<path d="M17.0178 25.8476H16.825V30.3678H17.0178V25.8476Z" fill="#675F5E"/>
<path d="M17.2107 25.8476H17.0178V30.3678H17.2107V25.8476Z" fill="#68605F"/>
<path d="M17.4036 25.8476H17.2107V30.3678H17.4036V25.8476Z" fill="#696160"/>
<path d="M17.5964 25.8476H17.4036V30.3678H17.5964V25.8476Z" fill="#6A6261"/>
<path d="M17.7893 25.8476H17.5964V30.3678H17.7893V25.8476Z" fill="#6B6362"/>
<path d="M17.9822 25.8476H17.7893V30.3678H17.9822V25.8476Z" fill="#6C6463"/>
<path d="M18.175 25.8476H17.9822V30.3678H18.175V25.8476Z" fill="#6D6564"/>
<path d="M18.3679 25.8476H18.175V30.3678H18.3679V25.8476Z" fill="#6E6665"/>
<path d="M18.5608 25.8476H18.3679V30.3678H18.5608V25.8476Z" fill="#6F6766"/>
<path d="M18.7537 25.8476H18.5608V30.3678H18.7537V25.8476Z" fill="#706868"/>
<path d="M18.9465 25.8476H18.7537V30.3678H18.9465V25.8476Z" fill="#716969"/>
<path d="M19.1394 25.8476H18.9465V30.3678H19.1394V25.8476Z" fill="#726A6A"/>
<path d="M19.3323 25.8476H19.1394V30.3678H19.3323V25.8476Z" fill="#736B6B"/>
<path d="M19.5251 25.8476H19.3323V30.3678H19.5251V25.8476Z" fill="#746D6C"/>
<path d="M19.718 25.8476H19.5251V30.3678H19.718V25.8476Z" fill="#756E6D"/>
<path d="M19.9109 25.8476H19.718V30.3678H19.9109V25.8476Z" fill="#766F6E"/>
<path d="M20.1036 25.8476H19.9108V30.3678H20.1036V25.8476Z" fill="#77706F"/>
<path d="M20.2965 25.8476H20.1036V30.3678H20.2965V25.8476Z" fill="#787170"/>
<path d="M20.4894 25.8476H20.2965V30.3678H20.4894V25.8476Z" fill="#7A7271"/>
<path d="M20.6822 25.8476H20.4894V30.3678H20.6822V25.8476Z" fill="#7B7372"/>
<path d="M20.8751 25.8476H20.6823V30.3678H20.8751V25.8476Z" fill="#7C7473"/>
<path d="M21.068 25.8476H20.8751V30.3678H21.068V25.8476Z" fill="#7D7574"/>
<path d="M21.2609 25.8476H21.068V30.3678H21.2609V25.8476Z" fill="#7E7675"/>
<path d="M21.4537 25.8476H21.2609V30.3678H21.4537V25.8476Z" fill="#7F7777"/>
<path d="M21.6466 25.8476H21.4537V30.3678H21.6466V25.8476Z" fill="#807878"/>
<path d="M21.8395 25.8476H21.6466V30.3678H21.8395V25.8476Z" fill="#817979"/>
<path d="M22.0323 25.8476H21.8395V30.3678H22.0323V25.8476Z" fill="#827A7A"/>
<path d="M22.2252 25.8476H22.0323V30.3678H22.2252V25.8476Z" fill="#837C7B"/>
<path d="M22.4181 25.8476H22.2252V30.3678H22.4181V25.8476Z" fill="#847D7C"/>
<path d="M22.611 25.8476H22.4181V30.3678H22.611V25.8476Z" fill="#857E7D"/>
<path d="M22.8038 25.8476H22.611V30.3678H22.8038V25.8476Z" fill="#867F7E"/>
<path d="M22.9967 25.8476H22.8038V30.3678H22.9967V25.8476Z" fill="#87807F"/>
<path d="M23.1896 25.8476H22.9967V30.3678H23.1896V25.8476Z" fill="#898181"/>
<path d="M23.3824 25.8476H23.1896V30.3678H23.3824V25.8476Z" fill="#8A8282"/>
<path d="M23.5753 25.8476H23.3824V30.3678H23.5753V25.8476Z" fill="#8B8383"/>
<path d="M23.7682 25.8476H23.5753V30.3678H23.7682V25.8476Z" fill="#8C8584"/>
<path d="M23.9611 25.8476H23.7682V30.3678H23.9611V25.8476Z" fill="#8D8685"/>
<path d="M24.1539 25.8476H23.9611V30.3678H24.1539V25.8476Z" fill="#8E8786"/>
<path d="M24.3468 25.8476H24.1539V30.3678H24.3468V25.8476Z" fill="#8F8887"/>
<path d="M24.5397 25.8476H24.3468V30.3678H24.5397V25.8476Z" fill="#908989"/>
<path d="M24.7325 25.8476H24.5397V30.3678H24.7325V25.8476Z" fill="#918A8A"/>
<path d="M24.9254 25.8476H24.7325V30.3678H24.9254V25.8476Z" fill="#928B8B"/>
<path d="M25.1183 25.8476H24.9254V30.3678H25.1183V25.8476Z" fill="#948D8C"/>
<path d="M25.3112 25.8476H25.1183V30.3678H25.3112V25.8476Z" fill="#958E8D"/>
<path d="M25.504 25.8476H25.3112V30.3678H25.504V25.8476Z" fill="#968F8E"/>
<path d="M25.6969 25.8476H25.504V30.3678H25.6969V25.8476Z" fill="#979090"/>
<path d="M25.8898 25.8476H25.6969V30.3678H25.8898V25.8476Z" fill="#989191"/>
<path d="M26.0826 25.8476H25.8898V30.3678H26.0826V25.8476Z" fill="#999292"/>
<path d="M26.2755 25.8476H26.0826V30.3678H26.2755V25.8476Z" fill="#9A9493"/>
<path d="M26.4684 25.8476H26.2755V30.3678H26.4684V25.8476Z" fill="#9B9594"/>
<path d="M26.6613 25.8476H26.4684V30.3678H26.6613V25.8476Z" fill="#9D9696"/>
<path d="M26.8541 25.8476H26.6613V30.3678H26.8541V25.8476Z" fill="#9E9797"/>
<path d="M27.047 25.8476H26.8541V30.3678H27.047V25.8476Z" fill="#9F9898"/>
<path d="M27.2399 25.8476H27.047V30.3678H27.2399V25.8476Z" fill="#A09A99"/>
<path d="M27.4327 25.8476H27.2399V30.3678H27.4327V25.8476Z" fill="#A19B9B"/>
<path d="M27.6256 25.8476H27.4327V30.3678H27.6256V25.8476Z" fill="#A29C9C"/>
<path d="M27.8185 25.8476H27.6256V30.3678H27.8185V25.8476Z" fill="#A39D9D"/>
<path d="M28.0114 25.8476H27.8185V30.3678H28.0114V25.8476Z" fill="#A59F9E"/>
<path d="M28.2042 25.8476H28.0114V30.3678H28.2042V25.8476Z" fill="#A6A0A0"/>
<path d="M28.3971 25.8476H28.2042V30.3678H28.3971V25.8476Z" fill="#A7A1A1"/>
<path d="M28.59 25.8476H28.3971V30.3678H28.59V25.8476Z" fill="#A8A2A2"/>
<path d="M28.7828 25.8476H28.59V30.3678H28.7828V25.8476Z" fill="#A9A4A3"/>
<path d="M28.9757 25.8476H28.7828V30.3678H28.9757V25.8476Z" fill="#ABA5A5"/>
<path d="M29.1686 25.8476H28.9757V30.3678H29.1686V25.8476Z" fill="#ACA6A6"/>
<path d="M29.3614 25.8476H29.1686V30.3678H29.3614V25.8476Z" fill="#ADA7A7"/>
<path d="M29.5543 25.8476H29.3615V30.3678H29.5543V25.8476Z" fill="#AEA9A9"/>
<path d="M29.7472 25.8476H29.5543V30.3678H29.7472V25.8476Z" fill="#AFAAAA"/>
<path d="M29.9399 25.8476H29.7471V30.3678H29.9399V25.8476Z" fill="#B1ABAB"/>
<path d="M30.1328 25.8476H29.9399V30.3678H30.1328V25.8476Z" fill="#B2ADAC"/>
<path d="M30.3257 25.8476H30.1328V30.3678H30.3257V25.8476Z" fill="#B3AEAE"/>
<path d="M30.5186 25.8476H30.3257V30.3678H30.5186V25.8476Z" fill="#B4AFAF"/>
<path d="M30.7114 25.8476H30.5186V30.3678H30.7114V25.8476Z" fill="#B6B0B0"/>
<path d="M30.9043 25.8476H30.7114V30.3678H30.9043V25.8476Z" fill="#B7B2B2"/>
<path d="M31.0972 25.8476H30.9043V30.3678H31.0972V25.8476Z" fill="#B8B3B3"/>
<path d="M31.29 25.8476H31.0972V30.3678H31.29V25.8476Z" fill="#B9B4B4"/>
<path d="M31.4829 25.8476H31.29V30.3678H31.4829V25.8476Z" fill="#BBB6B6"/>
<path d="M31.6758 25.8476H31.4829V30.3678H31.6758V25.8476Z" fill="#BCB7B7"/>
<path d="M31.8687 25.8476H31.6758V30.3678H31.8687V25.8476Z" fill="#BDB8B8"/>
<path d="M32.0615 25.8476H31.8687V30.3678H32.0615V25.8476Z" fill="#BEBABA"/>
<path d="M32.2544 25.8476H32.0615V30.3678H32.2544V25.8476Z" fill="#C0BBBB"/>
<path d="M32.4473 25.8476H32.2544V30.3678H32.4473V25.8476Z" fill="#C1BCBC"/>
<path d="M32.6401 25.8476H32.4473V30.3678H32.6401V25.8476Z" fill="#C2BEBE"/>
<path d="M32.833 25.8476H32.6401V30.3678H32.833V25.8476Z" fill="#C3BFBF"/>
<path d="M33.0259 25.8476H32.833V30.3678H33.0259V25.8476Z" fill="#C5C0C0"/>
<path d="M33.2187 25.8476H33.0259V30.3678H33.2187V25.8476Z" fill="#C6C2C2"/>
<path d="M33.4116 25.8476H33.2188V30.3678H33.4116V25.8476Z" fill="#C7C3C3"/>
<path d="M33.6045 25.8476H33.4116V30.3678H33.6045V25.8476Z" fill="#C8C4C4"/>
<path d="M33.7974 25.8476H33.6045V30.3678H33.7974V25.8476Z" fill="#CAC6C6"/>
<path d="M33.9902 25.8476H33.7974V30.3678H33.9902V25.8476Z" fill="#CBC7C7"/>
<path d="M34.1831 25.8476H33.9902V30.3678H34.1831V25.8476Z" fill="#CCC8C9"/>
<path d="M34.376 25.8476H34.1831V30.3678H34.376V25.8476Z" fill="#CDCACA"/>
<path d="M34.5688 25.8476H34.376V30.3678H34.5688V25.8476Z" fill="#CFCBCB"/>
<path d="M34.7617 25.8476H34.5688V30.3678H34.7617V25.8476Z" fill="#D0CCCD"/>
<path d="M34.9546 25.8476H34.7617V30.3678H34.9546V25.8476Z" fill="#D1CECE"/>
<path d="M35.1475 25.8476H34.9546V30.3678H35.1475V25.8476Z" fill="#D3CFCF"/>
<path d="M35.3403 25.8476H35.1475V30.3678H35.3403V25.8476Z" fill="#D4D1D1"/>
<path d="M35.5332 25.8476H35.3403V30.3678H35.5332V25.8476Z" fill="#D5D2D2"/>
<path d="M35.7261 25.8476H35.5332V30.3678H35.7261V25.8476Z" fill="#D7D3D4"/>
<path d="M35.9189 25.8476H35.7261V30.3678H35.9189V25.8476Z" fill="#D8D5D5"/>
<path d="M36.1118 25.8476H35.9189V30.3678H36.1118V25.8476Z" fill="#D9D6D7"/>
<path d="M36.3047 25.8476H36.1118V30.3678H36.3047V25.8476Z" fill="#DBD8D8"/>
<path d="M36.4976 25.8476H36.3047V30.3678H36.4976V25.8476Z" fill="#DCD9DA"/>
<path d="M36.6904 25.8476H36.4976V30.3678H36.6904V25.8476Z" fill="#DEDBDB"/>
<path d="M36.8833 25.8476H36.6904V30.3678H36.8833V25.8476Z" fill="#DFDCDD"/>
<path d="M37.0762 25.8476H36.8833V30.3678H37.0762V25.8476Z" fill="#E0DEDE"/>
<path d="M37.269 25.8476H37.0762V30.3678H37.269V25.8476Z" fill="#E2DFE0"/>
<path d="M37.4619 25.8476H37.269V30.3678H37.4619V25.8476Z" fill="#E3E1E1"/>
<path d="M37.6548 25.8476H37.4619V30.3678H37.6548V25.8476Z" fill="#E4E2E3"/>
<path d="M37.8477 25.8476H37.6548V30.3678H37.8477V25.8476Z" fill="#E6E4E4"/>
<path d="M38.0405 25.8476H37.8477V30.3678H38.0405V25.8476Z" fill="#E7E5E6"/>
<path d="M38.2334 25.8476H38.0405V30.3678H38.2334V25.8476Z" fill="#E9E7E7"/>
<path d="M38.4263 25.8476H38.2334V30.3678H38.4263V25.8476Z" fill="#EAE8E9"/>
<path d="M38.6191 25.8476H38.4263V30.3678H38.6191V25.8476Z" fill="#EBEAEA"/>
<path d="M38.812 25.8476H38.6191V30.3678H38.812V25.8476Z" fill="#EDEBEC"/>
<path d="M39.0049 25.8476H38.812V30.3678H39.0049V25.8476Z" fill="#EEEDED"/>
<path d="M39.1977 25.8476H39.0049V30.3678H39.1977V25.8476Z" fill="#F0EEEF"/>
<path d="M39.3906 25.8476H39.1978V30.3678H39.3906V25.8476Z" fill="#F1F0F0"/>
<path d="M39.5835 25.8476H39.3906V30.3678H39.5835V25.8476Z" fill="#F3F1F2"/>
<path d="M39.7764 25.8476H39.5835V30.3678H39.7764V25.8476Z" fill="#F4F3F3"/>
<path d="M39.9692 25.8476H39.7764V30.3678H39.9692V25.8476Z" fill="#F5F4F5"/>
<path d="M40.162 25.8476H39.9691V30.3678H40.162V25.8476Z" fill="#F7F6F6"/>
<path d="M40.3549 25.8476H40.162V30.3678H40.3549V25.8476Z" fill="#F8F8F8"/>
<path d="M40.5477 25.8476H40.3549V30.3678H40.5477V25.8476Z" fill="#FAF9F9"/>
<path d="M40.7406 25.8476H40.5477V30.3678H40.7406V25.8476Z" fill="#FBFBFB"/>
<path d="M40.9335 25.8476H40.7406V30.3678H40.9335V25.8476Z" fill="#FCFCFC"/>
<path d="M41.1263 25.8476H40.9335V30.3678H41.1263V25.8476Z" fill="#FEFEFE"/>
<path d="M41.3192 25.8476H41.1263V30.3678H41.3192V25.8476Z" fill="white"/>
</g>
</g>
<path fill-rule="evenodd" clip-rule="evenodd" d="M3.78363 26.8648H6.8355L5.61021 29.3507H2.55835L3.78363 26.8648ZM9.12156 26.8648H12.1734L10.9481 29.3507H7.89627L9.12156 26.8648ZM14.4595 26.8648H17.5113L16.2861 29.3507H13.2342L14.4595 26.8648ZM19.7974 26.8648H22.8493L21.624 29.3507H18.5721L19.7974 26.8648ZM25.141 26.8648H28.1929L26.9676 29.3507H23.91L25.1353 26.8648H25.141ZM30.4789 26.8648H33.5308L32.3055 29.3507H29.2536L30.4789 26.8648ZM35.8169 26.8648H38.8744L37.6491 29.3507H34.5916L35.8169 26.8648Z" fill="#F8E931"/>
<path d="M37.6548 29.3554H34.5916L35.8169 26.86H38.8801L37.6548 29.3554ZM34.603 29.3507H37.6492L38.8745 26.8695H35.8283L34.603 29.3507ZM32.3169 29.3554H29.2537L30.479 26.86H33.5365L32.3112 29.3554H32.3169ZM29.2651 29.3507H32.3112L33.5309 26.8695H30.4847L29.2594 29.3507H29.2651ZM26.979 29.3554H23.9158L25.1411 26.86H28.1986L26.9733 29.3554H26.979ZM23.9271 29.3507H26.9733L28.1929 26.8695H25.1467L23.9215 29.3507H23.9271ZM21.6354 29.3554H18.5779L19.8031 26.86H22.8664L21.6411 29.3554H21.6354ZM18.5835 29.3507H21.6297L22.855 26.8695H19.8088L18.5892 29.3507H18.5835ZM16.2918 29.3554H13.2343L14.4595 26.86H17.5171L16.2918 29.3554ZM13.2456 29.3507H16.2918L17.5171 26.8695H14.4709L13.2513 29.3507H13.2456ZM10.9539 29.3554H7.89633L9.12162 26.86H12.1848L10.9595 29.3554H10.9539ZM7.90768 29.3507H10.9539L12.1792 26.8695H9.13296L7.91335 29.3507H7.90768ZM5.61594 29.3554H2.55273L3.77802 26.86H6.83556L5.61027 29.3554H5.61594ZM2.56408 29.3507H5.61027L6.82988 26.8695H3.78369L2.55841 29.3507H2.56408Z" fill="#1F1A17"/>
</g>
<defs>
<clipPath id="clip0_206_3370">
<rect width="147" height="31" fill="white"/>
</clipPath>
</defs>
</svg>
