<svg width="30" height="30" viewBox="0 0 30 30" fill="none" xmlns="http://www.w3.org/2000/svg">
<path d="M22.7917 0.333267H7.20837C3.41142 0.333267 0.333374 3.41131 0.333374 7.20827V22.7916C0.333374 26.5886 3.41142 29.6666 7.20837 29.6666H22.7917C26.5887 29.6666 29.6667 26.5886 29.6667 22.7916V7.20827C29.6667 3.41131 26.5887 0.333267 22.7917 0.333267Z" fill="#1877F2"/>
<path d="M23.4019 19.2395L24.0521 14.9999H19.9844V12.2488C19.9844 11.0888 20.5526 9.95827 22.3746 9.95827H24.224V6.3489C24.224 6.3489 22.5456 6.06244 20.9408 6.06244C17.5908 6.06244 15.4011 8.09286 15.4011 11.7687V14.9999H11.6771V19.2395H15.4011V29.4884C16.1592 29.6072 16.9254 29.6668 17.6927 29.6666C18.4601 29.6668 19.2263 29.6073 19.9844 29.4884V19.2395H23.4019Z" fill="white"/>
</svg>
