<svg width="30" height="30" viewBox="0 0 30 30" fill="none" xmlns="http://www.w3.org/2000/svg">
<path d="M22.4583 0.333267H6.875C3.07804 0.333267 0 3.41131 0 7.20827V22.7916C0 26.5886 3.07804 29.6666 6.875 29.6666H22.4583C26.2553 29.6666 29.3333 26.5886 29.3333 22.7916V7.20827C29.3333 3.41131 26.2553 0.333267 22.4583 0.333267Z" fill="url(#paint0_radial_206_2433)"/>
<path d="M22.4583 0.333267H6.875C3.07804 0.333267 0 3.41131 0 7.20827V22.7916C0 26.5886 3.07804 29.6666 6.875 29.6666H22.4583C26.2553 29.6666 29.3333 26.5886 29.3333 22.7916V7.20827C29.3333 3.41131 26.2553 0.333267 22.4583 0.333267Z" fill="url(#paint1_radial_206_2433)"/>
<path d="M14.6677 3.5416C11.5559 3.5416 11.1653 3.55523 9.94312 3.6108C8.72327 3.66672 7.89059 3.85979 7.16207 4.14316C6.40834 4.4358 5.76908 4.82733 5.13223 5.46442C4.4948 6.10139 4.10327 6.74065 3.80971 7.49403C3.52554 8.22278 3.33224 9.0558 3.27735 10.2751C3.2227 11.4973 3.20837 11.8881 3.20837 15C3.20837 18.112 3.22212 18.5014 3.27758 19.7235C3.33373 20.9434 3.5268 21.776 3.80994 22.5046C4.10281 23.2583 4.49434 23.8976 5.13143 24.5344C5.76817 25.1718 6.40743 25.5643 7.16058 25.8569C7.88968 26.1403 8.72247 26.3334 9.94209 26.3893C11.1644 26.4449 11.5546 26.4585 14.6664 26.4585C17.7786 26.4585 18.1679 26.4449 19.3901 26.3893C20.6099 26.3334 21.4435 26.1403 22.1726 25.8569C22.926 25.5643 23.5643 25.1718 24.201 24.5344C24.8384 23.8976 25.2298 23.2583 25.5235 22.5049C25.8051 21.776 25.9985 20.9431 26.0558 19.7237C26.1107 18.5016 26.125 18.112 26.125 15C26.125 11.8881 26.1107 11.4976 26.0558 10.2753C25.9985 9.05546 25.8051 8.2229 25.5235 7.49438C25.2298 6.74065 24.8384 6.10139 24.201 5.46442C23.5636 4.82711 22.9262 4.43557 22.1719 4.14327C21.4414 3.85979 20.6083 3.66661 19.3885 3.6108C18.1662 3.55523 17.7771 3.5416 14.6642 3.5416H14.6677ZM13.6398 5.6065C13.9449 5.60604 14.2854 5.6065 14.6677 5.6065C17.7272 5.6065 18.0898 5.6175 19.2979 5.67239C20.4151 5.72349 21.0215 5.91015 21.4254 6.06701C21.9602 6.27464 22.3414 6.52294 22.7422 6.9241C23.1432 7.32514 23.3914 7.70704 23.5996 8.2418C23.7565 8.64514 23.9434 9.25151 23.9942 10.3687C24.0491 11.5766 24.0611 11.9394 24.0611 14.9974C24.0611 18.0554 24.0491 18.4183 23.9942 19.6261C23.9431 20.7433 23.7565 21.3497 23.5996 21.7531C23.392 22.2879 23.1432 22.6686 22.7422 23.0695C22.3412 23.4705 21.9604 23.7187 21.4254 23.9264C21.022 24.084 20.4151 24.2702 19.2979 24.3213C18.09 24.3762 17.7272 24.3881 14.6677 24.3881C11.6081 24.3881 11.2455 24.3762 10.0377 24.3213C8.92047 24.2697 8.31409 24.0831 7.90984 23.9262C7.3752 23.7185 6.99318 23.4703 6.59213 23.0692C6.19109 22.6682 5.94291 22.2872 5.73471 21.7522C5.57784 21.3488 5.39096 20.7424 5.34008 19.6252C5.2852 18.4173 5.2742 18.0545 5.2742 14.9945C5.2742 11.9347 5.2852 11.5738 5.34008 10.3658C5.39119 9.24865 5.57784 8.64227 5.73471 8.23837C5.94245 7.70361 6.19109 7.3217 6.59225 6.92066C6.99329 6.51962 7.3752 6.27131 7.90996 6.06323C8.31386 5.90568 8.92047 5.71948 10.0377 5.66815C11.0947 5.62037 11.5043 5.60604 13.6398 5.60364V5.6065ZM20.7842 7.50904C20.0251 7.50904 19.4092 8.12436 19.4092 8.88358C19.4092 9.6427 20.0251 10.2586 20.7842 10.2586C21.5433 10.2586 22.1592 9.6427 22.1592 8.88358C22.1592 8.12447 21.5433 7.50858 20.7842 7.50858V7.50904ZM14.6677 9.11562C11.4182 9.11562 8.78343 11.7503 8.78343 15C8.78343 18.2497 11.4182 20.8832 14.6677 20.8832C17.9174 20.8832 20.5512 18.2497 20.5512 15C20.5512 11.7505 17.9172 9.11562 14.6675 9.11562H14.6677ZM14.6677 11.1805C16.7771 11.1805 18.4873 12.8905 18.4873 15C18.4873 17.1094 16.7771 18.8196 14.6677 18.8196C12.5583 18.8196 10.8483 17.1094 10.8483 15C10.8483 12.8905 12.5583 11.1805 14.6677 11.1805Z" fill="white"/>
<defs>
<radialGradient id="paint0_radial_206_2433" cx="0" cy="0" r="1" gradientUnits="userSpaceOnUse" gradientTransform="translate(7.79167 31.9258) rotate(-90) scale(29.0715 27.0388)">
<stop stop-color="#FFDD55"/>
<stop offset="0.1" stop-color="#FFDD55"/>
<stop offset="0.5" stop-color="#FF543E"/>
<stop offset="1" stop-color="#C837AB"/>
</radialGradient>
<radialGradient id="paint1_radial_206_2433" cx="0" cy="0" r="1" gradientUnits="userSpaceOnUse" gradientTransform="translate(-4.91345 2.4463) rotate(78.681) scale(12.9951 53.5663)">
<stop stop-color="#3771C8"/>
<stop offset="0.128" stop-color="#3771C8"/>
<stop offset="1" stop-color="#6600FF" stop-opacity="0"/>
</radialGradient>
</defs>
</svg>
