<svg width="22" height="25" viewBox="0 0 22 25" fill="none" xmlns="http://www.w3.org/2000/svg">
<path d="M18.7777 18.4056L12.7955 24.2707C12.5597 24.5019 12.2798 24.6853 11.9718 24.8105C11.6637 24.9356 11.3335 25 11 25C10.6665 25 10.3363 24.9356 10.0282 24.8105C9.7201 24.6853 9.4402 24.5019 9.20446 24.2707L3.22224 18.4056C2.20074 17.4045 1.39043 16.216 0.837552 14.908C0.284679 13.5999 7.85985e-05 12.198 1.62777e-08 10.7821C-7.8566e-05 9.36626 0.284366 7.96426 0.837094 6.65616C1.38982 5.34805 2.20001 4.15946 3.22139 3.15825C4.24278 2.15704 5.45536 1.36281 6.78991 0.820919C8.12446 0.279026 9.55484 7.70166e-05 10.9994 1.59457e-08C12.4439 -7.69847e-05 13.8743 0.278719 15.2089 0.820471C16.5435 1.36222 17.7562 2.15632 18.7777 3.15742C19.7993 4.15859 20.6097 5.34718 21.1625 6.65533C21.7154 7.96349 22 9.36557 22 10.7815C22 12.1975 21.7154 13.5996 21.1625 14.9077C20.6097 16.2159 19.7993 17.4045 18.7777 18.4056ZM16.9839 4.91728C15.3969 3.36176 13.2444 2.48622 11 2.48622C8.75557 2.48622 6.60309 3.3601 5.01606 4.91562C3.42903 6.47113 2.53744 8.58087 2.53744 10.7807C2.53744 12.9805 3.42903 15.0903 5.01606 16.6458L11 22.5092L16.9839 16.6474C17.7698 15.8773 18.3933 14.9629 18.8187 13.9566C19.244 12.9503 19.463 11.8716 19.463 10.7824C19.463 9.69307 19.244 8.61445 18.8187 7.60811C18.3933 6.60177 17.7698 5.68742 16.9839 4.91728ZM11 14.0997C10.5493 14.1097 10.101 14.0313 9.68164 13.8692C9.26225 13.7071 8.88013 13.4645 8.55772 13.1556C8.2353 12.8467 7.9791 12.4778 7.80414 12.0706C7.62918 11.6633 7.539 11.2259 7.53889 10.784C7.53878 10.3422 7.62874 9.9047 7.80348 9.49736C7.97823 9.09002 8.23425 8.72101 8.55651 8.41198C8.87876 8.10296 9.26076 7.86015 9.68007 7.69782C10.0994 7.53548 10.5476 7.45689 10.9983 7.46666C11.8826 7.48583 12.7241 7.84356 13.3427 8.46326C13.9613 9.08297 14.3078 9.9154 14.308 10.7824C14.3082 11.6493 13.9622 12.482 13.3439 13.102C12.7256 13.722 11.8843 14.0801 11 14.0997Z" fill="white"/>
</svg>
