<svg width="24" height="24" viewBox="0 0 24 24" fill="none" xmlns="http://www.w3.org/2000/svg">
<g clip-path="url(#clip0_44_10003)">
<path d="M12.0019 2.16396C15.207 2.16396 15.585 2.17508 16.8522 2.23437C18.0232 2.28624 18.6568 2.48263 19.0792 2.64937C19.6387 2.86799 20.0389 3.12737 20.4576 3.54609C20.8763 3.9648 21.1394 4.36498 21.3543 4.9245C21.5174 5.34692 21.7138 5.98425 21.7693 7.15146C21.8286 8.41501 21.8397 8.79667 21.8397 12.0019C21.8397 15.207 21.8286 15.585 21.7693 16.8522C21.7175 18.0232 21.5211 18.6568 21.3543 19.0792C21.1357 19.6387 20.8763 20.0389 20.4576 20.4576C20.0389 20.8763 19.6387 21.1394 19.0792 21.3543C18.6568 21.5174 18.0195 21.7138 16.8522 21.7693C15.5887 21.8286 15.207 21.8397 12.0019 21.8397C8.79667 21.8397 8.41871 21.8286 7.15146 21.7693C5.98055 21.7175 5.34692 21.5211 4.9245 21.3543C4.36498 21.1357 3.9648 20.8763 3.54609 20.4576C3.12737 20.0389 2.86429 19.6387 2.64937 19.0792C2.48634 18.6568 2.28995 18.0195 2.23437 16.8522C2.17508 15.5887 2.16396 15.207 2.16396 12.0019C2.16396 8.79667 2.17508 8.41871 2.23437 7.15146C2.28624 5.98055 2.48263 5.34692 2.64937 4.9245C2.86799 4.36498 3.12737 3.9648 3.54609 3.54609C3.9648 3.12737 4.36498 2.86429 4.9245 2.64937C5.34692 2.48634 5.98425 2.28995 7.15146 2.23437C8.41501 2.17508 8.79667 2.16396 12.0019 2.16396ZM12.0019 0C8.74108 0 8.33349 0.0148217 7.05512 0.070403C5.77675 0.12969 4.90598 0.329782 4.14266 0.629921C3.3534 0.937471 2.68272 1.34507 2.01575 2.01575C1.34877 2.68272 0.937471 3.3534 0.629921 4.14266C0.333488 4.90598 0.12969 5.77675 0.070403 7.05512C0.0111163 8.33349 0 8.74479 0 12.0019C0 15.2589 0.0148217 15.6702 0.070403 16.9486C0.12969 18.227 0.329782 19.0977 0.629921 19.861C0.937471 20.6503 1.34507 21.321 2.01575 21.988C2.68272 22.6549 3.3534 23.0662 4.14266 23.3738C4.90598 23.6702 5.77675 23.874 7.05512 23.9333C8.33349 23.9926 8.74479 24.0037 12.0019 24.0037C15.2589 24.0037 15.6702 23.9889 16.9486 23.9333C18.227 23.874 19.0977 23.6739 19.861 23.3738C20.6503 23.0662 21.321 22.6586 21.988 21.988C22.6549 21.321 23.0662 20.6503 23.3738 19.861C23.6702 19.0977 23.874 18.227 23.9333 16.9486C23.9926 15.6702 24.0037 15.2589 24.0037 12.0019C24.0037 8.74479 23.9889 8.33349 23.9333 7.05512C23.874 5.77675 23.6739 4.90598 23.3738 4.14266C23.0662 3.3534 22.6586 2.68272 21.988 2.01575C21.321 1.34877 20.6503 0.937471 19.861 0.629921C19.0977 0.333488 18.227 0.12969 16.9486 0.070403C15.6702 0.0111163 15.2589 0 12.0019 0Z" fill="white"/>
<path d="M12.0018 5.83604C8.60026 5.83604 5.83972 8.59657 5.83972 11.9981C5.83972 15.3997 8.60026 18.1603 12.0018 18.1603C15.4034 18.1603 18.1639 15.3997 18.1639 11.9981C18.1639 8.59657 15.4034 5.83604 12.0018 5.83604ZM12.0018 16C9.7934 16 7.99998 14.2103 7.99998 11.9981C7.99998 9.78601 9.7897 7.9963 12.0018 7.9963C14.214 7.9963 16.0037 9.78601 16.0037 11.9981C16.0037 14.2103 14.214 16 12.0018 16Z" fill="white"/>
<path d="M18.4048 7.03659C19.2009 7.03659 19.8462 6.39125 19.8462 5.59519C19.8462 4.79912 19.2009 4.15378 18.4048 4.15378C17.6087 4.15378 16.9634 4.79912 16.9634 5.59519C16.9634 6.39125 17.6087 7.03659 18.4048 7.03659Z" fill="white"/>
</g>
<defs>
<clipPath id="clip0_44_10003">
<rect width="24" height="24" fill="white"/>
</clipPath>
</defs>
</svg>
