<svg width="30" height="30" viewBox="0 0 30 30" fill="none" xmlns="http://www.w3.org/2000/svg">
<path d="M23.125 0.333267H7.54163C3.74467 0.333267 0.666626 3.41131 0.666626 7.20827V22.7916C0.666626 26.5886 3.74467 29.6666 7.54163 29.6666H23.125C26.9219 29.6666 30 26.5886 30 22.7916V7.20827C30 3.41131 26.9219 0.333267 23.125 0.333267Z" fill="#EEEEEE"/>
<path d="M20.0072 11.9846C21.4149 12.9904 23.1395 13.5822 25.0021 13.5822V9.9999C24.6495 9.99997 24.298 9.96319 23.9531 9.89016V12.7099C22.0907 12.7099 20.3663 12.1182 18.9583 11.1125V18.4229C18.9583 22.0801 15.992 25.0445 12.3334 25.0445C10.9682 25.0445 9.69929 24.632 8.64526 23.9245C9.8483 25.154 11.526 25.9166 13.382 25.9166C17.041 25.9166 20.0073 22.9522 20.0073 19.295V11.9846H20.0072ZM21.3012 8.3705C20.5818 7.58494 20.1094 6.56972 20.0072 5.44733V4.9866H19.0131C19.2633 6.41311 20.1169 7.63182 21.3012 8.3705ZM10.9594 21.1182C10.5574 20.5915 10.3402 19.9471 10.3411 19.2845C10.3411 17.6119 11.6978 16.2557 13.3717 16.2557C13.6836 16.2556 13.9937 16.3034 14.291 16.3976V12.7353C13.9435 12.6877 13.5929 12.6674 13.2424 12.6749V15.5255C12.945 15.4312 12.6348 15.3834 12.3227 15.3836C10.6489 15.3836 9.2923 16.7397 9.2923 18.4125C9.2923 19.5953 9.97039 20.6193 10.9594 21.1182Z" fill="#FF004F"/>
<path d="M18.9583 11.1124C20.3664 12.1181 22.0907 12.7099 23.9532 12.7099V9.89009C22.9135 9.66873 21.9932 9.12577 21.3012 8.3705C20.1168 7.63174 19.2634 6.41303 19.0132 4.9866H16.4022V19.2948C16.3962 20.9629 15.0419 22.3135 13.3716 22.3135C12.3875 22.3135 11.513 21.8446 10.9593 21.1181C9.97047 20.6193 9.2923 19.5952 9.2923 18.4125C9.2923 16.7399 10.6489 15.3837 12.3227 15.3837C12.6434 15.3837 12.9525 15.4336 13.2424 15.5256V12.675C9.64797 12.7492 6.7572 15.6847 6.7572 19.2949C6.7572 21.0971 7.47705 22.7309 8.64541 23.9246C9.69944 24.632 10.9683 25.0446 12.3335 25.0446C15.9923 25.0446 18.9584 22.08 18.9584 18.4229V11.1125L18.9583 11.1124Z" fill="black"/>
<path d="M23.9531 9.89002V9.12774C23.0156 9.12916 22.0966 8.86675 21.3012 8.37051C22.0053 9.14094 22.9324 9.67222 23.9531 9.89017V9.89002ZM19.0131 4.98653C18.9892 4.85024 18.9709 4.71303 18.9582 4.57525V4.11452H15.353V18.4229C15.3473 20.0908 13.9929 21.4414 12.3226 21.4414C11.8491 21.4421 11.382 21.3314 10.9592 21.1183C11.5129 21.8446 12.3873 22.3134 13.3715 22.3134C15.0417 22.3134 16.3962 20.963 16.4021 19.2949V4.98661H19.0131V4.98653ZM13.2426 12.6749V11.8632C12.9413 11.8221 12.6376 11.8015 12.3335 11.8016C8.67439 11.8016 5.70825 14.7661 5.70825 18.4229C5.70825 20.7155 6.87398 22.736 8.64544 23.9245C7.47708 22.7308 6.75723 21.097 6.75723 19.2948C6.75723 15.6847 9.64792 12.7491 13.2426 12.6749Z" fill="#00F2EA"/>
</svg>
