<svg width="20" height="20" viewBox="0 0 20 20" fill="none" xmlns="http://www.w3.org/2000/svg">
<path d="M9.99 2.90521e-05C4.53 2.90521e-05 0.0800002 4.45003 0.0800002 9.91003C0.0800002 11.66 0.54 13.36 1.4 14.86L0 20L5.25 18.62C6.7 19.41 8.33 19.83 9.99 19.83C15.45 19.83 19.9 15.38 19.9 9.92003C19.9 7.27003 18.87 4.78003 17 2.91003C16.0832 1.98395 14.9912 1.2497 13.7876 0.75008C12.5841 0.250463 11.2931 -0.00451063 9.99 2.90521e-05ZM10 1.67003C12.2 1.67003 14.26 2.53003 15.82 4.09003C16.5856 4.85538 17.1926 5.76435 17.6062 6.76479C18.0197 7.76523 18.2317 8.83748 18.23 9.92003C18.23 14.46 14.53 18.15 9.99 18.15C8.51 18.15 7.06 17.76 5.8 17L5.5 16.83L2.38 17.65L3.21 14.61L3.01 14.29C2.18394 12.9787 1.74701 11.4599 1.75 9.91003C1.76 5.37003 5.45 1.67003 10 1.67003ZM6.48 5.33003C6.32 5.33003 6.05 5.39003 5.82 5.64003C5.6 5.89003 4.95 6.50003 4.95 7.71003C4.95 8.93003 5.84 10.1 5.95 10.27C6.09 10.44 7.71 12.94 10.2 14C10.79 14.27 11.25 14.42 11.61 14.53C12.2 14.72 12.74 14.69 13.17 14.63C13.65 14.56 14.63 14.03 14.84 13.45C15.05 12.87 15.05 12.38 14.99 12.27C14.92 12.17 14.76 12.11 14.51 12C14.26 11.86 13.04 11.26 12.82 11.18C12.59 11.1 12.45 11.06 12.26 11.3C12.1 11.55 11.62 12.11 11.48 12.27C11.33 12.44 11.19 12.46 10.95 12.34C10.69 12.21 9.89 11.95 8.95 11.11C8.21 10.45 7.72 9.64003 7.57 9.39003C7.45 9.15003 7.56 9.00003 7.68 8.89003C7.79 8.78003 7.95 8.60003 8.05 8.45003C8.18 8.31003 8.22 8.20003 8.3 8.04003C8.38 7.87003 8.34 7.73003 8.28 7.61003C8.22 7.50003 7.72 6.26003 7.51 5.77003C7.31 5.29003 7.11 5.35003 6.95 5.34003C6.81 5.34003 6.65 5.33003 6.48 5.33003Z" fill="white"/>
</svg>
